<!-- Created with Inkscape (http://www.inkscape.org/) -->
<svg id="svg5369" width="12" height="12" version="1.1" xmlns="http://www.w3.org/2000/svg">
 <g id="layer1" transform="translate(-54 -1016.4)">
  <g id="bank-12" transform="translate(-306,-154)">
   <g id="g21562" transform="translate(-1,-2)">
    <path id="path15285" d="m363.5 1175.4c-0.277 0-0.5 0.223-0.5 0.5v5c0 0.277 0.223 0.5 0.5 0.5h8c0.277 0 0.5-0.223 0.5-0.5v-5c0-0.277-0.223-0.5-0.5-0.5zm0 1h8v1h-8zm0 3h1.5v1h-1.5zm4.5 0.5h3v0.5h-3z" color="#000000" fill="#747474" opacity=".3" stroke="#fff" stroke-width="2"/>
    <path id="rect10401-7" d="m363.5 1175.4c-0.277 0-0.5 0.223-0.5 0.5v5c0 0.277 0.223 0.5 0.5 0.5h8c0.277 0 0.5-0.223 0.5-0.5v-5c0-0.277-0.223-0.5-0.5-0.5zm0 1h8v1h-8zm0 3h1.5v1h-1.5zm4.5 0.5h3v0.5h-3z" color="#000000" fill="#525252"/>
   </g>
   <rect id="rect22425" x="360" y="1170.4" width="12" height="12" color="#000000" fill="none" opacity=".5"/>
  </g>
 </g>
</svg>
