<!-- Created with Inkscape (http://www.inkscape.org/) -->
<svg id="svg5369" width="12" height="12" version="1.1" xmlns="http://www.w3.org/2000/svg">
 <g id="layer1" transform="translate(-150 -836.36)">
  <g id="border_control-12">
   <path id="path4618" d="m153 837.36v4h-2v2h2v1h-1l2 3 2-3h-1v-1h2v4h2v-4h2v-2h-2v-1h1l-2-3-2 3h1v1h-2v-4z" fill="none" opacity=".3" stroke="#fff" stroke-linejoin="round" stroke-width="2"/>
   <path id="path4279" d="m153 837.36v4h-2v2h2v1h-1l2 3 2-3h-1v-1h2v4h2v-4h2v-2h-2v-1h1l-2-3-2 3h1v1h-2v-4z" fill="#525252"/>
   <rect id="rect4284" x="150" y="836.36" width="12" height="12" fill="none" opacity=".3"/>
  </g>
 </g>
</svg>
