<!-- Created with Inkscape (http://www.inkscape.org/) -->
<svg id="svg5369" width="12" height="12" version="1.1" xmlns="http://www.w3.org/2000/svg">
 <g id="layer1" transform="translate(-120 -998.36)">
  <g id="embassy-12">
   <path id="path6849" d="m126.5 1002.4v-1h3.5l-2-1 2-1h-4.5v3s-2.5 0-2.5 2h6c0-2-2.5-2-2.5-2zm-5.5 3h10v4h-3v-1h-4v1h-3z" fill="none" opacity=".3" stroke="#fff" stroke-linejoin="round" stroke-width="2"/>
   <path id="path6840" d="m126.5 1002.4v-1h3.5l-2-1 2-1h-4.5v3s-2.5 0-2.5 2h6c0-2-2.5-2-2.5-2zm-5.5 3h10v4h-3v-1h-4v1h-3z" fill="#525252"/>
   <rect id="rect6842" x="120" y="998.36" width="12" height="12" fill="none" opacity=".3"/>
  </g>
 </g>
</svg>
