<!-- Created with Inkscape (http://www.inkscape.org/) -->
<svg id="svg5369" width="12" height="12" version="1.1" xmlns="http://www.w3.org/2000/svg">
 <g id="layer1" transform="translate(-54 -854.36)">
  <g id="fire_station-12" transform="translate(-384,-220)">
   <g id="g21514" transform="translate(-1,-1)">
    <path id="path5434" d="m445.5 1076.4-1.5 3-1.5-1.5c-0.33139 0.5826-1.5 2-1.5 3.5 0 2.2092 2.2909 4 4.5 4s4.5-1.7908 4.5-4c0-1.5-1.1686-2.9174-1.5-3.5l-1.5 1.5z" color="#000000" fill="#fff" opacity=".3" stroke="#fff" stroke-linecap="round" stroke-linejoin="round" stroke-width="2"/>
    <path id="path10041-3-2" d="m445.5 1076.4-1.5 3-1.5-1.5c-0.33139 0.5826-1.5 2-1.5 3.5 0 2.2092 2.2909 4 4.5 4s4.5-1.7908 4.5-4c0-1.5-1.1686-2.9174-1.5-3.5l-1.5 1.5zm0 4.5s1.5 1.3423 1.5 2.5c0 0.5-0.5 1-1.5 1s-1.5-0.5-1.5-1c0-1.118 1.5-2.5 1.5-2.5z" color="#000000" fill="#525252"/>
   </g>
   <rect id="rect22292-6" x="438" y="1074.4" width="12" height="12" color="#000000" fill="none" opacity=".5"/>
  </g>
 </g>
</svg>
