<!-- Created with Inkscape (http://www.inkscape.org/) -->
<svg id="svg5369" width="12" height="12" version="1.1" xmlns="http://www.w3.org/2000/svg">
 <g id="layer1" transform="translate(-120 -980.36)">
  <g id="government-12">
   <path id="path5356" transform="translate(0 1028.4)" d="m125.5-47v3s-2.5 0-2.5 2h-2v1h1v3h-1v1h10v-1h-1v-3h1v-1h-2c0-2-2.5-2-2.5-2v-1h3.5l-2-1 2-1zm-2.5 6h1v3h-1zm2 0h2v3h-2c6.7525 1.4009 9e-3 -1.9969 0-3zm3 0h1v3h-1z" fill="none" opacity=".3" stroke="#fff" stroke-linejoin="round" stroke-width="2"/>
   <path id="path5329" transform="translate(0 1028.4)" d="m125.5-47v3s-2.5 0-2.5 2h-2v1h1v3h-1v1h10v-1h-1v-3h1v-1h-2c0-2-2.5-2-2.5-2v-1h3.5l-2-1 2-1zm-2.5 6h1v3h-1zm2 0h2v3h-2zm3 0h1v3h-1z" fill="#525252"/>
   <rect id="rect5331" x="120" y="980.36" width="12" height="12" fill="none" opacity=".3"/>
  </g>
 </g>
</svg>
