<!-- Created with Inkscape (http://www.inkscape.org/) -->
<svg id="svg5369" width="12" height="12" version="1.1" xmlns="http://www.w3.org/2000/svg">
 <g id="layer1" transform="translate(-18 -944.36)">
  <g id="police-12" transform="translate(-420,-178)">
   <g id="g21526" transform="translate(-1)">
    <path id="rect7805-5-1" d="m444 1124.4h3v-1h-3zm0 0.75c0 0.9665 0.53351 1.75 1.5 1.75s1.5-0.7835 1.5-1.75v-0.25h-3zm-1 2.25c-0.5 0-1 1.5-1 2v3h1.5938l3.4062-5zm5 0-3.4062 5h4.4062v-3c0-0.5-0.5-2-1-2z" color="#000000" fill="#fff" opacity=".3" stroke="#fff" stroke-linecap="round" stroke-linejoin="round" stroke-width="2"/>
    <path id="path5442" d="m444 1124.4h3v-1h-3zm0 0.75c0 0.9665 0.53351 1.75 1.5 1.75s1.5-0.7835 1.5-1.75v-0.25h-3zm-1 2.25c-0.5 0-1 1.5-1 2v3h1.5938l3.4062-5zm5 0-3.4062 5h4.4062v-3c0-0.5-0.5-2-1-2z" color="#000000" fill="#525252"/>
   </g>
   <rect id="rect22304-3" x="438" y="1122.4" width="12" height="12" color="#000000" fill="none" opacity=".5"/>
  </g>
 </g>
</svg>
