<!-- Created with Inkscape (http://www.inkscape.org/) -->
<svg id="svg5369" width="12" height="12" version="1.1" xmlns="http://www.w3.org/2000/svg">
 <g id="layer1" transform="translate(-18 -980.36)">
  <g id="school-12" transform="translate(-264,-70)">
   <g id="g21610">
    <path id="path10199" d="m289 1051.9c-0.55228 0-1 0.4477-1 1s0.44772 1 1 1 1-0.4477 1-1-0.44772-1-1-1zm-4 1c-0.55228 0-1 0.4477-1 1s0.44772 1 1 1 1-0.4477 1-1-0.44772-1-1-1zm4.5 1.5h-0.5l-2 1v1l2-1v1 1.5625l-1 3.4375h1l1-3.5s0.25 1.4999 1.25 1.5c0.60093 1e-4 1.4167 0 1.75 0v-0.75c-0.25 0-1.25-1e-4 -1.5 0-0.53359 2e-4 -0.5-0.8012-0.5-1.25 0-0.7501-0.5-2-0.5-2l1.5 0.9375c0.4532 0.3021 0.84576-0.2329 0.40625-0.5625l-1.6562-1.125c-0.30176-0.2149-0.39841-0.2499-0.75-0.25zm-4.75 1c-0.25 0-0.36824 0.1183-0.5 0.25l-1.0625 1.0625c-0.1368 0.1368-0.1875 0.2593-0.1875 0.4375 0 0.25 0.38216 0.3678 0.59375 0.1563l0.90625-0.9063h0.5v1l-1 2.75c-0.20218 0.556 0.57214 0.7243 0.75 0.25l0.50463-1.3h2.7454v-0.7h-1.5v-2c0-0.5-0.5-1-1-1z" color="#000000" fill="none" opacity=".3" stroke="#fff" stroke-linecap="round" stroke-linejoin="round" stroke-width="2"/>
    <path id="path17501" d="m289 1051.9c-0.55228 0-1 0.4477-1 1s0.44772 1 1 1 1-0.4477 1-1-0.44772-1-1-1zm-4 1c-0.55228 0-1 0.4477-1 1s0.44772 1 1 1 1-0.4477 1-1-0.44772-1-1-1zm4.5 1.5h-0.5l-2 1v1l2-1v1 1.5625l-1 3.4375h1l1-3.5s0.25 1.4999 1.25 1.5c0.60093 1e-4 1.4167 0 1.75 0v-0.75c-0.25 0-1.25-1e-4 -1.5 0-0.53359 2e-4 -0.5-0.8012-0.5-1.25 0-0.7501-0.5-2-0.5-2l1.5 0.9375c0.4532 0.3021 0.84576-0.2329 0.40625-0.5625l-1.6562-1.125c-0.30176-0.2149-0.39841-0.2499-0.75-0.25zm-4.75 1c-0.25 0-0.36824 0.1183-0.5 0.25l-1.0625 1.0625c-0.1368 0.1368-0.1875 0.2593-0.1875 0.4375 0 0.25 0.38216 0.3678 0.59375 0.1563l0.90625-0.9063h0.5v1l-1 2.75c-0.20218 0.556 0.57214 0.7243 0.75 0.25l0.50463-1.3h2.7454v-0.7h-1.5v-2c0-0.5-0.5-1-1-1z" color="#000000" fill="#525252"/>
   </g>
   <rect id="rect22286-0" x="282" y="1050.4" width="12" height="12" color="#000000" fill="none" opacity=".5"/>
  </g>
 </g>
</svg>
