<!-- Created with Inkscape (http://www.inkscape.org/) -->
<svg id="svg5369" width="12" height="12" version="1.1" xmlns="http://www.w3.org/2000/svg">
 <g id="layer1" transform="translate(-54 -872.36)">
  <g id="taxi-12">
   <path id="path15959" d="m56.349 879.46"/>
   <path id="path15974" d="m64 877.36-0.7255-1.7094c-0.1518-0.42336-0.6421-1.2926-1.2745-1.2906h-1v-1h-2v1h-1c-0.6294-2e-3 -1.1196 0.86724-1.2745 1.2906l-0.7255 1.7094c-0.3239 0.0416-0.9971 0.23765-1 1v3h1v1c-0.0022 1.1167 2.0017 1.1036 2 0v-1h4v1c0.0018 1.1036 1.9996 1.1167 2 0v-1h1v-3c6e-4 -0.76235-0.6731-0.9584-1-1zm-7 3c-0.4714 0-1-0.5286-1-1s0.5286-1 1-1 1 0.5286 1 1-0.5286 1-1 1zm0.3-3 0.7-2h4l0.7 2zm5.7 3c-0.4714 0-1-0.5286-1-1s0.5286-1 1-1 1 0.5286 1 1-0.5286 1-1 1z" fill="none" opacity=".3" stroke="#fff" stroke-linejoin="round" stroke-width="2"/>
   <path id="path15963" d="m64 877.36-0.7255-1.7094c-0.1518-0.42336-0.6421-1.2926-1.2745-1.2906h-1v-1h-2v1h-1c-0.6294-2e-3 -1.1196 0.86724-1.2745 1.2906l-0.7255 1.7094c-0.3239 0.0416-0.9971 0.23765-1 1v3h1v1c-0.0022 1.1167 2.0017 1.1036 2 0v-1h4v1c0.0018 1.1036 1.9996 1.1167 2 0v-1h1v-3c6e-4 -0.76235-0.6731-0.9584-1-1zm-7 3c-0.4714 0-1-0.5286-1-1s0.5286-1 1-1 1 0.5286 1 1-0.5286 1-1 1zm0.3-3 0.7-2h4l0.7 2zm5.7 3c-0.4714 0-1-0.5286-1-1s0.5286-1 1-1 1 0.5286 1 1-0.5286 1-1 1z" fill="#525252"/>
   <path id="path15965" d="m63.658 879.46"/>
   <rect id="rect15967" x="54" y="872.36" width="12" height="12" fill="none" opacity=".3"/>
  </g>
 </g>
</svg>
