<!-- Created with Inkscape (http://www.inkscape.org/) -->
<svg id="svg5369" width="12" height="12" version="1.1" xmlns="http://www.w3.org/2000/svg">
 <g id="layer1" transform="translate(-54 -962.36)">
  <g id="townhall-12" transform="translate(-384,-136)">
   <g id="g21518" transform="translate(0,-1)">
    <path id="path15745" d="m448 1102.4-3.5-2-3.5 2v5 1l-1 1h9l-1-1v-1zm-6 2.5 0.5-0.5 0.5 0.5v2.5h-1zm2 0 0.5-0.5 0.5 0.5v2.5h-1zm2 0 0.5-0.5 0.5 0.5v2.5h-1z" color="#000000" fill="#fff" opacity=".3" stroke="#fff" stroke-linecap="round" stroke-linejoin="round" stroke-width="2"/>
    <path id="rect7645-6-5-0-0-5" d="m444.5 1100.4-3.5 2h7zm-3 3c-0.27701 0-0.5 0.223-0.5 0.5v3.5 1l-1 1h9l-1-1v-1-3.5c0-0.277-0.223-0.5-0.5-0.5zm0.5 1.5 0.5-0.5 0.5 0.5v2.5h-1zm2 0 0.5-0.5 0.5 0.5v2.5h-1zm2 0 0.5-0.5 0.5 0.5v2.5h-1z" color="#000000" fill="#525252"/>
   </g>
   <rect id="rect22298-3" x="438" y="1098.4" width="12" height="12" color="#000000" fill="none" opacity=".5"/>
  </g>
 </g>
</svg>
