<!-- Created with Inkscape (http://www.inkscape.org/) -->
<svg id="svg5369" width="12" height="12" version="1.1" xmlns="http://www.w3.org/2000/svg">
 <g id="layer1" transform="translate(-18 -998.36)">
  <g id="university-12" transform="translate(-264 -76)">
   <g id="g21628" transform="translate(-1,-1)">
    <path id="path5396" d="m289.5 1077.4-4.5 2.5 4.5 2.5 2.5-1.5v1.25l-2.5 1.25-2.5-1.25v1.25l2.5 1.5 2.5-1.5c0 0.5 1 0.5 1 0.5v-0.5s-0.5-0.029-0.5-0.5v-2l1.5-1z" color="#000000" fill="none" opacity=".3" stroke="#fff" stroke-linecap="round" stroke-linejoin="round" stroke-width="2"/>
    <path id="path7442-3" d="m289.5 1077.4-4.5 2.5 4.5 2.5 2.5-1.5v1.25l-2.5 1.25-2.5-1.25v1.25l2.5 1.5 2.5-1.5c0 0.5 1 0.5 1 0.5v-0.5s-0.5-0.029-0.5-0.5v-2l1.5-1z" color="#000000" fill="#525252"/>
   </g>
   <rect id="rect22292-2" x="282" y="1074.4" width="12" height="12" color="#000000" fill="none" opacity=".5"/>
  </g>
 </g>
</svg>
