<?xml version="1.0" encoding="UTF-8" standalone="no"?>
<!-- Created with Inkscape (http://www.inkscape.org/) -->

<svg
   xmlns:dc="http://purl.org/dc/elements/1.1/"
   xmlns:cc="http://creativecommons.org/ns#"
   xmlns:rdf="http://www.w3.org/1999/02/22-rdf-syntax-ns#"
   xmlns:svg="http://www.w3.org/2000/svg"
   xmlns="http://www.w3.org/2000/svg"
   xmlns:sodipodi="http://sodipodi.sourceforge.net/DTD/sodipodi-0.dtd"
   xmlns:inkscape="http://www.inkscape.org/namespaces/inkscape"
   width="24"
   height="24"
   id="svg5369"
   version="1.1"
   inkscape:version="0.48.4 r9939"
   sodipodi:docname="_maki.svg">
  <defs
     id="defs5371" />
  <sodipodi:namedview
     id="base"
     pagecolor="#e8e0d8"
     bordercolor="#666666"
     borderopacity="1.0"
     inkscape:pageopacity="0"
     inkscape:pageshadow="2"
     inkscape:zoom="7.9999999"
     inkscape:cx="25.616708"
     inkscape:cy="105.55576"
     inkscape:document-units="px"
     inkscape:current-layer="layer1"
     showgrid="true"
     showguides="true"
     inkscape:snap-global="true"
     inkscape:snap-from-guide="true"
     inkscape:guide-bbox="true"
     guidecolor="#007633"
     guideopacity="1"
     inkscape:window-width="1366"
     inkscape:window-height="744"
     inkscape:window-x="0"
     inkscape:window-y="24"
     inkscape:window-maximized="1">
    <inkscape:grid
       type="xygrid"
       id="grid5377"
       empspacing="6"
       visible="true"
       enabled="true"
       snapvisiblegridlinesonly="true"
       empcolor="#0000ff"
       empopacity="0.42352941" />
    <sodipodi:guide
       orientation="1,0"
       position="0,2.7289347"
       id="guide5381" />
    <sodipodi:guide
       orientation="1,0"
       position="18,-9.1533018"
       id="guide5383" />
    <sodipodi:guide
       orientation="1,0"
       position="30,53"
       id="guide5385" />
    <sodipodi:guide
       orientation="1,0"
       position="36,-13.132998"
       id="guide5387" />
    <sodipodi:guide
       orientation="0,1"
       position="-6.0263975,24"
       id="guide5389" />
    <sodipodi:guide
       orientation="0,1"
       position="6.5949256,42"
       id="guide5391" />
    <sodipodi:guide
       orientation="0,1"
       position="2,60"
       id="guide6089" />
    <sodipodi:guide
       orientation="0,1"
       position="4,78"
       id="guide6129" />
    <sodipodi:guide
       orientation="0,1"
       position="21,72"
       id="guide6144" />
    <sodipodi:guide
       orientation="0,1"
       position="8,96"
       id="guide6190" />
    <sodipodi:guide
       orientation="0,1"
       position="7,114"
       id="guide6221" />
    <sodipodi:guide
       orientation="0,1"
       position="7,132"
       id="guide6250" />
    <sodipodi:guide
       orientation="0,1"
       position="9,150"
       id="guide6314" />
    <sodipodi:guide
       orientation="0,1"
       position="7,168"
       id="guide6363" />
    <sodipodi:guide
       orientation="0,1"
       position="4,186"
       id="guide6607" />
    <sodipodi:guide
       orientation="0,1"
       position="3,204"
       id="guide7329" />
    <sodipodi:guide
       orientation="0,1"
       position="-12,0"
       id="guide4647" />
    <sodipodi:guide
       orientation="0,1"
       position="-12,-18"
       id="guide4649" />
    <sodipodi:guide
       orientation="0,1"
       position="6,-36"
       id="guide4681" />
    <sodipodi:guide
       orientation="0,1"
       position="5,222"
       id="guide5173" />
    <sodipodi:guide
       orientation="0,1"
       position="6,-54"
       id="guide5980" />
  </sodipodi:namedview>
  <metadata
     id="metadata5374">
    <rdf:RDF>
      <cc:Work
         rdf:about="">
        <dc:format>image/svg+xml</dc:format>
        <dc:type
           rdf:resource="http://purl.org/dc/dcmitype/StillImage" />
        <dc:title></dc:title>
      </cc:Work>
    </rdf:RDF>
  </metadata>
  <g
     inkscape:label="Layer 1"
     inkscape:groupmode="layer"
     id="layer1"
     transform="translate(0,-1028.3622)">
    <g
       style="display:inline"
       id="school-18"
       inkscape:label="school-18"
       transform="translate(-264,-76)"
       inkscape:export-xdpi="89.996864"
       inkscape:export-ydpi="89.996864">
      <g
         transform="translate(0,-1)"
         id="g21614">
        <path
           id="path12957"
           d="m 274.75,1053.3622 c -0.69036,0 -1.25,0.5596 -1.25,1.25 0,0.6904 0.55964,1.25 1.25,1.25 0.69036,0 1.25,-0.5596 1.25,-1.25 0,-0.6904 -0.55964,-1.25 -1.25,-1.25 z m -5.6875,1 c -0.69036,0 -1.25,0.5596 -1.25,1.25 0,0.6904 0.55964,1.25 1.25,1.25 0.69036,0 1.25,-0.5596 1.25,-1.25 0,-0.6904 -0.55964,-1.25 -1.25,-1.25 z m 6.6875,2 c -0.27951,0 -0.73981,0.1009 -1.125,0.375 l -2.4375,1.75 c -0.66135,0.4706 -0.0545,1.2832 0.5625,0.875 l 1.59375,-1.0625 c 0,0 0.43663,0.3561 0.65625,1.0625 l -0.0312,1.8438 -1.625,4.3437 c -0.18821,0.5019 0.16603,0.8175 0.53125,0.8125 0.23949,0 0.47639,-0.1604 0.59375,-0.4375 l 2.03125,-4.5625 c 0,0 0.375,1.9999 1.875,2 0.90139,10e-5 1.625,0 2.125,0 0.5,0 0.5,-0.5 0.5,-0.5 0,0 0,-0.5 -0.5,-0.5 -0.375,0 -1.625,-10e-5 -2,0 0,0 -0.5,0 -0.5,-1 0,-0.7037 -0.78022,-2.4984 -1,-3 l 0,-0.5 2.5,1.375 c 0.6798,0.4533 1.28427,-0.3492 0.625,-0.8437 l -2.625,-1.5313 c -0.51696,-0.2904 -1.08223,-0.5 -1.75,-0.5 z m -7.125,1 c -0.375,0 -0.55236,0.1774 -0.75,0.375 l -1.59375,1.5938 c -0.2052,0.2052 -0.28125,0.3888 -0.28125,0.6562 0,0.375 0.55763,0.5673 0.875,0.25 l 1.375,-1.375 c 0.3148,0 0.75,0.039 0.75,0.5 l 0,2.125 -1.125,3 c -0.3116,0.8309 0.8582,1.0865 1.125,0.375 l 1.125,-3 c 0,0 0.375,0.5 1.125,0.5 l 2.1875,0 c 0.75,0 0.75,-1 0,-1 l -1.9375,0 c 0,0 -0.5,0 -0.5,-0.5 l 0,-0.75 c 0,-1.5 -0.5,-2.75 -1.25,-2.75 l -1.125,0 z"
           style="opacity:0.3;color:#000000;fill:none;stroke:#ffffff;stroke-width:2;stroke-linecap:round;stroke-linejoin:round;stroke-miterlimit:4;stroke-opacity:1;stroke-dasharray:none;stroke-dashoffset:0;marker:none;visibility:visible;display:inline;overflow:visible;enable-background:accumulate"
           inkscape:connector-curvature="0" />
        <path
           style="color:#000000;fill:#444444;fill-opacity:1;fill-rule:nonzero;stroke:none;stroke-width:2;marker:none;visibility:visible;display:inline;overflow:visible;enable-background:accumulate"
           d="m 274.75,1053.3622 c -0.69036,0 -1.25,0.5596 -1.25,1.25 0,0.6904 0.55964,1.25 1.25,1.25 0.69036,0 1.25,-0.5596 1.25,-1.25 0,-0.6904 -0.55964,-1.25 -1.25,-1.25 z m -5.6875,1 c -0.69036,0 -1.25,0.5596 -1.25,1.25 0,0.6904 0.55964,1.25 1.25,1.25 0.69036,0 1.25,-0.5596 1.25,-1.25 0,-0.6904 -0.55964,-1.25 -1.25,-1.25 z m 6.6875,2 c -0.27951,0 -0.73981,0.1009 -1.125,0.375 l -2.4375,1.75 c -0.66135,0.4706 -0.0545,1.2832 0.5625,0.875 l 1.59375,-1.0625 c 0,0 0.43663,0.3561 0.65625,1.0625 l -0.0312,1.8438 -1.625,4.3437 c -0.18821,0.5019 0.16603,0.8175 0.53125,0.8125 0.23949,0 0.47639,-0.1604 0.59375,-0.4375 l 2.03125,-4.5625 c 0,0 0.375,1.9999 1.875,2 0.90139,10e-5 1.625,0 2.125,0 0.5,0 0.5,-0.5 0.5,-0.5 0,0 0,-0.5 -0.5,-0.5 -0.375,0 -1.625,-10e-5 -2,0 0,0 -0.5,0 -0.5,-1 0,-0.7037 -0.78022,-2.4984 -1,-3 l 0,-0.5 2.5,1.375 c 0.6798,0.4533 1.28427,-0.3492 0.625,-0.8437 l -2.625,-1.5313 c -0.51696,-0.2904 -1.08223,-0.5 -1.75,-0.5 z m -7.125,1 c -0.375,0 -0.55236,0.1774 -0.75,0.375 l -1.59375,1.5938 c -0.2052,0.2052 -0.28125,0.3888 -0.28125,0.6562 0,0.375 0.55763,0.5673 0.875,0.25 l 1.375,-1.375 c 0.3148,0 0.75,0.039 0.75,0.5 l 0,2.125 -1.125,3 c -0.3116,0.8309 0.8582,1.0865 1.125,0.375 l 1.125,-3 c 0,0 0.375,0.5 1.125,0.5 l 2.1875,0 c 0.75,0 0.75,-1 0,-1 l -1.9375,0 c 0,0 -0.5,0 -0.5,-0.5 l 0,-0.75 c 0,-1.5 -0.5,-2.75 -1.25,-2.75 l -1.125,0 z"
           id="path17507"
           inkscape:connector-curvature="0" />
      </g>
      <rect
         y="1050.3622"
         x="263.99997"
         height="18.000031"
         width="18.000017"
         id="rect22284-1"
         style="opacity:0.5;color:#000000;fill:none;stroke:none;stroke-width:2;marker:none;visibility:visible;display:inline;overflow:visible;enable-background:accumulate" />
    </g>
    <g
       style="display:inline"
       id="university-18"
       inkscape:label="university-18"
       transform="translate(-264,-82.000001)"
       inkscape:export-xdpi="89.996864"
       inkscape:export-ydpi="89.996864">
      <g
         transform="translate(-1,0)"
         id="g21624">
        <path
           sodipodi:nodetypes="ccccccccccccsccccccc"
           inkscape:connector-curvature="0"
           id="path13130"
           d="m 274.5,1078.3622 -6.5,3.5 6.5,3.5 4.5,-2.3437 0,3.5625 c 0,1.7812 1.5,1.5312 1.5,1.5312 l 0,-0.75 c 0,0 -0.78125,0 -0.78125,-0.7812 l 0,-3.9688 1.28125,-0.75 z m -3.5,6.5 0,1.4375 c 0,0.3588 0.51257,0.8187 1,1.0625 l 2.5,1 2.5,-1 c 0.48743,-0.2438 1,-0.7037 1,-1.0625 l 0,-1.4375 -3.5,1.5 z"
           style="opacity:0.3;color:#000000;fill:none;stroke:#ffffff;stroke-width:2;stroke-linecap:round;stroke-linejoin:round;stroke-miterlimit:4;stroke-opacity:1;stroke-dasharray:none;stroke-dashoffset:0;marker:none;visibility:visible;display:inline;overflow:visible;enable-background:accumulate" />
        <path
           style="color:#000000;fill:#444444;fill-opacity:1;stroke:none;stroke-width:2;marker:none;visibility:visible;display:inline;overflow:visible;enable-background:accumulate"
           d="m 274.5,1078.3622 -6.5,3.5 6.5,3.5 4.5,-2.3437 0,3.5625 c 0,1.7812 1.5,1.5312 1.5,1.5312 l 0,-0.75 c 0,0 -0.78125,0 -0.78125,-0.7812 l 0,-3.9688 1.28125,-0.75 z m -3.5,6.5 0,1.4375 c 0,0.3588 0.51257,0.8187 1,1.0625 l 2.5,1 2.5,-1 c 0.48743,-0.2438 1,-0.7037 1,-1.0625 l 0,-1.4375 -3.5,1.5 z"
           id="path7442-0"
           inkscape:connector-curvature="0"
           sodipodi:nodetypes="cccccccccccccccccccc" />
      </g>
      <rect
         y="1074.3622"
         x="263.99997"
         height="18.000031"
         width="18.000017"
         id="rect22290-3"
         style="opacity:0.5;color:#000000;fill:none;stroke:none;stroke-width:2;marker:none;visibility:visible;display:inline;overflow:visible;enable-background:accumulate" />
    </g>
    <g
       style="display:inline"
       id="school-12"
       inkscape:label="school-12"
       transform="translate(-264,-70)"
       inkscape:export-xdpi="89.996864"
       inkscape:export-ydpi="89.996864">
      <g
         id="g21610">
        <path
           sodipodi:nodetypes="ssssssssssccccccccccccccsccccccscssccccsscccccss"
           inkscape:connector-curvature="0"
           id="path10199"
           d="m 289,1051.8622 c -0.55228,0 -1,0.4477 -1,1 0,0.5523 0.44772,1 1,1 0.55228,0 1,-0.4477 1,-1 0,-0.5523 -0.44772,-1 -1,-1 z m -4,1 c -0.55228,0 -1,0.4477 -1,1 0,0.5523 0.44772,1 1,1 0.55228,0 1,-0.4477 1,-1 0,-0.5523 -0.44772,-1 -1,-1 z m 4.5,1.5 -0.5,0 -2,1 0,1 2,-1 0,1 0,1.5625 -1,3.4375 1,0 1,-3.5 c 0,0 0.25,1.4999 1.25,1.5 0.60093,10e-5 1.41667,0 1.75,0 l 0,-0.75 c -0.25,0 -1.25,-10e-5 -1.5,0 -0.53359,2e-4 -0.5,-0.8012 -0.5,-1.25 0,-0.7501 -0.5,-2 -0.5,-2 l 1.5,0.9375 c 0.4532,0.3021 0.84576,-0.2329 0.40625,-0.5625 l -1.65625,-1.125 c -0.30176,-0.2149 -0.39841,-0.2499 -0.75,-0.25 z m -4.75,1 c -0.25,0 -0.36824,0.1183 -0.5,0.25 l -1.0625,1.0625 c -0.1368,0.1368 -0.1875,0.2593 -0.1875,0.4375 0,0.25 0.38216,0.3678 0.59375,0.1563 l 0.90625,-0.9063 0.5,0 0,1 -1,2.75 c -0.20218,0.556 0.57214,0.7243 0.75,0.25 l 0.50463,-1.3 2.74537,0 0,-0.7 -1.5,0 0,-2 c 0,-0.5 -0.5,-1 -1,-1 z"
           style="opacity:0.3;color:#000000;fill:none;stroke:#ffffff;stroke-width:2;stroke-linecap:round;stroke-linejoin:round;stroke-miterlimit:4;stroke-opacity:1;stroke-dasharray:none;stroke-dashoffset:0;marker:none;visibility:visible;display:inline;overflow:visible;enable-background:accumulate" />
        <path
           style="color:#000000;fill:#444444;fill-opacity:1;fill-rule:nonzero;stroke:none;stroke-width:2;marker:none;visibility:visible;display:inline;overflow:visible;enable-background:accumulate"
           d="m 289,1051.8622 c -0.55228,0 -1,0.4477 -1,1 0,0.5523 0.44772,1 1,1 0.55228,0 1,-0.4477 1,-1 0,-0.5523 -0.44772,-1 -1,-1 z m -4,1 c -0.55228,0 -1,0.4477 -1,1 0,0.5523 0.44772,1 1,1 0.55228,0 1,-0.4477 1,-1 0,-0.5523 -0.44772,-1 -1,-1 z m 4.5,1.5 -0.5,0 -2,1 0,1 2,-1 0,1 0,1.5625 -1,3.4375 1,0 1,-3.5 c 0,0 0.25,1.4999 1.25,1.5 0.60093,10e-5 1.41667,0 1.75,0 l 0,-0.75 c -0.25,0 -1.25,-10e-5 -1.5,0 -0.53359,2e-4 -0.5,-0.8012 -0.5,-1.25 0,-0.7501 -0.5,-2 -0.5,-2 l 1.5,0.9375 c 0.4532,0.3021 0.84576,-0.2329 0.40625,-0.5625 l -1.65625,-1.125 c -0.30176,-0.2149 -0.39841,-0.2499 -0.75,-0.25 z m -4.75,1 c -0.25,0 -0.36824,0.1183 -0.5,0.25 l -1.0625,1.0625 c -0.1368,0.1368 -0.1875,0.2593 -0.1875,0.4375 0,0.25 0.38216,0.3678 0.59375,0.1563 l 0.90625,-0.9063 0.5,0 0,1 -1,2.75 c -0.20218,0.556 0.57214,0.7243 0.75,0.25 l 0.50463,-1.3 2.74537,0 0,-0.7 -1.5,0 0,-2 c 0,-0.5 -0.5,-1 -1,-1 z"
           id="path17501"
           inkscape:connector-curvature="0"
           sodipodi:nodetypes="ssssssssssccccccccccccccsccccccscssccccsscccccss" />
      </g>
      <rect
         style="opacity:0.5;color:#000000;fill:none;stroke:none;stroke-width:2;marker:none;visibility:visible;display:inline;overflow:visible;enable-background:accumulate"
         id="rect22286-0"
         width="11.999998"
         height="12.000007"
         x="282"
         y="1050.3622" />
    </g>
    <g
       style="display:inline"
       id="university-12"
       inkscape:label="university-12"
       transform="translate(-264,-76.000001)"
       inkscape:export-xdpi="89.996864"
       inkscape:export-ydpi="89.996864">
      <g
         transform="translate(-1,-1)"
         id="g21628">
        <path
           sodipodi:nodetypes="ccccccccccccsccc"
           inkscape:connector-curvature="0"
           id="path5396"
           d="m 289.5,1077.3622 -4.5,2.5 4.5,2.5 2.5,-1.5 0,1.25 -2.5,1.25 -2.5,-1.25 0,1.25 2.5,1.5 2.5,-1.5 c 0,0.5 1,0.5 1,0.5 l 0,-0.5 c 0,0 -0.5,-0.029 -0.5,-0.5 l 0,-2 1.5,-1 z"
           style="opacity:0.3;color:#000000;fill:none;stroke:#ffffff;stroke-width:2;stroke-linecap:round;stroke-linejoin:round;stroke-miterlimit:4;stroke-opacity:1;stroke-dasharray:none;stroke-dashoffset:0;marker:none;visibility:visible;display:inline;overflow:visible;enable-background:accumulate" />
        <path
           style="color:#000000;fill:#444444;fill-opacity:1;stroke:none;stroke-width:2;marker:none;visibility:visible;display:inline;overflow:visible;enable-background:accumulate"
           d="m 289.5,1077.3622 -4.5,2.5 4.5,2.5 2.5,-1.5 0,1.25 -2.5,1.25 -2.5,-1.25 0,1.25 2.5,1.5 2.5,-1.5 c 0,0.5 1,0.5 1,0.5 l 0,-0.5 c 0,0 -0.5,-0.029 -0.5,-0.5 l 0,-2 1.5,-1 z"
           id="path7442-3"
           inkscape:connector-curvature="0"
           sodipodi:nodetypes="ccccccccccccsccc" />
      </g>
      <rect
         style="opacity:0.5;color:#000000;fill:none;stroke:none;stroke-width:2;marker:none;visibility:visible;display:inline;overflow:visible;enable-background:accumulate"
         id="rect22292-2"
         width="11.999998"
         height="12.000007"
         x="282"
         y="1074.3622" />
    </g>
    <g
       style="display:inline"
       id="cinema-18"
       inkscape:label="cinema-18"
       transform="translate(-264,-160)"
       inkscape:export-xdpi="89.996864"
       inkscape:export-ydpi="89.996864">
      <g
         id="g23200">
        <path
           inkscape:connector-curvature="0"
           style="opacity:0.3;color:#000000;fill:#ffffff;fill-opacity:1;fill-rule:nonzero;stroke:#ffffff;stroke-width:2;stroke-linecap:round;stroke-linejoin:round;stroke-miterlimit:4;stroke-opacity:1;stroke-dasharray:none;stroke-dashoffset:0;marker:none;visibility:visible;display:inline;overflow:visible;enable-background:accumulate"
           d="m 278.23529,1172.0111 -1.72059,0.5018 0.8364,2.2703 1.6489,-0.478 z m -2.77206,0.7886 -2.24632,0.6452 0.86029,2.2702 2.24633,-0.6452 z m -3.2739,0.932 -1.98345,0.5735 0.86029,2.2702 1.98346,-0.5735 z m -3.01102,0.8603 -2.17831,0.7702 1,2 2.0147,-0.5 z m -1.17831,2.7702 0,7 c 0,0.5 0.5,1 1,1 l 10,0 c 0.5,0 1,-0.5 1,-1 l 0,-7 z m 2,2 8,0 0,2 -8,0 z"
           id="path14712"
           sodipodi:nodetypes="cccccccccccccccccccccssssccccccc" />
        <path
           sodipodi:nodetypes="cccccccccccccccccccccssssccccccc"
           id="rect7568-8-4-7"
           d="m 278.23529,1172.0111 -1.72059,0.5018 0.8364,2.2703 1.6489,-0.478 z m -2.77206,0.7886 -2.24632,0.6452 0.86029,2.2702 2.24633,-0.6452 z m -3.2739,0.932 -1.98345,0.5735 0.86029,2.2702 1.98346,-0.5735 z m -3.01102,0.8603 -2.17831,0.7702 1,2 2.0147,-0.5 z m -1.17831,2.7702 0,7 c 0,0.5 0.5,1 1,1 l 10,0 c 0.5,0 1,-0.5 1,-1 l 0,-7 z m 2,2 8,0 0,2 -8,0 z"
           style="color:#000000;fill:#444444;fill-opacity:1;fill-rule:nonzero;stroke:none;stroke-width:2;marker:none;visibility:visible;display:inline;overflow:visible;enable-background:accumulate"
           inkscape:connector-curvature="0" />
      </g>
      <rect
         y="1170.3622"
         x="263.99997"
         height="18.000031"
         width="18.000017"
         id="rect22290-1"
         style="opacity:0.5;color:#000000;fill:none;stroke:none;stroke-width:2;marker:none;visibility:visible;display:inline;overflow:visible;enable-background:accumulate" />
    </g>
    <g
       style="display:inline"
       id="cafe-18"
       inkscape:label="cafe-18"
       transform="translate(-342,-118)"
       inkscape:export-xdpi="89.996864"
       inkscape:export-ydpi="89.996864">
      <g
         id="g21594">
        <path
           sodipodi:nodetypes="sssssscsccsccscssscccsscccccccc"
           inkscape:connector-curvature="0"
           id="path14891"
           d="m 347,1077.3622 c -0.5,0 -1,0.5 -1,1 l 0,6 c 0,0.5 0.5,1 1,1 l 7,0 c 0.40011,0 1,-0.5 1,-1 l 0,-0.4444 0.36111,0 c 0.36111,0 0.36111,-0.3611 0.36111,-0.3611 l 0,-0.3611 0.44445,0 c 0.72222,0 1.83333,-0.3334 1.83333,-1.4444 l 0,-1.889 c 0,-0.5 -0.25,-1 -0.75,-1 l -2.25,0 0,-0.5 c 0,-0.5 -0.5,-1 -1,-1 z m 8,2.2223 1.88889,0 c 0.36111,0 0.36111,0.2777 0.36111,0.2777 l 0,1.889 c 0,0.572 -0.72225,0.6064 -1.08333,0.611 l -0.44445,0 -0.72222,0 z m -10,6.7777 2,2 7,0 2,-2 z"
           style="opacity:0.3;color:#000000;fill:#ffffff;fill-opacity:1;fill-rule:nonzero;stroke:#ffffff;stroke-width:2;stroke-linecap:butt;stroke-linejoin:round;stroke-miterlimit:4;stroke-opacity:1;stroke-dasharray:none;stroke-dashoffset:0;marker:none;visibility:visible;display:inline;overflow:visible;enable-background:accumulate" />
        <path
           style="color:#000000;fill:#444444;fill-opacity:1;fill-rule:nonzero;stroke:none;stroke-width:2;marker:none;visibility:visible;display:inline;overflow:visible;enable-background:accumulate"
           d="m 347,1077.3622 c -0.5,0 -1,0.5 -1,1 l 0,6 c 0,0.5 0.5,1 1,1 l 7,0 c 0.40011,0 1,-0.5 1,-1 l 0,-0.4444 0.36111,0 c 0.36111,0 0.36111,-0.3611 0.36111,-0.3611 l 0,-0.3611 0.44445,0 c 0.72222,0 1.83333,-0.3334 1.83333,-1.4444 l 0,-1.889 c 0,-0.5 -0.25,-1 -0.75,-1 l -2.25,0 0,-0.5 c 0,-0.5 -0.5,-1 -1,-1 z m 8,2.2223 1.88889,0 c 0.36111,0 0.36111,0.2777 0.36111,0.2777 l 0,1.889 c 0,0.572 -0.72225,0.6064 -1.08333,0.611 l -0.44445,0 -0.72222,0 z m -10,6.7777 2,2 7,0 2,-2 z"
           id="rect9826-2-1-5-9"
           inkscape:connector-curvature="0"
           sodipodi:nodetypes="ccccccccccccccccccccccccccccccc" />
      </g>
      <rect
         y="1074.3622"
         x="341.99997"
         height="18.000031"
         width="18.000017"
         id="rect22290-8"
         style="opacity:0.5;color:#000000;fill:none;stroke:none;stroke-width:2;marker:none;visibility:visible;display:inline;overflow:visible;enable-background:accumulate" />
    </g>
    <g
       style="display:inline"
       id="police-18"
       inkscape:label="police-18"
       transform="translate(-420,-184)"
       inkscape:export-xdpi="89.996864"
       inkscape:export-ydpi="89.996864">
      <g
         transform="translate(-2,0)"
         id="g21530">
        <path
           sodipodi:nodetypes="ccccccccsssccsccccscccsc"
           inkscape:connector-curvature="0"
           id="path15835"
           d="m 430,1124.8622 -1,0.5 0,1 5,0 0,-1 -1,-0.5 z m -1,2.5 c -0.0333,0.1627 0,0.3274 0,0.5 0,1.3807 1.11931,2.5 2.5,2.5 1.38069,0 2.5,-1.1193 2.5,-2.5 0,-0.1726 0,-0.5 0,-0.5 z m 0,4 c -1.08333,0 -1.98585,1.7917 -2,2.875 l 0,4.125 1.53125,0 4.46875,-7 z m 5.5,0 -4.46875,7 5.96875,0 0,-4.125 c 0,-1.0834 -0.41666,-2.875 -1.5,-2.875 z"
           style="opacity:0.3;color:#000000;fill:#ffffff;fill-opacity:1;fill-rule:nonzero;stroke:#ffffff;stroke-width:2;stroke-linecap:round;stroke-linejoin:round;stroke-miterlimit:4;stroke-opacity:1;stroke-dasharray:none;stroke-dashoffset:0;marker:none;visibility:visible;display:inline;overflow:visible;enable-background:accumulate" />
        <path
           style="color:#000000;fill:#444444;fill-opacity:1;stroke:none;stroke-width:2;marker:none;visibility:visible;display:inline;overflow:visible;enable-background:accumulate"
           d="m 430,1124.8622 -1,0.5 0,1 5,0 0,-1 -1,-0.5 z m -1,2.5 c -0.0333,0.1627 0,0.3274 0,0.5 0,1.3807 1.11931,2.5 2.5,2.5 1.38069,0 2.5,-1.1193 2.5,-2.5 0,-0.1726 0,-0.5 0,-0.5 z m 0,4 c -1.08333,0 -1.98585,1.7917 -2,2.875 l 0,4.125 1.53125,0 4.46875,-7 z m 5.5,0 -4.46875,7 5.96875,0 0,-4.125 c 0,-1.0834 -0.41666,-2.875 -1.5,-2.875 z"
           id="rect7805-5-4"
           inkscape:connector-curvature="0"
           sodipodi:nodetypes="ccccccccsssccsccccscccsc" />
      </g>
      <rect
         style="opacity:0.5;color:#000000;fill:none;stroke:none;stroke-width:2;marker:none;visibility:visible;display:inline;overflow:visible;enable-background:accumulate"
         id="rect22302-3"
         width="18.000017"
         height="18.000031"
         x="419.99997"
         y="1122.3622" />
    </g>
    <g
       style="display:inline"
       id="police-12"
       inkscape:label="police-12"
       transform="translate(-420,-178)"
       inkscape:export-xdpi="89.996864"
       inkscape:export-ydpi="89.996864">
      <g
         transform="translate(-1,0)"
         id="g21526">
        <path
           inkscape:connector-curvature="0"
           id="rect7805-5-1"
           d="m 444,1124.3622 3,0 0,-1 -3,0 z m 0,0.75 c 0,0.9665 0.53351,1.75 1.5,1.75 0.96649,0 1.5,-0.7835 1.5,-1.75 l 0,-0.25 -3,0 z m -1,2.25 c -0.5,0 -1,1.5 -1,2 l 0,3 1.59375,0 3.40625,-5 z m 5,0 -3.40625,5 4.40625,0 0,-3 c 0,-0.5 -0.5,-2 -1,-2 z"
           style="opacity:0.3;color:#000000;fill:#ffffff;fill-opacity:1;fill-rule:nonzero;stroke:#ffffff;stroke-width:2;stroke-linecap:round;stroke-linejoin:round;stroke-miterlimit:4;stroke-opacity:1;stroke-dasharray:none;stroke-dashoffset:0;marker:none;visibility:visible;display:inline;overflow:visible;enable-background:accumulate"
           sodipodi:nodetypes="ccccccsccccsscccscccsc" />
        <path
           sodipodi:nodetypes="ccccccsccccsscccscccsc"
           style="color:#000000;fill:#444444;fill-opacity:1;stroke:none;stroke-width:2;marker:none;visibility:visible;display:inline;overflow:visible;enable-background:accumulate"
           d="m 444,1124.3622 3,0 0,-1 -3,0 z m 0,0.75 c 0,0.9665 0.53351,1.75 1.5,1.75 0.96649,0 1.5,-0.7835 1.5,-1.75 l 0,-0.25 -3,0 z m -1,2.25 c -0.5,0 -1,1.5 -1,2 l 0,3 1.59375,0 3.40625,-5 z m 5,0 -3.40625,5 4.40625,0 0,-3 c 0,-0.5 -0.5,-2 -1,-2 z"
           id="path5442"
           inkscape:connector-curvature="0" />
      </g>
      <rect
         y="1122.3622"
         x="438"
         height="12.000007"
         width="11.999998"
         id="rect22304-3"
         style="opacity:0.5;color:#000000;fill:none;stroke:none;stroke-width:2;marker:none;visibility:visible;display:inline;overflow:visible;enable-background:accumulate" />
    </g>
    <g
       transform="translate(-342,-370)"
       style="display:inline"
       id="toilets-18"
       inkscape:label="#g7738">
      <path
         sodipodi:nodetypes="sssssssssscccccccccccccccccccccccc"
         inkscape:connector-curvature="0"
         id="path7719"
         d="m 348.00001,1291.3622 c -1.10457,0 -2,0.8954 -2,2 0,1.1046 0.89543,2 2,2 1.10457,0 2,-0.8954 2,-2 0,-1.1046 -0.89543,-2 -2,-2 z m 6.99999,0 c -1.10457,0 -2,0.8954 -2,2 0,1.1046 0.89543,2 2,2 1.10457,0 2,-0.8954 2,-2 0,-1.1046 -0.89543,-2 -2,-2 z m -7.49999,5 -1.5,1.5 0,2.5 -1.5,2.5 0.5,0.5 2,0 0,3 2,0 0,-3 2,0 0.5,-0.5 -1.5,-2.5 0,-2.5 -1.5,-1.5 z m 5.49999,0 -0.99999,1 1.99999,4.5 0,4.5 2,0 0,-4.5 2.00001,-4.5 -1.00001,-1 z"
         style="opacity:0.3;color:#000000;fill:none;stroke:#ffffff;stroke-width:2;stroke-linecap:round;stroke-linejoin:round;stroke-miterlimit:4;stroke-opacity:1;stroke-dasharray:none;stroke-dashoffset:0;marker:none;visibility:visible;display:inline;overflow:visible;enable-background:accumulate" />
      <path
         style="color:#000000;fill:#444444;fill-opacity:1;fill-rule:nonzero;stroke:none;stroke-width:2;marker:none;visibility:visible;display:inline;overflow:visible;enable-background:accumulate"
         d="m 348.00001,1291.3622 c -1.10457,0 -2,0.8954 -2,2 0,1.1046 0.89543,2 2,2 1.10457,0 2,-0.8954 2,-2 0,-1.1046 -0.89543,-2 -2,-2 z m 6.99999,0 c -1.10457,0 -2,0.8954 -2,2 0,1.1046 0.89543,2 2,2 1.10457,0 2,-0.8954 2,-2 0,-1.1046 -0.89543,-2 -2,-2 z m -7.49999,5 -1.5,1.5 0,2.5 -1.5,2.5 0.5,0.5 2,0 0,3 2,0 0,-3 2,0 0.5,-0.5 -1.5,-2.5 0,-2.5 -1.5,-1.5 z m 5.49999,0 -0.99999,1 1.99999,4.5 0,4.5 2,0 0,-4.5 2.00001,-4.5 -1.00001,-1 z"
         id="path7660"
         inkscape:connector-curvature="0"
         sodipodi:nodetypes="sssssssssscccccccccccccccccccccccc" />
      <rect
         y="1290.3622"
         x="342"
         height="18.000013"
         width="18"
         id="rect7662"
         style="opacity:0.5;color:#000000;fill:none;stroke:none;stroke-width:2;marker:none;visibility:visible;display:inline;overflow:visible;enable-background:accumulate" />
    </g>
  </g>
</svg>
