<!-- Created with Inkscape (http://www.inkscape.org/) -->
<svg id="svg5369" width="18" height="18" version="1.1" xmlns="http://www.w3.org/2000/svg">
 <g id="layer1" transform="translate(-36 -902.36)">
  <g id="airfield-18" transform="translate(-72 -388)">
   <g id="g12538" transform="translate(0,1)">
    <path id="path15781" d="m113.32 1292.4c-0.21182 0-0.38235 0.1705-0.38235 0.3824 0 0.2118 0.17053 0.3823 0.38235 0.3823h3.0588l-0.38235 2.2353v0.9411l-5 1.5294v1.5295h5v3.4118l-2 0.8235v0.7647h7v-0.7647l-2-0.8235v-3.4118h5v-1.5295l-5-1.5294v-0.9411l-0.38235-2.2353h3.0588c0.21182 0 0.38235-0.1705 0.38235-0.3823 0-0.2119-0.17053-0.3824-0.38235-0.3824z" color="#000000" fill="#fff" opacity=".3" stroke="#fff" stroke-linejoin="round" stroke-width="2"/>
    <path id="path6220" d="m113.32 1292.4c-0.21182 0-0.38235 0.1705-0.38235 0.3824 0 0.2118 0.17053 0.3823 0.38235 0.3823h3.0588l-0.38235 2.2353v0.9411l-5 1.5294v1.5295h5v3.4118l-2 0.8235v0.7647h7v-0.7647l-2-0.8235v-3.4118h5v-1.5295l-5-1.5294v-0.9411l-0.38235-2.2353h3.0588c0.21182 0 0.38235-0.1705 0.38235-0.3823 0-0.2119-0.17053-0.3824-0.38235-0.3824z" fill="#747474"/>
   </g>
   <rect id="rect22190-58-4" x="108" y="1290.4" width="18" height="18" color="#000000" fill="none" opacity=".5"/>
  </g>
 </g>
</svg>
