<svg id="svg6" width="18" height="18" version="1.1" xmlns="http://www.w3.org/2000/svg">
 <path id="path2" d="m1 3v12h16v-12zm3 2h2v1c0.30464 0.3836 0.83184 0.6848 1 1.125v0.875c-0.38366-0.3046-0.68481-0.8319-1.125-1h-1.875l3 3v1c-0.30464 0.3836-0.83184 0.6848-1 1.125v0.875h-2v-1c-0.30464-0.3836-0.83184-0.6848-1-1.125v-0.875c0.38366 0.3046 0.68481 0.8319 1.125 1h1.875l-3-3v-1c0.30464-0.3836 0.83184-0.6848 1-1.125zm6 0h5v2h-5zm0 3h1v1h-1zm2 0h1v1h-1zm2 0h1v1h-1zm-4 2h1v1h-1zm2 0h1v1h-1zm2 0h1v1h-1zm-4 2h1v1h-1zm2 0h1v1h-1zm2 0h1v1h-1z" fill="none" opacity=".3" stroke="#fff" stroke-linejoin="round" stroke-width="2"/>
 <path id="path4" d="m1 3v12h16v-12zm3 2h2v1c0.30464 0.3836 0.83184 0.6848 1 1.125v0.875c-0.38366-0.3046-0.68481-0.8319-1.125-1h-1.875v0.99998l2 1 1 1v1c-0.30464 0.3836-0.83184 0.6848-1 1.125v0.875h-2v-1c-0.30464-0.3836-0.83184-0.6848-1-1.125v-0.875c0.38366 0.3046 0.68481 0.8319 1.125 1h1.875v-1l-2-1-1-0.99998v-1c0.30464-0.3836 0.83184-0.6848 1-1.125zm6 0h5v2h-5zm0 3h1v1h-1zm2 0h1v1h-1zm2 0h1v1h-1zm-4 2h1v1h-1zm2 0h1v1h-1zm2 0h1v1h-1zm-4 2h1v1h-1zm2 0h1v1h-1zm2 0h1v1h-1z" fill="#747474"/>
</svg>
