<!-- Created with Inkscape (http://www.inkscape.org/) -->
<svg id="svg5369" width="18" height="18" version="1.1" xmlns="http://www.w3.org/2000/svg">
 <g id="layer1" transform="translate(-36 -1010.4)">
  <g id="bank-18">
   <g id="g8592" transform="translate(-307,-162)" fill="#fff" opacity=".3" stroke="#fff" stroke-linejoin="round" stroke-width="2">
    <path id="path8594" d="m346 1176.4c-0.40011 0-1 0.5998-1 1v7c0 0.4001 0.59989 1 1 1h12c0.40011 0 1-0.5999 1-1v-7c0-0.4002-0.59989-1-1-1zm0 2h12v2h-12zm0 4h3v2h-3zm7 1h5v1h-5z" color="#000000" fill="#fff" stroke="#fff" stroke-linejoin="round" stroke-width="2"/>
   </g>
   <g id="g21558" transform="translate(-307,-162)">
    <path id="rect10401-9" d="m346 1176.4c-0.40011 0-1 0.5998-1 1v7c0 0.4001 0.59989 1 1 1h12c0.40011 0 1-0.5999 1-1v-7c0-0.4002-0.59989-1-1-1zm0 2h12v2h-12zm0 4h3v2h-3zm7 1h5v1h-5z" color="#000000" fill="#747474"/>
   </g>
   <rect id="rect22423" x="36" y="1010.4" width="18" height="18" color="#000000" fill="none" opacity=".5"/>
  </g>
 </g>
</svg>
