<!-- Created with Inkscape (http://www.inkscape.org/) -->
<svg id="svg5369" width="18" height="18" version="1.1" xmlns="http://www.w3.org/2000/svg">
 <g id="layer1" transform="translate(-36 -992.36)">
  <g id="bar-18" transform="translate(-306,-154)">
   <g id="g21570">
    <path id="path15230" d="m346 1149.4c-0.40625 0-1 0.047-1 0.25 0 0.2036 0.37228 0.5858 0.5 0.75l5.5 6v4l-2.8125 1.1875c-0.40625 0.1354-0.6875 0.3125-0.6875 0.8125h8c0-0.5-0.40625-0.6771-0.8125-0.8125l-2.6875-1.1875v-4l5.5-6c0.12772-0.1642 0.5-0.5464 0.5-0.75 0-0.2026-0.59375-0.25-1-0.25z" color="#000000" fill="none" opacity=".3" stroke="#fff" stroke-linecap="round" stroke-linejoin="round" stroke-width="2"/>
    <path id="path15601-4-0" d="m346 1149.4c-0.40625 0-1 0.047-1 0.25 0 0.2036 0.37228 0.5858 0.5 0.75l5.5 6v4l-2.8125 1.1875c-0.40625 0.1354-0.6875 0.3125-0.6875 0.8125h8c0-0.5-0.40625-0.6771-0.8125-0.8125l-2.6875-1.1875v-4l5.5-6c0.12772-0.1642 0.5-0.5464 0.5-0.75 0-0.2026-0.59375-0.25-1-0.25z" color="#000000" fill="#747474"/>
   </g>
   <rect id="rect22417" x="342" y="1146.4" width="18" height="18" color="#000000" fill="none" opacity=".5"/>
  </g>
 </g>
</svg>
