<svg id="svg6" width="18" height="18" version="1.1" xmlns="http://www.w3.org/2000/svg">
 <g id="beach_resort-18" transform="translate(-102 -902.36)">
  <rect id="rect5912" transform="translate(0 1028.4)" x="102" y="-126" width="18" height="18" fill="none" opacity=".3"/>
  <path id="path5944" transform="translate(0 1028.4)" d="m117.75-124.94-1.5938 1.5938s-0.28405 0.26983-0.5625 0.6875-0.59375 0.98958-0.59375 1.6562v4h-3l2 8h3l2-8h-3v-4c0-0.33333 0.1847-0.76142 0.40625-1.0938s0.4375-0.5625 0.4375-0.5625l1.5938-1.5938zm-4.75 8.9375h2v2h-1.5zm3 0h2l-0.40625 2h-1.5938zm-9.5938-6.2812-0.8125 0.5625 0.1875 0.25-2.7812 6.4688 4.9688-3.1562 2.0312 2.6562v6.5h1v-7l-2.1875-2.6875 5.1875-3.3125h-7.4062z" fill="none" opacity=".3" stroke="#fff" stroke-linejoin="round" stroke-width="2"/>
  <path id="path5916" transform="translate(0 1028.4)" d="m117.75-124.94-1.5938 1.5938s-0.28405 0.26983-0.5625 0.6875-0.59375 0.98958-0.59375 1.6562v4h-3l2 8h3l2-8h-3v-4c0-0.33333 0.1847-0.76142 0.40625-1.0938s0.4375-0.5625 0.4375-0.5625l1.5938-1.5938zm-4.75 8.9375h2v2h-1.5zm3 0h2l-0.40625 2h-1.5938zm-9.5938-6.2812-0.8125 0.5625 0.1875 0.25-2.7812 6.4688 4.9688-3.1562 2.0312 2.6562v6.5h1v-7l-2.1875-2.6875 5.1875-3.3125h-7.4062z" fill="#747474"/>
  <rect id="rect5946" transform="translate(0 1028.4)" x="102" y="-126" width="18" height="18" fill="none" opacity=".3"/>
 </g>
</svg>
