<svg id="svg2" width="18" height="18" version="1.1" xmlns="http://www.w3.org/2000/svg">
 <g id="bench-18" transform="translate(-36 -794.36)">
  <g id="g9165" transform="translate(0,-2)" fill="none" opacity=".3" stroke="#fff" stroke-linejoin="round" stroke-width="2">
   <path id="path9167" transform="translate(0 1030.4)" d="m40-230v1h-3v4h3v1.0312h-3v1.9688h3v2h1v-2h8v2h1v-2h3v-1.9688h-3v-1.0312h3v-4h-3v-1h-1v1h-8v-1zm1 5h8v1.0312h-8z" color="#000000" fill="none" stroke="#fff" stroke-linejoin="round" stroke-width="2" style="text-decoration-line:none;text-indent:0;text-transform:none"/>
  </g>
  <g id="g9145" transform="translate(0,-2)" fill="#4d4d4d">
   <path id="path5375" transform="translate(0 1030.4)" d="m40-230v1h-3v4h3v1.0312h-3v1.9688h3v2h1v-2h8v2h1v-2h3v-1.9688h-3v-1.0312h3v-4h-3v-1h-1v1h-8v-1zm1 5h8v1.0312h-8z" color="#000000" fill="#747474" style="text-decoration-line:none;text-indent:0;text-transform:none"/>
  </g>
  <rect id="rect9169" transform="translate(0 1028.4)" x="36" y="-234" width="18" height="18" ry=".029565" fill="none" opacity=".3"/>
 </g>
</svg>
