<!-- Created with Inkscape (http://www.inkscape.org/) -->
<svg id="svg5369" width="18" height="18" version="1.1" xmlns="http://www.w3.org/2000/svg">
 <g id="layer1" transform="translate(-66 -866.36)">
  <g id="bicycle-18" transform="translate(-42,-520)">
   <path id="path5766" d="m120 1389.4v1l1 0.5v1.5h-5v-1h1v-0.5h-3v0.5h1v1l-1.25 1.5625c-0.16425-0.026-0.32857-0.062-0.5-0.062-1.7949 0-3.25 1.4551-3.25 3.25s1.4551 3.25 3.25 3.25c1.7092 0 3.0888-1.3241 3.2188-3h1.0625c-5e-3 -0.086-0.0312-0.1629-0.0312-0.25 0-1.634 0.92903-3.0387 2.2812-3.75h1.2188v0.5938c-1.4308 0.3404-2.5 1.6212-2.5 3.1562 0 1.7949 1.4551 3.25 3.25 3.25s3.25-1.4551 3.25-3.25c0-1.4067-0.9057-2.6101-2.1562-3.0625l-0.8438-1.6875v-2zm-4.5 4h2.5l-1.75 2.5c-0.27539-0.6511-0.76914-1.2101-1.375-1.5625zm-2.25 2c0.9665 0 1.75 0.7835 1.75 1.75s-0.7835 1.75-1.75 1.75-1.75-0.7835-1.75-1.75 0.7835-1.75 1.75-1.75zm8.5 0c0.9665 0 1.75 0.7835 1.75 1.75s-0.7835 1.75-1.75 1.75-1.75-0.7835-1.75-1.75 0.7835-1.75 1.75-1.75z" color="#000000" fill="#fff" opacity=".3" stroke="#fff" stroke-linejoin="round" stroke-width="2"/>
   <path id="path5430" d="m120 1389.4v1l1 0.5v1.5h-5v-1h1v-0.5h-3v0.5h1v1l-1.25 1.5625c-0.16425-0.026-0.32857-0.062-0.5-0.062-1.7949 0-3.25 1.4551-3.25 3.25s1.4551 3.25 3.25 3.25c1.7092 0 3.0888-1.3241 3.2188-3h1.0625c-5e-3 -0.086-0.0312-0.1629-0.0312-0.25 0-1.634 0.92903-3.0387 2.2812-3.75h1.2188v0.5938c-1.4308 0.3404-2.5 1.6212-2.5 3.1562 0 1.7949 1.4551 3.25 3.25 3.25s3.25-1.4551 3.25-3.25c0-1.4067-0.9057-2.6101-2.1562-3.0625l-0.8438-1.6875v-2zm-4.5 4h2.5l-1.75 2.5c-0.27539-0.6511-0.76914-1.2101-1.375-1.5625zm-2.25 2c0.9665 0 1.75 0.7835 1.75 1.75s-0.7835 1.75-1.75 1.75-1.75-0.7835-1.75-1.75 0.7835-1.75 1.75-1.75zm8.5 0c0.9665 0 1.75 0.7835 1.75 1.75s-0.7835 1.75-1.75 1.75-1.75-0.7835-1.75-1.75 0.7835-1.75 1.75-1.75z" color="#000000" fill="#747474"/>
   <rect id="rect15834-7" x="108" y="1386.4" width="18" height="18" rx="0" ry="0" color="#000000" fill="none" opacity=".3"/>
  </g>
 </g>
</svg>
