<svg width="18" height="18" xmlns="http://www.w3.org/2000/svg">
 <path d="m9 1c-1.5833 0-3.2252 0.39462-4.4688 1.5s-2.0312 2.9-2.0312 5.5h1.0312l2.4688 9h6l2.4688-9h1.0312c0-2.6-0.7877-4.3946-2.0312-5.5s-2.8854-1.5-4.4688-1.5zm0 1c1.4167 0 2.7748 0.35538 3.7812 1.25 0.68588 0.60967 1.2197 1.498 1.5 2.75h-10.562c0.28032-1.252 0.81412-2.1403 1.5-2.75 1.0064-0.89462 2.3646-1.25 3.7812-1.25zm-5 5h10l-0.28125 1h-9.4688l-0.25-1zm2 8h6l-0.28125 1h-5.4375l-0.28125-1z" fill="none" opacity=".3" stroke="#fff" stroke-linejoin="round" stroke-width="2" xmlns:ns0="http://www.w3.org/2000/svg"/>
 <path d="m9 1c-1.5833 0-3.2252 0.39462-4.4688 1.5s-2.0312 2.9-2.0312 5.5h1.0312l2.4688 9h6l2.4688-9h1.0312c0-2.6-0.7877-4.3946-2.0312-5.5s-2.8854-1.5-4.4688-1.5zm0 1c1.4167 0 2.7748 0.35538 3.7812 1.25 0.68588 0.60967 1.2197 1.498 1.5 2.75h-10.562c0.28032-1.252 0.81412-2.1403 1.5-2.75 1.0064-0.89462 2.3646-1.25 3.7812-1.25zm-5 5h10l-0.28125 1h-9.4688l-0.25-1zm2 8h6l-0.28125 1h-5.4375l-0.28125-1z" fill="#747474" xmlns:ns0="http://www.w3.org/2000/svg"/>
</svg>
