<svg id="svg6" width="18" height="18" version="1.1" xmlns="http://www.w3.org/2000/svg">
 <path id="path2" d="m1 3v12h16v-12zm2 2h2v1c0.30464 0.3836 0.83184 0.6848 1 1.125v0.875c-0.38366-0.3046-0.68481-0.8319-1.125-1h-1.875v1l2 1 1 1v1c-0.30464 0.3836-0.83184 0.6848-1 1.125v0.875h-2v-1c-0.30464-0.3836-0.83184-0.6848-1-1.125v-0.875c0.38366 0.3046 0.68481 0.8319 1.125 1h1.875v-1l-2-1-1-1v-1c0.30464-0.3836 0.83184-0.6848 1-1.125zm10 0h2l1 1v1l-1-1h-1l-1 1v1h1l1 2h-2v1l1 1h1l1-1v1l-1 1h-2l-1-2v-1h-1v-2h1v-1zm-6 3h2.9688v1h-2.9688zm0 2h3v1h-3z" fill="none" opacity=".3" stroke="#fff" stroke-linejoin="round" stroke-width="2"/>
 <path id="path4" d="m1 3v12h16v-12zm2 2h2v1c0.30464 0.3836 0.83184 0.6848 1 1.125v0.875c-0.38366-0.3046-0.68481-0.8319-1.125-1h-1.875v1l2 1 1 1v1c-0.30464 0.3836-0.83184 0.6848-1 1.125v0.875h-2v-1c-0.30464-0.3836-0.83184-0.6848-1-1.125v-0.875c0.38366 0.3046 0.68481 0.8319 1.125 1h1.875v-1l-2-1-1-1v-1c0.30464-0.3836 0.83184-0.6848 1-1.125zm10 0h2l1 1v1l-1-1h-1l-1 1v1h1l1 2h-2v1l1 1h1l1-1v1l-1 1h-2l-1-2v-1h-1v-2h1v-1zm-6 3h2.9688v1h-2.9688zm0 2h3v1h-3z" fill="#747474"/>
</svg>
