<!-- Created with Inkscape (http://www.inkscape.org/) -->
<svg id="svg5369" width="18" height="18" version="1.1" xmlns="http://www.w3.org/2000/svg">
 <g id="layer1" transform="translate(-36 -884.36)">
  <g id="bus_stop-18" transform="translate(-72 -262)">
   <g id="g21790">
    <path id="path14104" d="m114.5 1148.4v1h-1.5c-0.5 0-1 0.5-1 1v10h1v1h2v-1h5v1h2v-1h1v-10c0-0.5-0.5-1-1-1h-1.5v-1z" color="#000000" fill="#fff" opacity=".3" stroke="#fff" stroke-linecap="round" stroke-linejoin="round" stroke-width="2"/>
    <path id="path8522-6-8-58" transform="translate(-120 1026.4)" d="m234.5 122v1h-1.5c-0.5 0-1 0.5-1 1v10h1v1h2v-1h5v1h2v-1h1v-10c0-0.5-0.5-1-1-1h-1.5v-1zm-0.5 2h7v4h-7zm0.75 6.5c0.41421 0 0.75 0.33579 0.75 0.75s-0.33579 0.75-0.75 0.75-0.75-0.33579-0.75-0.75 0.33579-0.75 0.75-0.75zm5.5 0c0.41421 0 0.75 0.33579 0.75 0.75s-0.33579 0.75-0.75 0.75-0.75-0.33579-0.75-0.75 0.33579-0.75 0.75-0.75z" color="#000000" fill="#747474"/>
   </g>
   <rect id="rect22172" x="108" y="1146.4" width="18" height="18" color="#000000" fill="none" opacity=".5"/>
  </g>
 </g>
</svg>
