<svg id="svg6" width="18" height="18" version="1.1" xmlns="http://www.w3.org/2000/svg">
 <g id="butcher-18" transform="translate(-102 -884.36)">
  <path id="path4212" transform="translate(0 1028.4)" d="m114.5-141.88c-0.95537 0-1.9107 0.28574-2.5 0.875-0.94281 0.94281-0.29903 2.8658-1 4-1.5674 2.5362-5.5224 1.0571-6 4-0.37755 2.3266 1.8224 4.098 4 5 1.8478 0.76537 4.4399 1.2514 6 0 2.3972-1.923 1.6647-5.9452 2-9 0.14549-1.3254 0.94281-3.0572 0-4-0.58926-0.58925-1.5446-0.875-2.5-0.875zm0 1.125c0.49975 0 0.9995 0.24951 1.5 0.75 0.80077 0.80081 0.12354 1.8743 0 3-0.28489 2.5947 1 6-2 8-1.4134 0.94226-3.4306 0.65005-5 0-1.8496-0.76609-3.3207-2.0239-3-4 0.99998-2.0001 5-1 6-4 0.35811-1.0743 0.19928-2.1992 1-3 0.50051-0.5005 1.0002-0.75 1.5-0.75zm0 0.59375c-0.18674 5e-3 -0.3648 0.0588-0.5 0.15625-0.79666 0.57421-0.13289 0.95956-0.84375 2.625l1.8438 0.75c2e-3 -0.12413-8e-3 -0.24927 0-0.375 0.0621-0.99807 0.70711-2.2929 0-3-0.11785-0.11785-0.31326-0.16135-0.5-0.15625zm-1.8125 3.6875c-2.0739 3.3656-5.6875 2.5652-5.6875 4.4688 0 2 5 4 7 2 1.625-1.625 1.1734-3.4616 1.0312-5.5312z" fill="none" opacity=".3" stroke="#fff" stroke-linejoin="round" stroke-width="2"/>
  <path id="path3385-7" transform="translate(0 1028.4)" d="m114.5-141.88c-0.95537 0-1.9107 0.28574-2.5 0.875-0.94281 0.94281-0.29903 2.8658-1 4-1.5674 2.5362-5.5224 1.0571-6 4-0.37755 2.3266 1.8224 4.098 4 5 1.8478 0.76537 4.4399 1.2514 6 0 2.3972-1.923 1.6647-5.9452 2-9 0.14549-1.3254 0.94281-3.0572 0-4-0.58926-0.58925-1.5446-0.875-2.5-0.875zm0 1.125c0.49975 0 0.9995 0.24951 1.5 0.75 0.80077 0.80081 0.12354 1.8743 0 3-0.28489 2.5947 1 6-2 8-1.4134 0.94226-3.4306 0.65005-5 0-1.8496-0.76609-3.3207-2.0239-3-4 0.99998-2.0001 5-1 6-4 0.35811-1.0743 0.19928-2.1992 1-3 0.50051-0.5005 1.0002-0.75 1.5-0.75zm0 0.59375c-0.18674 5e-3 -0.3648 0.0588-0.5 0.15625-0.79666 0.57421-0.13289 0.95956-0.84375 2.625l1.8438 0.75c2e-3 -0.12413-8e-3 -0.24927 0-0.375 0.0621-0.99807 0.70711-2.2929 0-3-0.11785-0.11785-0.31326-0.16135-0.5-0.15625zm-1.8125 3.6875c-2.0739 3.3656-5.6875 2.5652-5.6875 4.4688 0 2 5 4 7 2 1.625-1.625 1.1734-3.4616 1.0312-5.5312z" fill="#747474"/>
  <rect id="rect4199-9" transform="translate(0 1028.4)" x="102" y="-144" width="18" height="18" fill="none"/>
 </g>
</svg>
