<!-- Created with Inkscape (http://www.inkscape.org/) -->
<svg id="svg5369" width="18" height="18" version="1.1" xmlns="http://www.w3.org/2000/svg">
 <g id="layer1" transform="translate(3.0518e-5 -956.36)">
  <g id="cafe-18" transform="translate(-342,-118)">
   <g id="g21594">
    <path id="path14891" d="m347 1077.4c-0.5 0-1 0.5-1 1v6c0 0.5 0.5 1 1 1h7c0.40011 0 1-0.5 1-1v-0.4444h0.36111c0.36111 0 0.36111-0.3611 0.36111-0.3611v-0.3611h0.44445c0.72222 0 1.8333-0.3334 1.8333-1.4444v-1.889c0-0.5-0.25-1-0.75-1h-2.25v-0.5c0-0.5-0.5-1-1-1zm8 2.2223h1.8889c0.36111 0 0.36111 0.2777 0.36111 0.2777v1.889c0 0.572-0.72225 0.6064-1.0833 0.611h-0.44445-0.72222zm-10 6.7777 2 2h7l2-2z" color="#000000" fill="#fff" opacity=".3" stroke="#fff" stroke-linejoin="round" stroke-width="2"/>
    <path id="rect9826-2-1-5-9" d="m347 1077.4c-0.5 0-1 0.5-1 1v6c0 0.5 0.5 1 1 1h7c0.40011 0 1-0.5 1-1v-0.4444h0.36111c0.36111 0 0.36111-0.3611 0.36111-0.3611v-0.3611h0.44445c0.72222 0 1.8333-0.3334 1.8333-1.4444v-1.889c0-0.5-0.25-1-0.75-1h-2.25v-0.5c0-0.5-0.5-1-1-1zm8 2.2223h1.8889c0.36111 0 0.36111 0.2777 0.36111 0.2777v1.889c0 0.572-0.72225 0.6064-1.0833 0.611h-0.44445-0.72222zm-10 6.7777 2 2h7l2-2z" color="#000000" fill="#747474"/>
   </g>
   <rect id="rect22290-8" x="342" y="1074.4" width="18" height="18" color="#000000" fill="none" opacity=".5"/>
  </g>
 </g>
</svg>
