<svg id="svg10" width="18" height="18" version="1.1" xmlns="http://www.w3.org/2000/svg">
 <g id="car_rental-18" transform="translate(0 -812.36)">
  <path id="path8201" d="m5.8231 815.73"/>
  <path id="path8205" d="m4.2802 824.44"/>
  <g id="g8268" fill="#747474" opacity=".3" stroke="#fff" stroke-linejoin="round" stroke-width="2">
   <path id="path8270" d="m6.1928 813.36c-1.3642-3e-3 -2.4657 1.1251-2.4688 2.5 3e-3 1.3779 1.1046 2.4978 2.4688 2.5 0.90231-1e-3 1.6957-0.51786 2.125-1.25h1.0312l0.78125-0.8125 0.59375 0.625 0.59375-0.59375 0.59375 0.59375 0.59375-0.59375 0.625 0.59375 1.0312-1.0312c0.1496-0.15584 0.15328-0.25137 0-0.40625l-0.84375-0.875h-5c-0.42702-0.74001-1.2159-1.2519-2.125-1.25zm-1.0625 1.8125c0.35856-2e-3 0.65353 0.28857 0.65625 0.65625-0.0026 0.36256-0.29753 0.68414-0.65625 0.6875-0.36464-3e-3 -0.65961-0.32494-0.65625-0.6875-0.0034-0.36768 0.29161-0.65801 0.65625-0.65625z"/>
   <path id="path8272" d="m13.911 822.76-0.98392-2.5445c-0.18369-0.48704-0.58588-0.90144-1.3468-0.90496h-5.1691c-0.75727 3e-3 -1.1593 0.41776-1.3467 0.90496l-0.98392 2.5445c-0.39053 0.0504-1.0818 0.51024-1.0806 1.3813v3.2395h0.95964v1.0339c-0.0022 1.275 1.7987 1.2598 1.7982 0v-1.0339h6.4757v1.0339c4e-3 1.2598 1.8051 1.275 1.8062 0v-1.0339h0.96028v-3.2395c-0.0032-0.87104-0.69513-1.3309-1.089-1.3813zm-9.024 2.6656c-0.46001 2e-3 -0.83266-0.38304-0.83058-0.85584-0.0021-0.476 0.37057-0.86064 0.83058-0.8568 0.45874-4e-3 0.83122 0.38096 0.83058 0.8568 7.987e-4 0.4728-0.37185 0.85728-0.83058 0.85584zm4.1128-2.6898h-3.8952l0.74193-2.0035c0.089447-0.28432 0.22857-0.48784 0.55649-0.4928h5.1934c0.32329 5e-3 0.46257 0.20848 0.55617 0.4928l0.74225 2.0035zm4.1128 2.6898c-0.46337 2e-3 -0.83601-0.38304-0.83889-0.85584 0.0029-0.476 0.37552-0.86064 0.83889-0.8568 0.45522-4e-3 0.82771 0.38096 0.83042 0.8568-0.0027 0.4728-0.3752 0.85728-0.83042 0.85584z"/>
  </g>
  <g id="g8258" fill="#747474">
   <path id="path8203" d="m6.1928 813.36c-1.3642-3e-3 -2.4657 1.1251-2.4688 2.5 3e-3 1.3779 1.1046 2.4978 2.4688 2.5 0.90231-1e-3 1.6957-0.51786 2.125-1.25h1.0312l0.78125-0.8125 0.59375 0.625 0.59375-0.59375 0.59375 0.59375 0.59375-0.59375 0.625 0.59375 1.0312-1.0312c0.1496-0.15584 0.15328-0.25137 0-0.40625l-0.84375-0.875h-5c-0.42702-0.74001-1.2159-1.2519-2.125-1.25zm-1.0625 1.8125c0.35856-2e-3 0.65353 0.28857 0.65625 0.65625-0.0026 0.36256-0.29753 0.68414-0.65625 0.6875-0.36464-3e-3 -0.65961-0.32494-0.65625-0.6875-0.0034-0.36768 0.29161-0.65801 0.65625-0.65625z"/>
   <path id="path8207" d="m13.911 822.76-0.98392-2.5445c-0.18369-0.48704-0.58588-0.90144-1.3468-0.90496h-5.1691c-0.75727 3e-3 -1.1593 0.41776-1.3467 0.90496l-0.98392 2.5445c-0.39053 0.0504-1.0818 0.51024-1.0806 1.3813v3.2395h0.95964v1.0339c-0.0022 1.275 1.7987 1.2598 1.7982 0v-1.0339h6.4757v1.0339c4e-3 1.2598 1.8051 1.275 1.8062 0v-1.0339h0.96028v-3.2395c-0.0032-0.87104-0.69513-1.3309-1.089-1.3813zm-9.024 2.6656c-0.46001 2e-3 -0.83266-0.38304-0.83058-0.85584-0.0021-0.476 0.37057-0.86064 0.83058-0.8568 0.45874-4e-3 0.83122 0.38096 0.83058 0.8568 7.987e-4 0.4728-0.37185 0.85728-0.83058 0.85584zm4.1128-2.6898h-3.8952l0.74193-2.0035c0.089447-0.28432 0.22857-0.48784 0.55649-0.4928h5.1934c0.32329 5e-3 0.46257 0.20848 0.55617 0.4928l0.74225 2.0035zm4.1128 2.6898c-0.46337 2e-3 -0.83601-0.38304-0.83889-0.85584 0.0029-0.476 0.37552-0.86064 0.83889-0.8568 0.45522-4e-3 0.82771 0.38096 0.83042 0.8568-0.0027 0.4728-0.3752 0.85728-0.83042 0.85584z"/>
  </g>
  <path id="path8209" d="m12.52 824.44"/>
  <path id="path8213" d="m4.7407 815.72"/>
  <rect id="rect8274" transform="translate(0 1028.4)" y="-216" width="18" height="18" rx=".49725" ry=".032999" fill="none" opacity=".3"/>
 </g>
</svg>
