<svg id="svg2" width="18" height="18" version="1.1" xmlns="http://www.w3.org/2000/svg">
 <g id="car_parts-18" transform="translate(-36 -902.36)">
  <g id="g6275" transform="translate(0,-1)">
   <path id="path6265" transform="translate(0 1028.4)" d="m40-122v2h-2v10h14v-10h-2v-2h-2v2h-6v-2zm1 4h1v2h2v1h-2v2h-1v-2h-2v-1h2zm5 2h5v1h-5z" fill="#fff" opacity=".3" stroke="#fff" stroke-linejoin="round" stroke-width="2"/>
   <path id="rect6248" transform="translate(0 1028.4)" d="m40-122v2h-2v10h14v-10h-2v-2h-2v2h-6v-2zm1 4h1v2h2v1h-2v2h-1v-2h-2v-1h2zm5 2h5v1h-5z" fill="#747474"/>
  </g>
  <rect id="rect6279" transform="translate(0 1028.4)" x="36" y="-126" width="18" height="18" fill="none" opacity=".3"/>
 </g>
</svg>
