<svg id="svg2" width="18" height="18" version="1.1" xmlns="http://www.w3.org/2000/svg">
 <g id="car_repair-18" transform="translate(-36 -812.36)">
  <g id="g9271" fill="#4d4d4d" opacity=".3" stroke="#fff" stroke-linejoin="round" stroke-width="2">
   <path id="path9273" transform="translate(0 1028.4)" d="m42.75-212.22c-0.83686 0-1.5 0.66314-1.5 1.5 0 0.0735 0.02113 0.14801 0.03125 0.21875l-2.2812 1.5-2 3v5h2v-5l2.7188-3.625c0.27133 0.25594 0.62882 0.4375 1.0312 0.4375 0.83686 0 1.5312-0.69439 1.5312-1.5312s-0.69439-1.5-1.5312-1.5zm2.25-2.7812-1 1 7 5-9 2v2c-1 0-1 2 0 2h2c1-2 1-2 3-2s2 0 3 2h3v-8l-1.0132 1.2401zm4.1562 12.922c0 1.1477-0.93039 2.0781-2.0781 2.0781s-2.0781-0.9304-2.0781-2.0781 0.93039-2.0781 2.0781-2.0781 2.0781 0.93039 2.0781 2.0781z" color="#000000" fill="#747474" stroke="#fff" stroke-linejoin="round" stroke-width="2" style="text-decoration-line:none;text-indent:0;text-transform:none"/>
  </g>
  <g id="g7621" fill="#4d4d4d">
   <path id="path4902" transform="translate(0 1028.4)" d="m42.75-212.22c-0.83686 0-1.5 0.66314-1.5 1.5 0 0.0735 0.02113 0.14801 0.03125 0.21875l-2.2812 1.5-2 3v5h2v-5l2.7188-3.625c0.27133 0.25594 0.62882 0.4375 1.0312 0.4375 0.83686 0 1.5312-0.69439 1.5312-1.5312s-0.69439-1.5-1.5312-1.5zm2.25-2.7812-1 1 7 5-9 2v2c-1 0-1 2 0 2h2c1-2 1-2 3-2s2 0 3 2h3v-8l-1.0132 1.2401zm4.1562 12.922c0 1.1477-0.93039 2.0781-2.0781 2.0781s-2.0781-0.9304-2.0781-2.0781 0.93039-2.0781 2.0781-2.0781 2.0781 0.93039 2.0781 2.0781z" color="#000000" fill="#747474" style="text-decoration-line:none;text-indent:0;text-transform:none"/>
  </g>
  <rect id="rect7646" x="36" y="812.36" width="18" height="18" rx=".49725" ry=".032999" fill="none" opacity=".3"/>
 </g>
</svg>
