<!-- Created with Inkscape (http://www.inkscape.org/) -->
<svg id="svg5369" width="18" height="18" version="1.1" xmlns="http://www.w3.org/2000/svg">
 <g id="layer1" transform="translate(-66 -974.36)">
  <g id="christian-18" transform="translate(36 -76)">
   <g id="g21864" transform="translate(1)">
    <path id="path16949" d="m38 1051.4c-0.73867 0-1 0.7614-1 1.5v2.5h-4v2h4v9h2v-9h4v-2h-4v-2.5c0-0.7386-0.26133-1.5-1-1.5z" color="#000000" fill="#fff" opacity=".3" stroke="#fff" stroke-linejoin="round" stroke-width="2"/>
    <path id="rect7432-3-9" d="m38 1051.4c-0.73867 0-1 0.7614-1 1.5v2.5h-4v2h4v9h2v-9h4v-2h-4v-2.5c0-0.7386-0.26133-1.5-1-1.5z" color="#000000" fill="#747474"/>
   </g>
   <rect id="rect22077-2" x="30" y="1050.4" width="18" height="18" color="#000000" fill="none" opacity=".5"/>
  </g>
 </g>
</svg>
