<!-- Created with Inkscape (http://www.inkscape.org/) -->
<svg id="svg5369" width="18" height="18" version="1.1" xmlns="http://www.w3.org/2000/svg">
 <g id="layer1" transform="translate(3.0518e-5 -1010.4)">
  <g id="cinema-18" transform="translate(-264,-160)">
   <g id="g23200">
    <path id="path14712" d="m278.24 1172-1.7206 0.5018 0.8364 2.2703 1.6489-0.478zm-2.7721 0.7886-2.2463 0.6452 0.86029 2.2702 2.2463-0.6452zm-3.2739 0.932-1.9834 0.5735 0.86029 2.2702 1.9835-0.5735zm-3.011 0.8603-2.1783 0.7702 1 2 2.0147-0.5zm-1.1783 2.7702v7c0 0.5 0.5 1 1 1h10c0.5 0 1-0.5 1-1v-7zm2 2h8v2h-8z" color="#000000" fill="#fff" opacity=".3" stroke="#fff" stroke-linecap="round" stroke-linejoin="round" stroke-width="2"/>
    <path id="rect7568-8-4-7" d="m278.24 1172-1.7206 0.5018 0.8364 2.2703 1.6489-0.478zm-2.7721 0.7886-2.2463 0.6452 0.86029 2.2702 2.2463-0.6452zm-3.2739 0.932-1.9834 0.5735 0.86029 2.2702 1.9835-0.5735zm-3.011 0.8603-2.1783 0.7702 1 2 2.0147-0.5zm-1.1783 2.7702v7c0 0.5 0.5 1 1 1h10c0.5 0 1-0.5 1-1v-7zm2 2h8v2h-8z" color="#000000" fill="#747474"/>
   </g>
   <rect id="rect22290-1" x="264" y="1170.4" width="18" height="18" color="#000000" fill="none" opacity=".5"/>
  </g>
 </g>
</svg>
