<svg id="svg6" width="18" height="18" version="1.1" xmlns="http://www.w3.org/2000/svg">
 <path id="path2" d="m5.0625 3-4.0625 2 1 4 3-2v8h8v-8l3 2 1-4-3.9375-2h-1.125c-0.01609 1.6976-1.3304 3.0625-2.9375 3.0625-1.6071 0-2.9214-1.3649-2.9375-3.0625z" fill="#fff" opacity=".3" stroke="#fff" stroke-linejoin="round" stroke-width="2"/>
 <path id="path4" d="m5.0625 3-4.0625 2 1 4 3-2v8h8v-8l3 2 1-4-3.9375-2h-1.125c-0.01609 1.6976-1.3304 3.0625-2.9375 3.0625s-2.9214-1.3649-2.9375-3.0625z" fill="#747474"/>
</svg>
