<svg id="svg6" width="18" height="18" version="1.1" xmlns="http://www.w3.org/2000/svg">
 <g id="community_centre-18" transform="translate(-71.988 -776.33)">
  <rect id="rect16571-3" x="72" y="776.36" width="18" height="18" fill="none"/>
  <path id="path4010" transform="translate(0 1028.4)" d="m81-251-8 3v1l8-2.875 8 2.875v-1zm-4 4.5c-0.82843 0-1.5 0.67157-1.5 1.5 0 0.7248 0.50398 1.3288 1.1875 1.4688l-0.03125 0.21875-2.6562 3.3125h1l1.3125-1.5625-1.3125 6.5625h1l1-3 1 3h1l-1.3125-6.625 1.3125 1.625h1l-2.6562-3.375-0.03125-0.15625c0.68352-0.1399 1.1875-0.74395 1.1875-1.4688 0-0.82843-0.67157-1.5-1.5-1.5zm8 0c-0.82843 0-1.5 0.67157-1.5 1.5 0 0.7249 0.50398 1.3288 1.1875 1.4688l-0.03125 0.21875-2.6562 3.3125h1l1.3125-1.5625-1.3125 6.5625h1l1-3 1 3h1l-1.3125-6.625 1.3125 1.625h1l-2.6562-3.375-0.03125-0.15625c0.68352-0.1399 1.1875-0.74385 1.1875-1.4688 0-0.82843-0.67157-1.5-1.5-1.5z" color="#000000" fill="none" opacity=".3" stroke="#fff" stroke-width="2" style="text-decoration-line:none;text-indent:0;text-transform:none"/>
  <path id="path3998" transform="translate(0 1028.4)" d="m81-251-8 3v1l8-2.875 8 2.875v-1zm-4 4.5c-0.82843 0-1.5 0.67157-1.5 1.5 0 0.7248 0.50398 1.3288 1.1875 1.4688l-0.03125 0.21875-2.6562 3.3125h1l1.3125-1.5625-1.3125 6.5625h1l1-3 1 3h1l-1.3125-6.625 1.3125 1.625h1l-2.6562-3.375-0.03125-0.15625c0.68352-0.1399 1.1875-0.74395 1.1875-1.4688 0-0.82843-0.67157-1.5-1.5-1.5zm8 0c-0.82843 0-1.5 0.67157-1.5 1.5 0 0.7249 0.50398 1.3288 1.1875 1.4688l-0.03125 0.21875-2.6562 3.3125h1l1.3125-1.5625-1.3125 6.5625h1l1-3 1 3h1l-1.3125-6.625 1.3125 1.625h1l-2.6562-3.375-0.03125-0.15625c0.68352-0.1399 1.1875-0.74385 1.1875-1.4688 0-0.82843-0.67157-1.5-1.5-1.5z" color="#000000" fill="#747474" style="text-decoration-line:none;text-indent:0;text-transform:none"/>
 </g>
</svg>
