<svg id="svg6" width="18" height="18" version="1.1" xmlns="http://www.w3.org/2000/svg">
 <g id="communication-tower-18" transform="translate(0 -794.36)">
  <path id="path9259" transform="translate(0 1028.4)" d="m6.9062-232.62c-0.78056 0.288-1.4965 0.75118-2.125 1.375-2.0542 2.0389-2.3076 5.2263-0.78125 7.5625l0.84375-0.5625c-1.282-1.9511-1.0936-4.6067 0.625-6.3125 0.52362-0.51973 1.1306-0.8839 1.7812-1.125zm4.1875 0.0312-0.34375 0.9375c0.65888 0.24546 1.2856 0.59417 1.8125 1.125 1.7058 1.7186 1.8921 4.3709 0.59375 6.3125l0.84375 0.56255c1.5435-2.3247 1.2889-5.5083-0.75-7.5625-0.6311-0.63582-1.3676-1.0817-2.1562-1.375zm-0.6875 1.8438-0.34375 0.96875c0.40109 0.15161 0.7755 0.3856 1.0938 0.71875 0.98753 1.0338 1.0968 2.5747 0.34375 3.7188l0.8125 0.5625c1.0199-1.5293 0.90844-3.6238-0.40625-5-0.42856-0.44862-0.95183-0.76746-1.5-0.96875zm-2.8125 0.0312c-0.49808 0.18581-0.96907 0.45597-1.375 0.84375-1.4219 1.3583-1.6189 3.5156-0.5625 5.0938l0.875-0.5625c-0.79969-1.1868-0.66778-2.7865 0.40625-3.8125 0.30058-0.28714 0.6363-0.4839 1-0.625zm1.4062 1.7188c-1.1046 0-2 0.89544-2 2 0 0.99816 0.73149 1.8186 1.6875 1.9688l-2.6875 8.0312h1l1-2h2l1.1562 2h0.84375l-2.6875-8.0312c0.95601-0.15013 1.6875-0.97059 1.6875-1.9688 0-1.1046-0.89543-2-2-2z" color="#000000" fill="#747474" opacity=".3" stroke="#fff" stroke-linejoin="round" stroke-width="2" style="text-decoration-line:none;text-indent:0;text-transform:none"/>
  <path id="path8801" transform="translate(0 1028.4)" d="m6.9062-232.62c-0.78056 0.288-1.4965 0.75118-2.125 1.375-2.0542 2.0389-2.3076 5.2263-0.78125 7.5625l0.84375-0.5625c-1.282-1.9511-1.0936-4.6067 0.625-6.3125 0.52362-0.51973 1.1306-0.8839 1.7812-1.125zm4.1875 0.0312-0.34375 0.9375c0.65888 0.24546 1.2856 0.59417 1.8125 1.125 1.7058 1.7186 1.8921 4.3709 0.59375 6.3125l0.84375 0.56255c1.5435-2.3247 1.2889-5.5083-0.75-7.5625-0.6311-0.63582-1.3676-1.0817-2.1562-1.375zm-0.6875 1.8438-0.34375 0.96875c0.40109 0.15161 0.7755 0.3856 1.0938 0.71875 0.98753 1.0338 1.0968 2.5747 0.34375 3.7188l0.8125 0.5625c1.0199-1.5293 0.90844-3.6238-0.40625-5-0.42856-0.44862-0.95183-0.76746-1.5-0.96875zm-2.8125 0.0312c-0.49808 0.18581-0.96907 0.45597-1.375 0.84375-1.4219 1.3583-1.6189 3.5156-0.5625 5.0938l0.875-0.5625c-0.79969-1.1868-0.66778-2.7865 0.40625-3.8125 0.30058-0.28714 0.6363-0.4839 1-0.625zm1.4062 1.7188c-1.1046 0-2 0.89544-2 2 0 0.99816 0.73149 1.8186 1.6875 1.9688l-2.6875 8.0312h1l1-2h2l1.1562 2h0.84375l-2.6875-8.0312c0.95601-0.15013 1.6875-0.97059 1.6875-1.9688 0-1.1046-0.89543-2-2-2z" color="#000000" fill="#747474" style="text-decoration-line:none;text-indent:0;text-transform:none"/>
  <rect id="rect8917" y="794.36" width="18" height="18" fill="none" opacity=".3"/>
 </g>
</svg>
