<svg id="svg6" width="18" height="18" version="1.1" xmlns="http://www.w3.org/2000/svg">
 <g id="computer-18" transform="translate(-36 -884.36)">
  <path id="path16553" d="m50.008 886.36h-10.014c-0.36742 0-0.99366 0.63584-0.99366 1.0003v7c0 0.36448 0.62608 1.033 0.9935 1.033h10.014c0.36742 0 0.99224-0.66848 0.99224-1.033v-7c1.6e-4 -0.36448-0.62466-1.0003-0.99208-1.0003zm-1.0079 7.0003h-8v-5h8zm2 7h-12s-1 0-1-1l2-3h10l2 3c0 1-1 1-1 1z" fill="none" opacity=".3" stroke="#fff"/>
  <path id="path6551" d="m50.008 886.36h-10.014c-0.36742 0-0.99366 0.63584-0.99366 1.0003v7c0 0.36448 0.62608 1.033 0.9935 1.033h10.014c0.36742 0 0.99224-0.66848 0.99224-1.033v-7c1.6e-4 -0.36448-0.62466-1.0003-0.99208-1.0003zm-1.0079 7.0003h-8v-5h8zm2 7h-12s-1 0-1-1l2-3h10l2 3c0 1-1 1-1 1z" fill="#747474"/>
  <rect id="rect16535" x="36" y="884.36" width="18" height="18" fill="none" opacity=".3"/>
 </g>
</svg>
