<svg id="svg6" width="18" height="18" version="1.1" xmlns="http://www.w3.org/2000/svg">
 <path id="path2" d="m9.0003 9.5733c1.0475 0 1.5334 0.79506 1.6356 1.9243 0.02436 0.2702-0.0011 0.66402-0.0357 1.1202-0.11774 1.5155-0.25312 3.3779 0.756 3.3779 0.85344 0 1.2919-1.6373 1.5449-3.5038 0.2443-1.8476-0.01442-2.7671 0.11284-3.5875 0.24262-1.5544 1.5995-2.9481 1.1803-4.93-0.23212-1.0994-0.83748-1.6166-1.4372-1.834-1.3815-0.50288-2.2735 0.46606-3.7568 0.46606-1.4833 0-2.3752-0.96894-3.7575-0.46606-0.5992 0.21742-1.2046 0.73458-1.4372 1.834-0.4186 1.9818 0.93772 3.3756 1.1809 4.93 0.12712 0.8204-0.13146 1.7398 0.11284 3.5875 0.25298 1.8664 0.6916 3.5038 1.5449 3.5038 1.0087 0 0.87388-1.8624 0.756-3.3778-0.03472-0.45613-0.05992-0.84995-0.0357-1.1202 0.10178-1.1294 0.59416-1.9244 1.6358-1.9244z" fill="none" opacity=".3" stroke="#fff" stroke-linejoin="round" stroke-width="2"/>
 <path id="path4" d="m9.0003 9.5776c1.0475 0 1.5334 0.79506 1.6356 1.9243 0.02436 0.2702-0.0011 0.66402-0.0357 1.1202-0.11774 1.5155-0.25312 3.3779 0.756 3.3779 0.85344 0 1.2919-1.6373 1.5449-3.5038 0.2443-1.8476-0.01442-2.7671 0.11284-3.5875 0.24262-1.5544 1.5995-2.9481 1.1803-4.93-0.23212-1.0994-0.83748-1.6166-1.4372-1.834-1.3815-0.50288-2.2735 0.46606-3.7568 0.46606-1.4833 0-2.3752-0.96894-3.7575-0.46606-0.5992 0.21742-1.2046 0.73458-1.4372 1.834-0.4186 1.9818 0.93772 3.3756 1.1809 4.93 0.12712 0.8204-0.13146 1.7398 0.11284 3.5875 0.25298 1.8664 0.6916 3.5038 1.5449 3.5038 1.0087 0 0.87388-1.8624 0.756-3.3778-0.03472-0.45613-0.05992-0.84995-0.0357-1.1202 0.10178-1.1294 0.59416-1.9244 1.6358-1.9244z" fill="#747474"/>
</svg>
