<svg id="svg6" width="18" height="18" version="1.1" xmlns="http://www.w3.org/2000/svg">
 <path id="path2" d="m9 2.75c-1.1607 0-2.3352 0.50232-3.125 1.5-0.60274 0.76135-0.95955 1.7971-0.96875 3-2.8962 0.02375-2.9062 1.0817-2.9062 8h14c0-6.9183-0.01009-7.9762-2.9062-8-0.0092-1.2029-0.36601-2.2386-0.96875-3-0.78983-0.99768-1.9643-1.5-3.125-1.5zm0 2c0.58929 0 1.1648 0.24768 1.5625 0.75 0.30178 0.3812 0.50556 0.942 0.5 1.75h-4.125c-0.00556-0.808 0.19822-1.3688 0.5-1.75 0.39767-0.50232 0.97321-0.75 1.5625-0.75zm-1 3.5h2v2h2v2h-2v2h-2v-2h-2v-2h2z" fill="none" opacity=".3" stroke="#fff" stroke-linejoin="round" stroke-width="2"/>
 <path id="path4" d="m9 2.75c-1.1607 0-2.3352 0.50232-3.125 1.5-0.60274 0.76135-0.95955 1.7971-0.96875 3-2.8962 0.02375-2.9062 1.0817-2.9062 8h14c0-6.9183-0.010087-7.9762-2.9062-8-0.0092-1.2029-0.36601-2.2386-0.96875-3-0.78983-0.99768-1.9643-1.5-3.125-1.5zm0 2c0.58929 0 1.1648 0.24768 1.5625 0.75 0.30178 0.3812 0.50556 0.942 0.5 1.75h-4.125c-0.0055608-0.808 0.19822-1.3688 0.5-1.75 0.39767-0.50232 0.97321-0.75 1.5625-0.75zm-1 3.5h2v2h2v2h-2v2h-2v-2h-2v-2h2z" fill="#747474"/>
</svg>
