<svg id="svg6" width="18" height="18" version="1.1" xmlns="http://www.w3.org/2000/svg">
 <g id="drinking_water_well-18" transform="translate(0 -848.36)">
  <rect id="rect9684" y="848.36" width="18" height="18" fill="none" opacity=".3"/>
  <path id="path9776" d="m3 857.36 1 7h4l1-7zm1 1h4l-0.3 2h-3.4m0.7-3.9805v-2c0-1 1-2 2-2h3l-4.03e-5 -2.0195-2-2e-5c-0.99996 0-0.99996-1 0-1h5c1 0 1 1 0 1l-2 2e-5 4e-5 2.0195 3-0.0195v11.951l2 0.0293v1l-14 0.0195v-1l10-5e-5v-10s-0.93338 0.0195-4.0001 0.0195c-0.51894 0-0.93974 0.3005-0.93974 0.8196l-0.0602 1.1804z" fill="none" opacity=".3" stroke="#fff" stroke-linejoin="round" stroke-width="2"/>
  <path id="path9690" d="m3 857.36 1 7h4l1-7zm1 1h4l-0.3 2h-3.4m0.7-3.9805v-2c0-1 1-2 2-2h3l-4.03e-5 -2.0195-2-2e-5c-0.99996 0-0.99996-1 0-1h5c1 0 1 1 0 1l-2 2e-5 4e-5 2.0195 3-0.0195v11.951l2 0.0293v1l-14 0.0195v-1l10-5e-5v-10s-0.93338 0.0195-4.0001 0.0195c-0.51894 0-0.93974 0.3005-0.93974 0.8196l-0.0602 1.1804z" fill="#747474"/>
 </g>
</svg>
