<svg id="svg2" width="18" height="18" version="1.1" xmlns="http://www.w3.org/2000/svg">
 <g id="drinking_water-18" transform="translate(0 -866.36)">
  <rect id="rect7026" y="866.36" width="18" height="18" fill="none" opacity=".3"/>
  <g id="g3894">
   <path id="path3124" d="m3 875.36 1 8h4l1-8zm1 1h4l-0.3 2h-3.4m0.7-4v-2c0-1 1-2 2-2h3v-2h-2c-1 0-1-1 0-1h5c1 0 1 1 0 1h-2v2h4v2h-7c-0.51894 0-0.93974 0.3005-0.93974 0.8196l-0.060256 1.1804z" fill="#fff" opacity=".3" stroke="#fff" stroke-linejoin="round" stroke-width="2"/>
   <path id="path6977" d="m3 875.36 1 8h4l1-8zm1 1h4l-0.3 2h-3.4m0.7-4v-2c0-1 1-2 2-2h3v-2h-2c-1 0-1-1 0-1h5c1 0 1 1 0 1h-2v2h4v2h-7c-0.51894 0-0.93974 0.3005-0.93974 0.8196l-0.060256 1.1804z" fill="#747474"/>
  </g>
 </g>
</svg>
