<svg id="svg6" width="18" height="18" version="1.1" xmlns="http://www.w3.org/2000/svg">
 <g id="dry_cleaning-18" transform="translate(-72 -812.36)">
  <rect id="rect6625" x="72" y="812.36" width="18" height="18" fill="none" opacity=".3"/>
  <path id="path6684" transform="translate(0 1028.4)" d="m79-205c0 1.1046 0.89543 2 2 2s2-0.89543 2-2zm-4-5v10h12v-10zm6 2c1.6569 0 3 1.3432 3 3s-1.3431 3-3 3-3-1.3432-3-3 1.3431-3 3-3zm-5.5625-6c-0.42188 0.0469-0.4375 0.25-0.4375 1v2h12v-2c0-1 0-1-1-1-3.2144 5.4e-4 -6.7855-6.2e-4 -10 0-0.25 0-0.42188-0.0156-0.5625 0zm1.5625 0.5c0.55228 0 1 0.44772 1 1s-0.44772 1-1 1-1-0.44772-1-1 0.44772-1 1-1zm3 0c0.55228 0 1 0.44772 1 1s-0.44772 1-1 1-1-0.44772-1-1 0.44772-1 1-1z" fill="none" opacity=".3" stroke="#fff" stroke-linejoin="round" stroke-width="2"/>
  <path id="path6675" transform="translate(0 1028.4)" d="m79-205c0 1.1046 0.89543 2 2 2s2-0.89543 2-2zm-4-5v10h12v-10zm6 2c1.6569 0 3 1.3432 3 3s-1.3431 3-3 3-3-1.3432-3-3 1.3431-3 3-3zm-5.5625-6c-0.42188 0.0469-0.4375 0.25-0.4375 1v2h12v-2c0-1 0-1-1-1-3.2144 5.4e-4 -6.7855-6.2e-4 -10 0-0.25 0-0.42188-0.0156-0.5625 0zm1.5625 0.5c0.55228 0 1 0.44772 1 1s-0.44772 1-1 1-1-0.44772-1-1 0.44772-1 1-1zm3 0c0.55228 0 1 0.44772 1 1s-0.44772 1-1 1-1-0.44772-1-1 0.44772-1 1-1z" fill="#747474"/>
 </g>
</svg>
