<svg id="svg6" width="18" height="18" version="1.1" xmlns="http://www.w3.org/2000/svg">
 <path id="path2" d="m13 9c0-2-3.5-2.5-3.5-2.5v-1.5h4.5l-1.5-1.5 1.5-1.5h-4.5v-1h-1v5.5s-3.5 0.5-3.5 2.5c0 0-1 0-1 1h10c0-1-1-1-1-1zm-11 2h14v6h-5v-1h-4v1h-5z" fill="none" opacity=".3" stroke="#fff" stroke-linejoin="round" stroke-width="2"/>
 <path id="path4" d="m13 9c0-2-3.5-2.5-3.5-2.5v-1.5h4.5l-1.5-1.5 1.5-1.5h-4.5v-1h-1v5.5s-3.5 0.5-3.5 2.5c0 0-1 0-1 1h10c0-1-1-1-1-1zm-11 2h14v6h-5v-1h-4v1h-5z" fill="#747474"/>
</svg>
