<!-- Created with Inkscape (http://www.inkscape.org/) -->
<svg id="svg5369" width="18" height="18" version="1.1" xmlns="http://www.w3.org/2000/svg">
 <g id="layer1" transform="translate(-66 -938.36)">
  <g id="fast_food-18" transform="translate(-276,-184)">
   <g id="g21574" transform="translate(-1,-1)">
    <path id="path15098" d="m350.5 1127.4c-2.0526 0-3.5 0.7895-3.5 2.5v1.5h11v-1.5c0-1.7105-1.4474-2.5-3.5-2.5zm0 1.125c0.20711 0 0.375 0.1679 0.375 0.375s-0.16789 0.375-0.375 0.375-0.375-0.1679-0.375-0.375 0.16789-0.375 0.375-0.375zm4 0c0.20711 0 0.375 0.1679 0.375 0.375s-0.16789 0.375-0.375 0.375-0.375-0.1679-0.375-0.375 0.16789-0.375 0.375-0.375zm-6 1c0.20711 0 0.375 0.1679 0.375 0.375s-0.16789 0.375-0.375 0.375-0.375-0.1679-0.375-0.375 0.16789-0.375 0.375-0.375zm4 0c0.20711 0 0.375 0.1679 0.375 0.375s-0.16789 0.375-0.375 0.375-0.375-0.1679-0.375-0.375 0.16789-0.375 0.375-0.375zm4 0c0.20711 0 0.375 0.1679 0.375 0.375s-0.16789 0.375-0.375 0.375-0.375-0.1679-0.375-0.375 0.16789-0.375 0.375-0.375zm-9.5 2.875c-0.34213 0-0.50001 0.1579-0.5 0.5 1e-5 0.3422 0.15787 0.5 0.5 0.5h11c0.34211 0 0.49999-0.1578 0.5-0.5 1e-5 -0.3421-0.15789-0.5-0.5-0.5zm0 2v0.625c0 0.6842 0.69079 1.375 1.375 1.375h8.25c0.68421 0 1.375-0.6908 1.375-1.375v-0.625z" color="#000000" fill="none" opacity=".3" stroke="#fff" stroke-linecap="round" stroke-linejoin="round" stroke-width="2"/>
    <path id="rect13326-2-5-2-3-6" d="m350.5 1127.4c-2.0526 0-3.5 0.7895-3.5 2.5v1.5h11v-1.5c0-1.7105-1.4474-2.5-3.5-2.5zm0 1.125c0.20711 0 0.375 0.1679 0.375 0.375s-0.16789 0.375-0.375 0.375-0.375-0.1679-0.375-0.375 0.16789-0.375 0.375-0.375zm4 0c0.20711 0 0.375 0.1679 0.375 0.375s-0.16789 0.375-0.375 0.375-0.375-0.1679-0.375-0.375 0.16789-0.375 0.375-0.375zm-6 1c0.20711 0 0.375 0.1679 0.375 0.375s-0.16789 0.375-0.375 0.375-0.375-0.1679-0.375-0.375 0.16789-0.375 0.375-0.375zm4 0c0.20711 0 0.375 0.1679 0.375 0.375s-0.16789 0.375-0.375 0.375-0.375-0.1679-0.375-0.375 0.16789-0.375 0.375-0.375zm4 0c0.20711 0 0.375 0.1679 0.375 0.375s-0.16789 0.375-0.375 0.375-0.375-0.1679-0.375-0.375 0.16789-0.375 0.375-0.375zm-9.5 2.875c-0.34213 0-0.50001 0.1579-0.5 0.5 1e-5 0.3422 0.15787 0.5 0.5 0.5h11c0.34211 0 0.49999-0.1578 0.5-0.5 1e-5 -0.3421-0.15789-0.5-0.5-0.5zm0 2v0.625c0 0.6842 0.69079 1.375 1.375 1.375h8.25c0.68421 0 1.375-0.6908 1.375-1.375v-0.625z" color="#000000" fill="#747474"/>
   </g>
   <rect id="rect22302-4" x="342" y="1122.4" width="18" height="18" color="#000000" fill="none" opacity=".5"/>
  </g>
 </g>
</svg>
