<svg id="svg6" width="18" height="18" version="1.1" xmlns="http://www.w3.org/2000/svg">
 <path id="path2" d="m7 2.75c0 1 1e-6 0.99999 1e-6 0.99999h-1c-1 1-1 1 0 2h1v2c-1 0-1 0-2 1h-1v2h1c1 1 1 1 2 1 0 4-4e-6 3-4e-6 3l-2 1v1l8 1e-5v-1l-2-1s-0.01546-1.283 4e-6 -3c1 0 1 0 2-1h1v-2h-1c-1-1-1-1-2-1v-2l1 1e-5c1-1 1-1 0-2l-1-1e-5v-0.99999c-1-2-3-2-4 0z" fill="none" opacity=".3" stroke="#fff" stroke-linejoin="round" stroke-width="2"/>
 <path id="path4" d="m7 2.75c0 1 1e-6 0.99999 1e-6 0.99999h-1c-1 1-1 1 0 2h1v2c-1 0-1 0-2 1h-1v2h1c1 1 1 1 2 1 0 4-4e-6 3-4e-6 3l-2 1v1l8 1e-5v-1l-2-1s-0.01546-1.283 4e-6 -3c1 0 1 0 2-1h1v-2h-1c-1-1-1-1-2-1v-2l1 1e-5c1-1 1-1 0-2l-1-1e-5v-0.99999c-1-2-3-2-4 0z" fill="#747474" stroke="#000" stroke-width=".0044903"/>
</svg>
