<!-- Created with Inkscape (http://www.inkscape.org/) -->
<svg id="svg5369" width="18" height="18" version="1.1" xmlns="http://www.w3.org/2000/svg">
 <g id="layer1" transform="translate(-36 -848.36)">
  <g id="fire_station-18" transform="translate(-384,-226)">
   <g id="g21510">
    <path id="path14455" d="m429.5 1076.4-2.5 4-1.5-2c-0.53852 0.9467-2.5 3.0625-2.5 5.5 0 3.5899 2.9102 6.5 6.5 6.5s6.5-2.9101 6.5-6.5c0-2.4375-1.9615-4.5533-2.5-5.5l-1.5 2z" color="#000000" fill="#fff" opacity=".3" stroke="#fff" stroke-linecap="round" stroke-linejoin="round" stroke-width="2"/>
    <path id="path10041-3-3" d="m429.5 1076.4-2.5 4-1.5-2c-0.53852 0.9467-2.5 3.0625-2.5 5.5 0 3.5899 2.9102 6.5 6.5 6.5s6.5-2.9101 6.5-6.5c0-2.4375-1.9615-4.5533-2.5-5.5l-1.5 2zm0 6.5s2.5 2.3687 2.5 4.25c0 0.8125-0.875 1.75-2.5 1.75s-2.5-0.9375-2.5-1.75c0-1.8168 2.5-4.25 2.5-4.25z" color="#000000" fill="#747474"/>
   </g>
   <rect id="rect22290-37" x="420" y="1074.4" width="18" height="18" color="#000000" fill="none" opacity=".5"/>
  </g>
 </g>
</svg>
