<!-- Created with Inkscape (http://www.inkscape.org/) -->
<svg id="svg5369" width="18" height="18" version="1.1" xmlns="http://www.w3.org/2000/svg">
 <g id="layer1" transform="translate(0 -866.36)">
  <g id="fuel-18" transform="translate(-664 -352)">
   <path id="path14079" d="m670 1220.4c-0.5 0-1 0.5-1 1v11c0 0.5 0.5 1 1 1h6c0.5 0 1-0.5 1-1v-3h0.25c0.13687 0 0.25 0.096 0.25 0.25v0.75c0 0.5 0.5 1 1 1h0.5c0.5 0 1-0.4072 1-1v-3.5c0-1-1-1-1-1.9998v-1.5h-1l-1-1.0002v-0.9998c0-0.5-0.5-1-1-1zm0 1.5h6v2.5h-6zm7 3.5h1c0 1 1 1 1 2v2.75c0 0.25-0.24998 0.25-0.24998 0.25s-0.25002 0-0.25-0.25v-0.75c0-0.5906-0.49938-1.0014-1-1l-0.50009-2e-4z" color="#000000" fill="#fff" opacity=".3" stroke="#fff" stroke-linejoin="round" stroke-width="2"/>
   <path id="rect7223-2-4-9-4-2-3" d="m670 1220.4c-0.5 0-1 0.5-1 1v11c0 0.5 0.5 1 1 1h6c0.5 0 1-0.5 1-1v-3h0.25c0.13687 0 0.25 0.096 0.25 0.25v0.75c0 0.5 0.5 1 1 1h0.5c0.5 0 1-0.4072 1-1v-3.5c0-1-1-1-1-1.9998v-1.5h-1l-1-1.0002v-0.9998c0-0.5-0.5-1-1-1zm0 1.5h6v2.5h-6zm7 3.5h1c0 1 1 1 1 2v2.75c0 0.25-0.24998 0.25-0.24998 0.25s-0.25002 0-0.25-0.25v-0.75c0-0.5906-0.49938-1.0014-1-1l-0.50009-2e-4z" color="#000000" fill="#747474"/>
   <rect id="rect22178-6-7" x="664" y="1218.4" width="18" height="18" color="#000000" fill="none" opacity=".5"/>
  </g>
 </g>
</svg>
