<svg id="svg2" width="18" height="18" version="1.1" xmlns="http://www.w3.org/2000/svg">
 <g id="gambling-18" transform="translate(0 -920.36)">
  <g id="g15545" fill="none" opacity=".3" stroke="#fff" stroke-linejoin="round" stroke-width="2">
   <path id="path15547" transform="translate(0 1028.4)" d="m6-105c-2 0-3 1-3 3v6c0 2 1 3 3 3h6c2 0 3-1 3-3v-6c0-2-1-3-3-3zm6 2c0.82843 0 1 0.17157 1 1s-0.17157 1-1 1-1-0.17157-1-1 0.17157-1 1-1zm-3 3c0.82843 0 1 0.17157 1 1s-0.17157 1-1 1-1-0.17157-1-1 0.17157-1 1-1zm-3 3c0.82843 0 1 0.17157 1 1s-0.17157 1-1 1-1-0.17157-1-1 0.17157-1 1-1z" fill="none" stroke="#fff" stroke-linejoin="round" stroke-width="2"/>
  </g>
  <g id="g6463">
   <path id="rect11273" transform="translate(0 1028.4)" d="m6-105c-2 0-3 1-3 3v6c0 2 1 3 3 3h6c2 0 3-1 3-3v-6c0-2-1-3-3-3zm6 2c0.82843 0 1 0.17157 1 1s-0.17157 1-1 1-1-0.17157-1-1 0.17157-1 1-1zm-3 3c0.82843 0 1 0.17157 1 1s-0.17157 1-1 1-1-0.17157-1-1 0.17157-1 1-1zm-3 3c0.82843 0 1 0.17157 1 1s-0.17157 1-1 1-1-0.17157-1-1 0.17157-1 1-1z" fill="#747474"/>
  </g>
  <rect id="rect6567" y="920.36" width="18" height="18" rx=".9945" ry=".032999" fill="none" opacity=".3"/>
 </g>
</svg>
