<svg id="svg6" width="18" height="18" version="1.1" xmlns="http://www.w3.org/2000/svg">
 <path id="path2" d="m141-70c-0.24162 0-0.48343 0.00705-0.71875 0.03125l-0.53125 1.4688c-0.62805 0.14304-1.221 0.38556-1.75 0.71875l-1.4062-0.65625c-0.3703 0.30172-0.72953 0.66095-1.0312 1.0312l0.65625 1.4062c-0.33319 0.52901-0.57571 1.122-0.71875 1.75l-1.4688 0.53125c-0.0239 0.23532-0.03125 0.47713-0.03125 0.71875 0 0.24163 0.00705 0.48343 0.03125 0.71875l1.4688 0.53125c0.14304 0.62805 0.38556 1.221 0.71875 1.75l-0.65625 1.4062c0.30172 0.3703 0.66095 0.72953 1.0312 1.0312l1.4062-0.65625c0.52901 0.33319 1.122 0.57571 1.75 0.71875l0.53125 1.4688c0.23532 0.0239 0.47713 0.03125 0.71875 0.03125s0.48343-0.00705 0.71875-0.03125l0.53125-1.4688c0.62805-0.14304 1.221-0.38556 1.75-0.71875l1.4062 0.65625c0.3703-0.30172 0.72953-0.66095 1.0312-1.0312l-0.65625-1.4062c0.33319-0.52901 0.57571-1.122 0.71875-1.75l1.4688-0.53125c0.0239-0.23532 0.03125-0.47712 0.03125-0.71875 0-0.24162-0.00705-0.48343-0.03125-0.71875l-1.4688-0.53125c-0.14304-0.62805-0.38556-1.221-0.71875-1.75l0.65625-1.4062c-0.30172-0.3703-0.66095-0.72953-1.0312-1.0312l-1.4062 0.65625c-0.52901-0.33319-1.122-0.57571-1.75-0.71875l-0.53125-1.4688c-0.23532-0.0239-0.47713-0.03125-0.71875-0.03125zm0 2.5c2.4853 0 4.5 2.0147 4.5 4.5s-2.0147 4.5-4.5 4.5-4.5-2.0147-4.5-4.5 2.0147-4.5 4.5-4.5zm-1 1.5-2 3h3l-1 4 4-5h-3l1-2h-2z" fill="none" opacity=".3" stroke="#fff" stroke-linejoin="round" stroke-width="2"/>
 <path id="path4" d="m141-70c-0.24162 0-0.48343 0.00705-0.71875 0.03125l-0.53125 1.4688c-0.62805 0.14304-1.221 0.38556-1.75 0.71875l-1.4062-0.65625c-0.3703 0.30172-0.72953 0.66095-1.0312 1.0312l0.65625 1.4062c-0.33319 0.52901-0.57571 1.122-0.71875 1.75l-1.4688 0.53125c-0.0239 0.23532-0.03125 0.47713-0.03125 0.71875 0 0.24163 0.00705 0.48343 0.03125 0.71875l1.4688 0.53125c0.14304 0.62805 0.38556 1.221 0.71875 1.75l-0.65625 1.4062c0.30172 0.3703 0.66095 0.72953 1.0312 1.0312l1.4062-0.65625c0.52901 0.33319 1.122 0.57571 1.75 0.71875l0.53125 1.4688c0.23532 0.0239 0.47713 0.03125 0.71875 0.03125s0.48343-0.00705 0.71875-0.03125l0.53125-1.4688c0.62805-0.14304 1.221-0.38556 1.75-0.71875l1.4062 0.65625c0.3703-0.30172 0.72953-0.66095 1.0312-1.0312l-0.65625-1.4062c0.33319-0.52901 0.57571-1.122 0.71875-1.75l1.4688-0.53125c0.0239-0.23532 0.03125-0.47712 0.03125-0.71875 0-0.24162-0.00705-0.48343-0.03125-0.71875l-1.4688-0.53125c-0.14304-0.62805-0.38556-1.221-0.71875-1.75l0.65625-1.4062c-0.30172-0.3703-0.66095-0.72953-1.0312-1.0312l-1.4062 0.65625c-0.52901-0.33319-1.122-0.57571-1.75-0.71875l-0.53125-1.4688c-0.23532-0.0239-0.47713-0.03125-0.71875-0.03125zm0 2.5c2.4853 0 4.5 2.0147 4.5 4.5s-2.0147 4.5-4.5 4.5-4.5-2.0147-4.5-4.5 2.0147-4.5 4.5-4.5zm-1 1.5-2 3h3l-1 4 4-5h-3l1-2h-2z" fill="#747474"/>
 <g id="generator-18" transform="translate(-132 -956.36)">
  <path id="path6583" transform="translate(0 1028.4)" d="m141-70c-0.24162 0-0.48343 0.0071-0.71875 0.03125l-0.53125 1.4688c-0.62805 0.14304-1.221 0.38556-1.75 0.71875l-1.4062-0.65625c-0.3703 0.30172-0.72953 0.66095-1.0312 1.0312l0.65625 1.4062c-0.33319 0.52901-0.57571 1.122-0.71875 1.75l-1.4688 0.53125c-0.0239 0.23532-0.03125 0.47713-0.03125 0.71875 0 0.24163 7e-3 0.48343 0.0312 0.71875l1.4688 0.53125c0.14304 0.62805 0.38556 1.221 0.71875 1.75l-0.65625 1.4062c0.30172 0.3703 0.66095 0.72953 1.0312 1.0312l1.4062-0.65625c0.52901 0.33319 1.122 0.57571 1.75 0.71875l0.53125 1.4688c0.23532 0.0239 0.47713 0.03125 0.71875 0.03125s0.48343-7e-3 0.71875-0.03125l0.53125-1.4688c0.62805-0.14304 1.221-0.38556 1.75-0.71875l1.4062 0.65625c0.3703-0.30172 0.72953-0.66095 1.0312-1.0312l-0.65625-1.4062c0.33319-0.52901 0.57571-1.122 0.71875-1.75l1.4688-0.53125c0.0239-0.23532 0.03125-0.47712 0.03125-0.71875 0-0.24162-7e-3 -0.48343-0.0312-0.71875l-1.4688-0.53125c-0.14304-0.62805-0.38556-1.221-0.71875-1.75l0.65625-1.4062c-0.30172-0.3703-0.66095-0.72953-1.0312-1.0312l-1.4062 0.65625c-0.52901-0.33319-1.122-0.57571-1.75-0.71875l-0.53125-1.4688c-0.23532-0.0239-0.47713-0.03125-0.71875-0.03125zm0 2.5c2.4853 0 4.5 2.0147 4.5 4.5s-2.0147 4.5-4.5 4.5-4.5-2.0147-4.5-4.5 2.0147-4.5 4.5-4.5zm-1 1.5-2 3h3l-1 4 4-5h-3l1-2z" fill="none" opacity=".3" stroke="#fff" stroke-linejoin="round" stroke-width="2"/>
  <path id="path6574" transform="translate(0 1028.4)" d="m141-70c-0.24162 0-0.48343 0.0071-0.71875 0.03125l-0.53125 1.4688c-0.62805 0.14304-1.221 0.38556-1.75 0.71875l-1.4062-0.65625c-0.3703 0.30172-0.72953 0.66095-1.0312 1.0312l0.65625 1.4062c-0.33319 0.52901-0.57571 1.122-0.71875 1.75l-1.4688 0.53125c-0.0239 0.23532-0.03125 0.47713-0.03125 0.71875 0 0.24163 7e-3 0.48343 0.0312 0.71875l1.4688 0.53125c0.14304 0.62805 0.38556 1.221 0.71875 1.75l-0.65625 1.4062c0.30172 0.3703 0.66095 0.72953 1.0312 1.0312l1.4062-0.65625c0.52901 0.33319 1.122 0.57571 1.75 0.71875l0.53125 1.4688c0.23532 0.0239 0.47713 0.03125 0.71875 0.03125s0.48343-7e-3 0.71875-0.03125l0.53125-1.4688c0.62805-0.14304 1.221-0.38556 1.75-0.71875l1.4062 0.65625c0.3703-0.30172 0.72953-0.66095 1.0312-1.0312l-0.65625-1.4062c0.33319-0.52901 0.57571-1.122 0.71875-1.75l1.4688-0.53125c0.0239-0.23532 0.03125-0.47712 0.03125-0.71875 0-0.24162-7e-3 -0.48343-0.0312-0.71875l-1.4688-0.53125c-0.14304-0.62805-0.38556-1.221-0.71875-1.75l0.65625-1.4062c-0.30172-0.3703-0.66095-0.72953-1.0312-1.0312l-1.4062 0.65625c-0.52901-0.33319-1.122-0.57571-1.75-0.71875l-0.53125-1.4688c-0.23532-0.0239-0.47713-0.03125-0.71875-0.03125zm0 2.5c2.4853 0 4.5 2.0147 4.5 4.5s-2.0147 4.5-4.5 4.5-4.5-2.0147-4.5-4.5 2.0147-4.5 4.5-4.5zm-1 1.5-2 3h3l-1 4 4-5h-3l1-2z" fill="#747474"/>
  <rect id="rect6216" x="132" y="956.36" width="18" height="18" fill="none"/>
 </g>
</svg>
