<svg id="svg6" width="18" height="18" version="1.1" xmlns="http://www.w3.org/2000/svg">
 <g id="generator_solar-18" transform="translate(-132 -902.36)">
  <path id="path6562" transform="translate(0 1028.4)" d="m141-124-0.8125 2.3438c0.26216-0.045 0.5376-0.0937 0.8125-0.0937s0.55034 0.0487 0.8125 0.0937zm-4.9375 2.0625 1.0625 2.2188c0.31627-0.44965 0.7066-0.83998 1.1562-1.1562zm9.875 0-2.2188 1.0625c0.44965 0.31627 0.83998 0.7066 1.1562 1.1562zm-4.9375 1.1875c-2.077 0-3.75 1.673-3.75 3.75s1.673 3.75 3.75 3.75 3.75-1.673 3.75-3.75-1.673-3.75-3.75-3.75zm-1 0.75h2l-1 2h3l-4 4 1-3h-2zm-3.6562 2.1875-2.3438 0.8125 2.3438 0.8125c-0.045-0.26216-0.0937-0.5376-0.0937-0.8125s0.0487-0.55034 0.0937-0.8125zm9.3125 0c0.045 0.26216 0.0937 0.5376 0.0937 0.8125s-0.0487 0.55034-0.0937 0.8125l2.3438-0.8125zm-8.5312 3.5312-1.0625 2.2188 2.2188-1.0625c-0.44965-0.31627-0.83998-0.7066-1.1562-1.1562zm7.75 0c-0.31627 0.44965-0.7066 0.83998-1.1562 1.1562l2.2188 1.0625zm-4.6875 1.9375 0.8125 2.3438 0.8125-2.3438c-0.26216 0.045-0.5376 0.0937-0.8125 0.0937s-0.55034-0.0487-0.8125-0.0937z" fill="none" opacity=".3" stroke="#fff" stroke-linejoin="round" stroke-width="2"/>
  <path id="path6526" transform="translate(0 1028.4)" d="m141-124-0.8125 2.3438c0.26216-0.045 0.5376-0.0937 0.8125-0.0937s0.55034 0.0487 0.8125 0.0937zm-4.9375 2.0625 1.0625 2.2188c0.31627-0.44965 0.7066-0.83998 1.1562-1.1562zm9.875 0-2.2188 1.0625c0.44965 0.31627 0.83998 0.7066 1.1562 1.1562zm-4.9375 1.1875c-2.077 0-3.75 1.673-3.75 3.75s1.673 3.75 3.75 3.75 3.75-1.673 3.75-3.75-1.673-3.75-3.75-3.75zm-1 0.75h2l-1 2h3l-4 4 1-3h-2zm-3.6562 2.1875-2.3438 0.8125 2.3438 0.8125c-0.045-0.26216-0.0937-0.5376-0.0937-0.8125s0.0487-0.55034 0.0937-0.8125zm9.3125 0c0.045 0.26216 0.0937 0.5376 0.0937 0.8125s-0.0487 0.55034-0.0937 0.8125l2.3438-0.8125zm-8.5312 3.5312-1.0625 2.2188 2.2188-1.0625c-0.44965-0.31627-0.83998-0.7066-1.1562-1.1562zm7.75 0c-0.31627 0.44965-0.7066 0.83998-1.1562 1.1562l2.2188 1.0625zm-4.6875 1.9375 0.8125 2.3438 0.8125-2.3438c-0.26216 0.045-0.5376 0.0937-0.8125 0.0937s-0.55034-0.0487-0.8125-0.0937z" fill="#747474"/>
  <rect id="rect6530" x="132" y="902.36" width="18" height="18" fill="none"/>
 </g>
</svg>
