<svg id="svg6" width="18" height="18" version="1.1" xmlns="http://www.w3.org/2000/svg">
 <path id="path2" d="m14.524 1.1406c-1.9182 0.6394-3.2862 1.8917-5.0937 3.6875-0.0402-0.0032-0.084 0-0.125 0-0.35086 0-0.68201 0.11067-0.9375 0.3125-1.517-0.38946-2.8187-0.6618-4.0625-0.65625-0.53445 0.0024-1.0773 0.04418-1.625 0.15625 1.438 1.2751 3.1056 1.8431 5.375 2.4688 0.16857 0.26346 0.39794 0.47128 0.6875 0.59375 3e-3 0.0097-3e-3 0.02157 0 0.03125v7.125l-1 2h3l-1-2v-4.0938c0.38185 0.89024 0.85094 1.6743 1.5 2.4062 0.4009-1.9591 0.0134-3.7351-0.625-6.1562 0.10419-0.20546 0.1875-0.4403 0.1875-0.6875 0-0.02051 8.2e-4 -0.04219 0-0.0625 1.8132-1.8237 3.0756-3.1955 3.7187-5.125z" fill="none" opacity=".3" stroke="#fff" stroke-linejoin="round" stroke-width="2"/>
 <path id="path4" d="m14.524 1.1406c-1.9182 0.6394-3.2862 1.8917-5.0937 3.6875-0.0402-0.0032-0.084 0-0.125 0-0.35086 0-0.68201 0.11067-0.9375 0.3125-1.517-0.38946-2.8187-0.6618-4.0625-0.65625-0.53445 0.0024-1.0773 0.04418-1.625 0.15625 1.438 1.2751 3.1056 1.8431 5.375 2.4688 0.16857 0.26346 0.39794 0.47128 0.6875 0.59375 3e-3 0.0097-3e-3 0.02157 0 0.03125v7.125l-1 2h3l-1-2v-4.0938c0.38185 0.89024 0.85094 1.6743 1.5 2.4062 0.4009-1.9591 0.0134-3.7351-0.625-6.1562 0.10419-0.20546 0.1875-0.4403 0.1875-0.6875 0-0.02051 8.2e-4 -0.04219 0-0.0625 1.8132-1.8237 3.0756-3.1955 3.7187-5.125z" fill="#747474"/>
</svg>
