<svg id="svg6" width="18" height="18" version="1.1" xmlns="http://www.w3.org/2000/svg">
 <g id="generator_nuclear-18" transform="translate(-132 -920.36)">
  <path id="path6513" transform="translate(0 1028.4)" d="m137.5-105.06c-2.1658 1.2504-3.5 3.5616-3.5 6.0625h4.5c0-0.92534 0.50276-1.724 1.25-2.1562zm7 0-2.25 3.9062c0.74724 0.43227 1.25 1.2309 1.25 2.1562h4.5c0-2.5009-1.3342-4.8121-3.5-6.0625zm-3.5 4.5625c-0.82843 0-1.5 0.67157-1.5 1.5s0.67157 1.5 1.5 1.5 1.5-0.67157 1.5-1.5-0.67157-1.5-1.5-1.5zm-1.25 3.6562-2.25 3.9062c2.1658 1.2504 4.8342 1.2504 7 0l-2.25-3.9062c-0.36772 0.21272-0.79463 0.34375-1.25 0.34375s-0.88228-0.13103-1.25-0.34375z" fill="none" opacity=".3" stroke="#fff" stroke-linejoin="round" stroke-width="2"/>
  <path id="path6491" transform="translate(0 1028.4)" d="m137.5-105.06c-2.1658 1.2504-3.5 3.5616-3.5 6.0625h4.5c0-0.92534 0.50276-1.724 1.25-2.1562zm7 0-2.25 3.9062c0.74724 0.43227 1.25 1.2309 1.25 2.1562h4.5c0-2.5009-1.3342-4.8121-3.5-6.0625zm-3.5 4.5625c-0.82843 0-1.5 0.67157-1.5 1.5s0.67157 1.5 1.5 1.5 1.5-0.67157 1.5-1.5-0.67157-1.5-1.5-1.5zm-1.25 3.6562-2.25 3.9062c2.1658 1.2504 4.8342 1.2504 7 0l-2.25-3.9062c-0.36772 0.21272-0.79463 0.34375-1.25 0.34375s-0.88228-0.13103-1.25-0.34375z" fill="#747474"/>
  <rect id="rect6501" transform="translate(0 1028.4)" x="132" y="-108" width="18" height="18" fill="none"/>
 </g>
</svg>
