<svg id="svg8" width="18" height="18" version="1.1" xmlns="http://www.w3.org/2000/svg">
 <path id="path2" d="m8.5 1v5.5s-3.5 0.5-3.5 2.5c0 0-1 0-1 1h10c0-1-1-1-1-1 0-2-3.5-2.5-3.5-2.5v-1.5h4.5l-1.5-1.5 1.5-1.5h-4.5v-1zm-6.5 9v1.0312h1v4.9688h-1v1h14v-1h-1v-5h1v-1zm3 1h1v5h-1zm3 0h2v4h-2zm4 0h1v5h-1z" fill="none" opacity=".3" stroke="#fff" stroke-linejoin="round" stroke-width="2"/>
 <path id="path4" d="m8.5 1v5.5s-3.5 0.5-3.5 2.5c0 0-1 0-1 1h10c0-1-1-1-1-1 0-2-3.5-2.5-3.5-2.5v-1.5h4.5l-1.5-1.5 1.5-1.5h-4.5v-1zm-6.5 10v1.0312h1v3.9688h-1v1h5v-1h4v1h5v-1h-1v-4h1v-1zm3 1h1v4h-1zm3 0h2v3h-2zm4 0h1v4h-1z" fill="none" opacity=".4" stroke="#fff" stroke-linejoin="round" stroke-width="2"/>
 <path id="path6" d="m8.5 1v5.5s-3.5 0.5-3.5 2.5c0 0-1 0-1 1h10c0-1-1-1-1-1 0-2-3.5-2.5-3.5-2.5v-1.5h4.5l-1.5-1.5 1.5-1.5h-4.5v-1zm-6.5 9v1.0312h1v4.9688h-1v1h14v-1h-1v-5h1v-1zm3 1h1v5h-1zm3 0h2v4h-2zm4 0h1v5h-1z" fill="#747474"/>
</svg>
