<svg id="svg6" width="18" height="18" version="1.1" xmlns="http://www.w3.org/2000/svg">
 <g id="grave_yard-18" transform="translate(0 -830.36)">
  <path id="rect5633-2" d="m8.9688 831.36c-1.9347 0-3.6794 1.2873-4.9688 3v10h-3v3h16v-3h-3v-10c-1.3055-1.7453-3.0787-3.0054-5.0312-3zm-0.96875 2h2v2h2v2h-2v6h-2v-6h-2v-2h2z" fill="#fff" opacity=".3" stroke="#fff" stroke-linejoin="round" stroke-width="2"/>
  <path id="rect5633" transform="translate(0 1028.4)" d="m8.9688-197c-1.9347 5e-3 -3.6794 1.2873-4.9688 3v10h-3v3h16v-3h-3v-10c-1.3055-1.7453-3.0787-3.0054-5.0312-3zm-0.96875 2h2v2h2v2h-2v6h-2v-6h-2v-2h2z" fill="#747474"/>
 </g>
</svg>
