<svg id="svg2" width="18" height="18" version="1.1" xmlns="http://www.w3.org/2000/svg">
 <g id="hairdresser-18" transform="translate(0 -938.36)">
  <g id="g6501">
   <path id="rect14752-5" d="m6 939.36v11.094c-0.41974-0.3189-0.93547-0.5313-1.5-0.5313-1.3748 0-2.5 1.1252-2.5 2.5s1.1252 2.5 2.5 2.5c1.2889 0 2.3401-0.9936 2.4688-2.25h0.03125 0.03125c0.15672 1.227 1.201 2.1875 2.4688 2.1875 1.3748 0 2.5-1.1252 2.5-2.5s-1.1252-2.5-2.5-2.5c-0.56454 0-1.0803 0.2124-1.5 0.5313v-11.031zm3.5 11.5c0.83435 0 1.5 0.6657 1.5 1.5s-0.66565 1.5-1.5 1.5-1.5-0.6657-1.5-1.5 0.66565-1.5 1.5-1.5zm-5 0.062c0.83435 0 1.5 0.6657 1.5 1.5s-0.66565 1.5-1.5 1.5-1.5-0.6657-1.5-1.5 0.66565-1.5 1.5-1.5zm5.5-11.56 8e-6 1.9995h4.0007l5e-6 0.9998h-4.0007l4e-6 0.9997h4.0007l5e-6 0.9998h-4.0007l4e-6 0.9997h4.0007l4e-6 0.9998h-4.0007l4e-6 0.9997h4.0007l-0.0016 6.9986h1.9993c-0.0058-10.793 0.0074-10.845 0.0016-14.997h-6z" fill="#fff" opacity=".3" stroke="#fff" stroke-linejoin="round" stroke-width="2"/>
   <path id="rect14752" d="m6 939.36v11.094c-0.41974-0.3189-0.93547-0.5313-1.5-0.5313-1.3748 0-2.5 1.1252-2.5 2.5s1.1252 2.5 2.5 2.5c1.2889 0 2.3401-0.9936 2.4688-2.25h0.03125 0.03125c0.15672 1.227 1.201 2.1875 2.4688 2.1875 1.3748 0 2.5-1.1252 2.5-2.5s-1.1252-2.5-2.5-2.5c-0.56454 0-1.0803 0.2124-1.5 0.5313v-11.031zm3.5 11.5c0.83435 0 1.5 0.6657 1.5 1.5s-0.66565 1.5-1.5 1.5-1.5-0.6657-1.5-1.5 0.66565-1.5 1.5-1.5zm-5 0.062c0.83435 0 1.5 0.6657 1.5 1.5s-0.66565 1.5-1.5 1.5-1.5-0.6657-1.5-1.5 0.66565-1.5 1.5-1.5zm5.5-11.56 8e-6 1.9995 4.0007-2e-3 5e-6 0.9998-4.0007 2e-3 4e-6 0.9997 4.0007-2e-3 5e-6 0.9998-4.0007 2e-3 4e-6 0.9997 4.0007-2e-3 4e-6 0.9998-4.0007 2e-3 4e-6 0.9997 4.0007-2e-3 -0.0016 6.9986h1.9993c-0.0058-10.793 0.0074-10.845 0.0016-14.997h-1.9993l-4.0007 2e-3z" fill="#747474"/>
  </g>
  <rect id="rect6575" transform="translate(0 1028.4)" y="-90" width="18" height="18" rx=".9945" ry=".032999" fill="none" opacity=".3"/>
 </g>
</svg>
