<?xml version="1.0" encoding="UTF-8" standalone="no"?>
<svg
   xmlns:dc="http://purl.org/dc/elements/1.1/"
   xmlns:cc="http://creativecommons.org/ns#"
   xmlns:rdf="http://www.w3.org/1999/02/22-rdf-syntax-ns#"
   xmlns:svg="http://www.w3.org/2000/svg"
   xmlns="http://www.w3.org/2000/svg"
   xmlns:sodipodi="http://sodipodi.sourceforge.net/DTD/sodipodi-0.dtd"
   xmlns:inkscape="http://www.inkscape.org/namespaces/inkscape"
   id="svg6"
   width="18"
   height="18"
   version="1.1"
   sodipodi:docname="hardware.svg"
   inkscape:version="0.92.2 2405546, 2018-03-11">
  <metadata
     id="metadata13">
    <rdf:RDF>
      <cc:Work
         rdf:about="">
        <dc:format>image/svg+xml</dc:format>
        <dc:type
           rdf:resource="http://purl.org/dc/dcmitype/StillImage" />
      </cc:Work>
    </rdf:RDF>
  </metadata>
  <defs
     id="defs11" />
  <sodipodi:namedview
     pagecolor="#ffffff"
     bordercolor="#666666"
     borderopacity="1"
     objecttolerance="10"
     gridtolerance="10"
     guidetolerance="10"
     inkscape:pageopacity="0"
     inkscape:pageshadow="2"
     inkscape:window-width="3840"
     inkscape:window-height="2031"
     id="namedview9"
     showgrid="false"
     inkscape:zoom="6.5555556"
     inkscape:cx="41.180542"
     inkscape:cy="-11.532572"
     inkscape:window-x="0"
     inkscape:window-y="55"
     inkscape:window-maximized="1"
     inkscape:current-layer="svg6" />
  <g
     id="hardware-18"
     transform="translate(-132 -992.36)">
    <path
       id="path4730"
       transform="translate(0 1028.4)"
       d="m135-34v3h2v1l3 1v-2h2v-3zm10 0-1 2v11l-2 2h6l-2-2v-11zm-8 5v2l3 1v-2zm0 3v2l3 1v-2zm0 3v3l1 1h1l1-1v-2z"
       fill="none"
       opacity=".3"
       stroke="#fff"
       stroke-linejoin="round"
       stroke-width="2" />
    <path
       id="path4488"
       transform="translate(0 1028.4)"
       d="m135-34v3h2v1l3 1v-2h2v-3zm10 0-1 2v11l-2 2h6l-2-2v-11zm-8 5v2l3 1v-2zm0 3v2l3 1v-2zm0 3v3l1 1h1l1-1v-2z"
       fill="#747474" />
    <rect
       id="rect4500"
       x="132"
       y="992.36"
       width="18"
       height="18"
       fill="none" />
  </g>
</svg>
