<svg id="svg6" width="18" height="18" version="1.1" xmlns="http://www.w3.org/2000/svg">
 <path id="path2" d="m7.645 3.5819s2.5668 2.9751 5.3116 0.26817c0.16519 0.68955 1.1436 2.1323 1.1436 2.1323s-4.6762 2.6814-6.4552-2.4005zm-5.2464 2.3242c0.40734 0.71025 0.81467 1.4205 1.222 2.1307 0.67337-0.84862 1.6988-1.5575 2.8047-1.5313 0.64525 0.0151 1.2817 0.74687 1.126 1.349-0.27541 1.0649-1.5629 0.93038-2.4574 1.0715 0 0 0.23983 1.1648 0.35975 1.7472 1.4981-0.29017 2.4048 0.9875 2.0386 1.8245-0.69394 1.5859-4.7751 1.4392-6.4939-1.5086 3e-3 1.6664 0.63915 3.4661 2.121 4.3573 1.538 0.91887 3.7631 0.9006 5.0452-0.36384 0.90012-0.88778 0.95426-2.3544 0.72149-3.5691 0.5952 0.63354 1.6856 1.2071 2.4229 0.57056 1.0341-0.89282 1.4252-2.726 2.8165-3.0089 2.6311-0.53502 2.2455 3.6616 1.0966 4.5746-1.5171 1.2055-4.2683 0.29684-4.9882-1.0347 0.20999 2.3294 2.4332 3.6854 4.3707 2.9741 2.5233-1.1618 2.7869-4.322 2.0019-6.4908-0.77818-1.5985-2.4277-2.4006-4.0081-1.9008-1.2207 0.38605-1.6823 1.7167-2.4032 2.6703-0.3765 0.46166-0.73954 1.1042-1.4569 0.88354-0.97782-0.30076-0.67413-0.83267-1.4342-1.076 1.415-1.0323 1.7503-3.0216 0.54364-4.0867-1.5861-1.4001-4.1234-0.69642-5.449 0.41744zm6.8135-2.6025 1.3077-1.3141 1.3214 1.3278-1.3078 1.3141z" fill="#747474" opacity=".3" stroke="#fff" stroke-linejoin="round" stroke-width="2"/>
 <path id="path4" d="m7.6467 3.5923s2.5668 2.9751 5.3116 0.26817c0.16519 0.68955 1.1436 2.1323 1.1436 2.1323s-4.6762 2.6814-6.4552-2.4005zm-5.2464 2.3242c0.40734 0.71025 0.81467 1.4205 1.222 2.1307 0.67337-0.84862 1.6988-1.5575 2.8047-1.5313 0.64525 0.0151 1.2817 0.74687 1.126 1.349-0.27541 1.0649-1.5629 0.93038-2.4574 1.0715 0 0 0.23983 1.1648 0.35975 1.7472 1.4981-0.29017 2.4048 0.9875 2.0386 1.8245-0.69394 1.5859-4.7751 1.4392-6.4939-1.5086 3e-3 1.6664 0.63915 3.4661 2.121 4.3573 1.538 0.91887 3.7631 0.9006 5.0452-0.36384 0.90012-0.88778 0.95426-2.3544 0.72149-3.5691 0.5952 0.63354 1.6856 1.2071 2.4229 0.57056 1.0341-0.89282 1.4252-2.726 2.8165-3.0089 2.6311-0.53502 2.2455 3.6616 1.0966 4.5746-1.5171 1.2055-4.2683 0.29684-4.9882-1.0347 0.20999 2.3294 2.4332 3.6854 4.3707 2.9741 2.5233-1.1618 2.7869-4.322 2.0019-6.4908-0.77818-1.5985-2.4277-2.4006-4.0081-1.9008-1.2207 0.38605-1.6823 1.7167-2.4032 2.6703-0.3765 0.46166-0.73954 1.1042-1.4569 0.88354-0.97782-0.30076-0.67413-0.83267-1.4342-1.076 1.415-1.0323 1.7503-3.0216 0.54364-4.0867-1.5861-1.4001-4.1234-0.69642-5.449 0.41744zm6.8135-2.6025 1.3077-1.3141 1.3214 1.3278-1.3078 1.3141z" fill="#747474"/>
</svg>
