<!-- Created with Inkscape (http://www.inkscape.org/) -->
<svg id="svg5369" width="18" height="18" version="1.1" xmlns="http://www.w3.org/2000/svg">
 <g id="layer1" transform="translate(3.0518e-5 -884.36)">
  <g id="hotel-18" transform="translate(-186,-214)">
   <g id="g21721">
    <path id="path17345" d="m190.5 1102.1c-0.82842 0-1.5 0.6715-1.5 1.5 0 0.8284 0.67157 1.4999 1.5 1.4999 0.82843 0 1.5-0.6715 1.5-1.4999 0-0.8285-0.67156-1.5-1.5-1.5zm2.5 1.2499c0 2-1 3-2.5 3h-1c-0.5 0-0.5 0.5-0.5 0.5s0 0.5 0.5 0.5h12.5v-1.7501c0-0.75 0-2.2499-3.75-2.2499zm-3.25 5c-0.375 0-0.75 0.375-0.75 0.75-1.8e-4 0.743 0 0.8584 0 1.5 0 0.375 0.375 0.75 0.75 0.75s0.74999-0.375 0.74999-0.75l2e-5 -1.25h10l-2e-5 1.25c-1e-5 0.375 0.375 0.75 0.75 0.75s0.74999-0.375 0.74999-0.75v-1.5c0-0.375-0.37499-0.75-0.74999-0.75z" color="#000000" fill="none" opacity=".3" stroke="#fff" stroke-linecap="round" stroke-linejoin="round" stroke-width="2"/>
    <path id="path4536-7" d="m190.5 1102.1c-0.82842 0-1.5 0.6715-1.5 1.5 0 0.8284 0.67157 1.4999 1.5 1.4999 0.82843 0 1.5-0.6715 1.5-1.4999 0-0.8285-0.67156-1.5-1.5-1.5zm2.5 1.2499c0 2-1 3-2.5 3h-1c-0.5 0-0.5 0.5-0.5 0.5s0 0.5 0.5 0.5h12.5v-1.7501c0-0.75 0-2.2499-3.75-2.2499zm-3.25 5c-0.375 0-0.75 0.375-0.75 0.75-1.8e-4 0.743 0 0.8584 0 1.5 0 0.375 0.375 0.75 0.75 0.75s0.74999-0.375 0.74999-0.75l2e-5 -1.25h10l-2e-5 1.25c-1e-5 0.375 0.375 0.75 0.75 0.75s0.74999-0.375 0.74999-0.75v-1.5c0-0.375-0.37499-0.75-0.74999-0.75z" color="#000000" fill="#747474"/>
   </g>
   <rect id="rect22196" x="186" y="1098.4" width="18" height="18" color="#000000" fill="none" opacity=".5"/>
  </g>
 </g>
</svg>
