<svg id="svg6" width="18" height="18" version="1.1" xmlns="http://www.w3.org/2000/svg">
 <path id="path2" d="m9 3c-3.3137 0-6 2.6863-6 6 0 3.3137 2.6863 6 6 6 3.3137 0 6-2.6863 6-6 0-3.3137-2.6863-6-6-6zm-1 2h2v2h-2zm-1 3h3v4h1v1h-4v-1h1v-3h-1z" fill="none" opacity=".3" stroke="#fff" stroke-linejoin="round" stroke-width="2"/>
 <path id="path4" d="m9 3c-3.3137 0-6 2.6863-6 6 0 3.3137 2.6863 6 6 6 3.3137 0 6-2.6863 6-6 0-3.3137-2.6863-6-6-6zm-1 2h2v2h-2zm-1 3h3v4h1v1h-4v-1h1v-3h-1z" fill="#747474"/>
 <g id="information-18" transform="translate(0 -776.36)">
  <path id="path6421" transform="translate(0 1028.4)" d="m9-249c-3.3137 0-6 2.6863-6 6 0 3.3137 2.6863 6 6 6 3.3137 0 6-2.6863 6-6 0-3.3137-2.6863-6-6-6zm-1 2h2v2h-2zm-1 3h3v4h1v1h-4v-1h1v-3h-1z" fill="none" opacity=".3" stroke="#fff" stroke-linejoin="round" stroke-width="2"/>
  <path id="path6408" transform="translate(0 1028.4)" d="m9-249c-3.3137 0-6 2.6863-6 6 0 3.3137 2.6863 6 6 6 3.3137 0 6-2.6863 6-6 0-3.3137-2.6863-6-6-6zm-1 2h2v2h-2zm-1 3h3v4h1v1h-4v-1h1v-3h-1z" fill="#747474"/>
  <rect id="rect6423" transform="translate(0 1028.4)" y="-252" width="18" height="18" fill="none" opacity=".3"/>
 </g>
</svg>
