<svg id="svg4" width="18" height="18" version="1.1" xmlns="http://www.w3.org/2000/svg">
 <g id="kindergarten-18" transform="translate(-36 -974.36)">
  <path id="path6235" d="m44.627 977.62"/>
  <g id="g6304">
   <path id="path6300" d="m42.62 985.5 1.7966 1.7965-1.3154 1.3154 1.352 1.3523c0.79471 0.79632-0.30496 1.9366-1.1256 1.1163l-2.1416-2.2232c-0.45712-0.47023-0.58384-1.3344-0.09056-1.8238 0-4e-3 1.5245-1.5334 1.5245-1.5334zm2.38-0.88928h-2.3542v-1.7336l-2.145 1.8422c-0.88116 0.8264-2.074-0.23168-1.1901-1.0616l3.2218-3.0309c0.26307-0.24127 0.54934-0.39615 1.0064-0.39951h2.8931c0.45141 3e-3 0.75781 0.1536 1.0255 0.39951l3.2607 3.067c0.83885 0.78335-0.38624 1.8517-1.1901 1.0525l-2.2032-1.8782v1.7424h-2.3248zm-8.2e-5 -4.728c1.2474-2e-3 2.2593-1.0128 2.2593-2.2593 0-1.2502-1.0118-2.2619-2.2593-2.2592-1.249-3e-3 -2.2606 1.009-2.2597 2.2592-9.25e-4 1.2466 1.0107 2.2581 2.2597 2.2593zm2.3748 5.6172-1.7963 1.7965 1.3245 1.3154-1.3517 1.3523c-0.80016 0.79632 0.29968 1.9366 1.1246 1.1163l2.1325-2.2232c0.46192-0.47023 0.58848-1.3344 0.10016-1.8238-0.0049-4e-3 -1.5338-1.5334-1.5338-1.5334z" fill="#fff" opacity=".3" stroke="#fff" stroke-linejoin="round" stroke-width="2"/>
   <path id="path6241" d="m42.62 985.5 1.7966 1.7965-1.3154 1.3154 1.352 1.3523c0.79471 0.79632-0.30496 1.9366-1.1256 1.1163l-2.1416-2.2232c-0.45712-0.47023-0.58384-1.3344-0.09056-1.8238 0-4e-3 1.5245-1.5334 1.5245-1.5334zm2.38-0.88928h-2.3542v-1.7336l-2.145 1.8422c-0.88116 0.8264-2.074-0.23168-1.1901-1.0616l3.2218-3.0309c0.26307-0.24127 0.54934-0.39615 1.0064-0.39951h2.8931c0.45141 3e-3 0.75781 0.1536 1.0255 0.39951l3.2607 3.067c0.83885 0.78335-0.38624 1.8517-1.1901 1.0525l-2.2032-1.8782v1.7424h-2.3248zm-8.2e-5 -4.728c1.2474-2e-3 2.2593-1.0128 2.2593-2.2593 0-1.2502-1.0118-2.2619-2.2593-2.2592-1.249-3e-3 -2.2606 1.009-2.2597 2.2592-9.25e-4 1.2466 1.0107 2.2581 2.2597 2.2593zm2.3748 5.6172-1.7963 1.7965 1.3245 1.3154-1.3517 1.3523c-0.80016 0.79632 0.29968 1.9366 1.1246 1.1163l2.1325-2.2232c0.46192-0.47023 0.58848-1.3344 0.10016-1.8238-0.0049-4e-3 -1.5338-1.5334-1.5338-1.5334z" fill="#747474"/>
  </g>
  <rect id="rect6308" transform="translate(0 1028.4)" x="36" y="-54" width="18" height="18" fill="none" opacity=".3"/>
 </g>
</svg>
