<!-- Created with Inkscape (http://www.inkscape.org/) -->
<svg id="svg5369" width="18" height="18" version="1.1" xmlns="http://www.w3.org/2000/svg">
 <g id="layer1" transform="translate(-66 -920.36)">
  <g id="library-18" transform="translate(-198,-178)">
   <g id="g21636" transform="translate(1,-1)">
    <path id="path14152" d="m266 1103.7v7.6471c2 2.5 5 1.4706 5 3h1v-6.8824c0-2.2941-3-1.6176-6-3.7647zm13 0c-3 2.1471-6 1.4706-6 3.7647v6.8824h1c0-1.5294 3-0.5 5-3z" color="#000000" fill="none" opacity=".3" stroke="#fff" stroke-linecap="round" stroke-linejoin="round" stroke-width="2"/>
    <path id="path7994-9-9-2-1" d="m266 1103.7v7.6471c2 2.5 5 1.4706 5 3h1v-6.8824c0-2.2941-3-1.6176-6-3.7647zm13 0c-3 2.1471-6 1.4706-6 3.7647v6.8824h1c0-1.5294 3-0.5 5-3z" color="#000000" fill="#747474"/>
   </g>
   <rect id="rect22296" x="264" y="1098.4" width="18" height="18" color="#000000" fill="none" opacity=".5"/>
  </g>
 </g>
</svg>
