<svg id="svg10" width="18" height="18" version="1.1" xmlns="http://www.w3.org/2000/svg">
 <path id="path2" d="m11 3h-2v-2h-2v2c-1.1185 0.0818-2 0.90528-2 2v10c0 1.1488 0.80333 2 2 2h4c1.1967 0 2-0.8512 2-2v-10c0-1.1488-0.80333-2-2-2zm1 9h-6v-7h6z" fill="#fff" opacity=".3" stroke="#fff" stroke-linejoin="round" stroke-width="2"/>
 <path id="path4" d="m11 3h-2v-2h-2v2c-1.1185 0.0818-2 0.90528-2 2v10c0 1.1488 0.80333 2 2 2h4c1.1967 0 2-0.8512 2-2v-10c0-1.1488-0.80333-2-2-2zm1 9h-6v-7h6z" fill="#747474"/>
 <path id="path6" d="m11 3h-2v-2h-2v2c-1.1185 0.0818-2 0.90528-2 2v10c0 1.1488 0.80333 2 2 2h4c1.1967 0 2-0.8512 2-2v-10c0-1.1488-0.80333-2-2-2zm1 9h-6v-7h6z" fill="#fff" opacity=".3" stroke="#fff" stroke-linejoin="round" stroke-width="2"/>
 <path id="path8" d="m11 3h-2v-2h-2v2c-1.1185 0.0818-2 0.90528-2 2v10c0 1.1488 0.80333 2 2 2h4c1.1967 0 2-0.8512 2-2v-10c0-1.1488-0.80333-2-2-2zm1 9h-6v-7h6z" fill="#747474"/>
</svg>
