<svg id="svg6" width="18" height="18" version="1.1" xmlns="http://www.w3.org/2000/svg">
 <g id="money_transfer-18" transform="translate(-72 -1010.4)">
  <path id="path8531" transform="translate(0 1028.4)" d="m74-15v12h11l-4-6 4-6zm11 0v12l4-6zm-8 2h2v1c0.30464 0.3836 0.83184 0.6848 1 1.125v0.875c-0.38366-0.3046-0.68481-0.8319-1.125-1h-1.875l3 3v1c-0.30464 0.3836-0.83184 0.6848-1 1.125v0.875h-2v-1c-0.30464-0.3836-0.83184-0.6848-1-1.125v-0.875c0.38366 0.3046 0.68481 0.8319 1.125 1h1.875l-3-3v-1c0.30464-0.3836 0.83184-0.6848 1-1.125z" fill="none" opacity=".3" stroke="#fff" stroke-linejoin="round" stroke-width="2"/>
  <path id="path4505" transform="translate(0 1028.4)" d="m74-15v12h11l-4-6 4-6zm11 0v12l4-6zm-8 2h2v1c0.30464 0.3836 0.83184 0.6848 1 1.125v0.875c-0.38366-0.3046-0.68481-0.8319-1.125-1h-1.875v1l2 1 1 1v1c-0.30464 0.3836-0.83184 0.6848-1 1.125v0.875h-2v-1c-0.30464-0.3836-0.83184-0.6848-1-1.125v-0.875c0.38366 0.3046 0.68481 0.8319 1.125 1h1.875v-1l-2-1-1-1v-1c0.30464-0.3836 0.83184-0.6848 1-1.125z" fill="#747474"/>
  <rect id="rect4540" x="72" y="1010.4" width="18" height="18" fill="none" opacity=".3"/>
 </g>
</svg>
