<svg id="svg6" width="18" height="18" version="1.1" xmlns="http://www.w3.org/2000/svg">
 <g id="motorcycle-18" transform="translate(-132 -884.36)">
  <rect id="rect5663" transform="translate(0 1028.4)" x="132" y="-144" width="18" height="18" fill="none" opacity=".3"/>
  <path id="path6228" d="m139 887.36-4 4v2h1.5l-0.53125 1.0625c-0.15299-0.0296-0.30748-0.0625-0.46875-0.0625-1.3748 0-2.5 1.1252-2.5 2.5s1.1252 2.5 2.5 2.5 2.5-1.1252 2.5-2.5c0-0.72861-0.34201-1.3544-0.84375-1.8125l0.84375-1.6875c1.3848 3.955 2.8595 4.0957 5.9688 4.0312 0.24534 1.1219 1.2761 1.9688 2.4688 1.9688 1.3748 0 2.5-1.1252 2.5-2.5 0-0.67107-0.28439-1.2684-0.71875-1.7188l0.78125-0.78125v-1h-6c-1.5817-2.0842-2.5445-2-5-2zm-3.5 8-0.5 1 1 1 0.6875-1.4062c0.19227 0.2521 0.3125 0.56147 0.3125 0.90625 0 0.83435-0.66565 1.5-1.5 1.5s-1.5-0.66565-1.5-1.5 0.66565-1.5 1.5-1.5zm12.031 0.46875c0.2526 0.26794 0.40625 0.63003 0.40625 1.0312 0 0.83435-0.66565 1.5-1.5 1.5-0.66135 0-1.2356-0.41105-1.4375-1 0.34976-7e-3 0.60994 0 1 0z" color="#000000" fill="none" opacity=".3" stroke="#fff" stroke-linejoin="round" stroke-width="2" style="text-decoration-line:none;text-indent:0;text-transform:none"/>
  <path id="path6209" d="m139 887.36-4 4v2h1.5l-0.53125 1.0625c-0.15299-0.0296-0.30748-0.0625-0.46875-0.0625-1.3748 0-2.5 1.1252-2.5 2.5s1.1252 2.5 2.5 2.5 2.5-1.1252 2.5-2.5c0-0.72861-0.34201-1.3544-0.84375-1.8125l0.84375-1.6875c1.3848 3.955 2.8595 4.0957 5.9688 4.0312 0.24534 1.1219 1.2761 1.9688 2.4688 1.9688 1.3748 0 2.5-1.1252 2.5-2.5 0-0.67107-0.28439-1.2684-0.71875-1.7188l0.78125-0.78125v-1h-6c-1.5817-2.0842-2.5445-2-5-2zm-3.5 8-0.5 1 1 1 0.6875-1.4062c0.19227 0.2521 0.3125 0.56147 0.3125 0.90625 0 0.83435-0.66565 1.5-1.5 1.5s-1.5-0.66565-1.5-1.5 0.66565-1.5 1.5-1.5zm12.031 0.46875c0.2526 0.26794 0.40625 0.63003 0.40625 1.0312 0 0.83435-0.66565 1.5-1.5 1.5-0.66135 0-1.2356-0.41105-1.4375-1 0.34976-7e-3 0.60994 0 1 0z" color="#000000" fill="#747474" style="text-decoration-line:none;text-indent:0;text-transform:none"/>
 </g>
</svg>
