<!-- Created with Inkscape (http://www.inkscape.org/) -->
<svg id="svg5369" width="18" height="18" version="1.1" xmlns="http://www.w3.org/2000/svg">
 <g id="layer1" transform="translate(-66 -884.36)">
  <g id="museum-18" transform="translate(-120,-238)">
   <g id="g21709" transform="translate(-1,-1)">
    <path id="path14372" d="m201 1129.4-4.5-3-4.5 3v1.9445 5.0555l-1 1.5c0 0.3611 0.23397 0.5 0.5 0.5h10c0.25638 0 0.5-0.1389 0.5-0.5l-1-1.5v-5.0555z" color="#000000" fill="#fff" opacity=".3" stroke="#fff" stroke-linecap="round" stroke-linejoin="round" stroke-width="2"/>
    <path id="rect7645-6-5-0-1" d="m196.5 1126.4-4.5 3h9zm-3.5 4c-0.5 0-1 0.5-1 0.9445v5.0555l-1 1.5c0 0.3611 0.23397 0.5 0.5 0.5h10c0.25638 0 0.5-0.1389 0.5-0.5l-1-1.5v-5.0555c0-0.4445-0.5-0.9445-1-0.9445zm2 1.5c0.5 0 0.5 0 1 1l0.5 1 0.5-1c0.5-1 0.5-1 1-1s1 0.5 1 1v3.5c0 0.3611-0.13889 0.5-0.5 0.5s-0.5-0.1389-0.5-0.5v-2.8889l-1 1.8889c-0.2647 0.5-0.7353 0.5-1 0l-1-1.8889v2.8889c0 0.3611-0.13889 0.5-0.5 0.5s-0.50005-0.1389-0.50005-0.5v-0.7222l5e-5 -2.7778c1e-5 -0.5 0.5-1 1-1z" color="#000000" fill="#747474"/>
   </g>
   <rect id="rect22244" x="186" y="1122.4" width="18" height="18" color="#000000" fill="none" opacity=".5"/>
  </g>
 </g>
</svg>
