<!-- Created with Inkscape (http://www.inkscape.org/) -->
<svg id="svg5369" width="18" height="18" version="1.1" xmlns="http://www.w3.org/2000/svg">
 <g id="layer1" transform="translate(-66 -992.36)">
  <g id="muslim-18" transform="translate(36 -82)">
   <g id="g21852">
    <path id="path16930" d="m40 1077.4c-3.3904 0-6 2.6096-6 6s2.6096 6 6 6c1.8957 0 3.8739-0.6497 5-2-0.7358 0.479-2.0566 1-3 1-2.5927 0-4.5278-2.5462-4.5278-5.1389s1.9351-4.8611 4.5278-4.8611c0.9434 0 2.2642 0.5211 3 1-1.1261-1.3502-3.1043-2-5-2zm3.6111 2.6111-0.72222 2.3889h-2.8889l2.5278 1.2222-1.5278 2.7778 2.6111-1.6944 2.3889 1.6944-1.3056-2.7778 2.3056-1.2222h-2.6667z" color="#000000" fill="#fff" opacity=".3" stroke="#fff" stroke-linejoin="round" stroke-width="2"/>
    <path id="path7552-2-1" d="m40 1077.4c-3.3904 0-6 2.6096-6 6s2.6096 6 6 6c1.8957 0 3.8739-0.6497 5-2-0.7358 0.479-2.0566 1-3 1-2.5927 0-4.5278-2.5462-4.5278-5.1389s1.9351-4.8611 4.5278-4.8611c0.9434 0 2.2642 0.5211 3 1-1.1261-1.3502-3.1043-2-5-2zm3.6111 2.6111-0.72222 2.3889h-2.8889l2.5278 1.2222-1.5278 2.7778 2.6111-1.6944 2.3889 1.6944-1.3056-2.7778 2.3056-1.2222h-2.6667z" color="#000000" fill="#747474"/>
   </g>
   <rect id="rect22083-8" x="30" y="1074.4" width="18" height="18" color="#000000" fill="none" opacity=".5"/>
  </g>
 </g>
</svg>
