<svg id="svg2" width="18" height="18" version="1.1" xmlns="http://www.w3.org/2000/svg">
 <g id="ngo-18" transform="translate(-36 -992.36)">
  <g id="g4287" transform="translate(1)" fill="#fff" opacity=".3" stroke="#fff" stroke-linejoin="round" stroke-width="2">
   <g id="g4289" fill="#fff" stroke="#fff" stroke-linejoin="round" stroke-width="2">
    <path id="path4291" transform="translate(-1 1028.4)" d="m44-35v6h-3v1h-3v9h5v-1h4v1h5v-9h-3v-1h-4v-2h4l-2-1.5 2-1.5h-4l0.03125-1zm0.9375 9.0312c0.47504 0 0.8562 0.08225 1.125 0.28125 0.26672 0.2 0.42304 0.49155 0.5 0.84375l-0.75 0.125c-0.05424-0.1887-0.16258-0.3283-0.3125-0.4375-0.14784-0.1084-0.33946-0.15625-0.5625-0.15625-0.33744 0-0.61458 0.0978-0.8125 0.3125-0.20208 0.2135-0.28125 0.54685-0.28125 0.96875 0 0.4552 0.11042 0.7739 0.3125 1 0.20208 0.2282 0.45213 0.34375 0.78125 0.34375 0.16048 0 0.33552-0.02875 0.5-0.09375 0.16256-0.062 0.28961-0.12915 0.40625-0.21875v-0.5h-0.875v-0.625h1.6562v1.5312c-0.16256 0.1573-0.41251 0.28745-0.71875 0.40625-0.30832 0.1187-0.59169 0.1875-0.90625 0.1875-0.4 0-0.76458-0.081-1.0625-0.25-0.29792-0.1677-0.50633-0.4375-0.65625-0.75-0.14992-0.3125-0.25-0.6332-0.25-1 0-0.4 0.08344-0.7521 0.25-1.0625 0.16672-0.3104 0.42712-0.55305 0.75-0.71875 0.24592-0.127 0.53969-0.1875 0.90625-0.1875zm4.0938 0c0.56464 0 1.0353 0.18135 1.375 0.53125 0.33744 0.3511 0.5 0.8134 0.5 1.4375-1.6e-4 0.6188-0.16256 1.1198-0.5 1.4688-0.33552 0.3501-0.81244 0.53125-1.375 0.53125-0.57072 0-1.0086-0.18215-1.3438-0.53125-0.33744-0.3469-0.5-0.8281-0.5-1.4375 0-0.3906 0.03961-0.7353 0.15625-1 0.08752-0.1947 0.223-0.3448 0.375-0.5 0.15008-0.1552 0.3208-0.26885 0.5-0.34375 0.23952-0.1022 0.50002-0.15625 0.8125-0.15625zm-9.7188 0.0625h0.75l1.5625 2.5625v-2.5625h0.71875v3.8125h-0.75l-1.5625-2.4688v2.4688h-0.71875zm9.7188 0.59375c-0.31872 0-0.55624 0.0949-0.75 0.3125-0.19584 0.2198-0.3125 0.5584-0.3125 1 0 0.4333 0.1125 0.7771 0.3125 1 0.2 0.2249 0.44152 0.3125 0.75 0.3125 0.30832 0 0.58333-0.0915 0.78125-0.3125 0.19792-0.2228 0.28125-0.5563 0.28125-1 0-0.4395-0.08941-0.7843-0.28125-1-0.1936-0.2155-0.46237-0.3125-0.78125-0.3125z" fill="#fff" stroke="#fff" stroke-linejoin="round" stroke-width="2"/>
   </g>
  </g>
  <g id="g3511" transform="translate(1)" fill="#4d4d4d">
   <g id="g3506" fill="#4d4d4d">
    <path id="path3462" transform="translate(-1 1028.4)" d="m44-35v6h-3v1h-3v9h5v-1h4v1h5v-9h-3v-1h-4v-2h4l-2-1.5 2-1.5h-4l0.03125-1zm0.9375 9.0312c0.47504 0 0.8562 0.08225 1.125 0.28125 0.26672 0.2 0.42304 0.49155 0.5 0.84375l-0.75 0.125c-0.05424-0.1887-0.16258-0.3283-0.3125-0.4375-0.14784-0.1084-0.33946-0.15625-0.5625-0.15625-0.33744 0-0.61458 0.0978-0.8125 0.3125-0.20208 0.2135-0.28125 0.54685-0.28125 0.96875 0 0.4552 0.11042 0.7739 0.3125 1 0.20208 0.2282 0.45213 0.34375 0.78125 0.34375 0.16048 0 0.33552-0.02875 0.5-0.09375 0.16256-0.062 0.28961-0.12915 0.40625-0.21875v-0.5h-0.875v-0.625h1.6562v1.5312c-0.16256 0.1573-0.41251 0.28745-0.71875 0.40625-0.30832 0.1187-0.59169 0.1875-0.90625 0.1875-0.4 0-0.76458-0.081-1.0625-0.25-0.29792-0.1677-0.50633-0.4375-0.65625-0.75-0.14992-0.3125-0.25-0.6332-0.25-1 0-0.4 0.08344-0.7521 0.25-1.0625 0.16672-0.3104 0.42712-0.55305 0.75-0.71875 0.24592-0.127 0.53969-0.1875 0.90625-0.1875zm4.0938 0c0.56464 0 1.0353 0.18135 1.375 0.53125 0.33744 0.3511 0.5 0.8134 0.5 1.4375-1.6e-4 0.6188-0.16256 1.1198-0.5 1.4688-0.33552 0.3501-0.81244 0.53125-1.375 0.53125-0.57072 0-1.0086-0.18215-1.3438-0.53125-0.33744-0.3469-0.5-0.8281-0.5-1.4375 0-0.3906 0.03961-0.7353 0.15625-1 0.08752-0.1947 0.223-0.3448 0.375-0.5 0.15008-0.1552 0.3208-0.26885 0.5-0.34375 0.23952-0.1022 0.50002-0.15625 0.8125-0.15625zm-9.7188 0.0625h0.75l1.5625 2.5625v-2.5625h0.71875v3.8125h-0.75l-1.5625-2.4688v2.4688h-0.71875zm9.7188 0.59375c-0.31872 0-0.55624 0.0949-0.75 0.3125-0.19584 0.2198-0.3125 0.5584-0.3125 1 0 0.4333 0.1125 0.7771 0.3125 1 0.2 0.2249 0.44152 0.3125 0.75 0.3125 0.30832 0 0.58333-0.0915 0.78125-0.3125 0.19792-0.2228 0.28125-0.5563 0.28125-1 0-0.4395-0.08941-0.7843-0.28125-1-0.1936-0.2155-0.46237-0.3125-0.78125-0.3125z" fill="#747474"/>
   </g>
  </g>
  <rect id="rect4293" transform="translate(0 1028.4)" x="36" y="-36" width="18" height="18" fill="none" opacity=".3"/>
 </g>
</svg>
