<svg id="svg6" width="18" height="18" version="1.1" xmlns="http://www.w3.org/2000/svg">
 <path id="path2" d="m6.998 4-0.9989 1.9982h-1.9978c-0.9989 0-1.9978 0.99911-1.9978 1.9982 0.0038 2.1524-0.00959 2.0624 0 3.9964 0 0.99912 0.9989 1.9982 1.9978 1.9982 3.8656 0 6.1237 0.02 9.989 0 0.9989 0 1.9978-0.99911 1.9978-1.9982 0.03117-6.6504-0.01016-1.7495 0-3.9964 0-0.99912-0.9989-1.9982-1.9978-1.9982h-1.9978l-0.9989-1.9982zm1.9978 2.9973c1.3792 0 2.4973 1.1183 2.4973 2.4978 0 1.3795-1.1181 2.4978-2.4973 2.4978-1.3792 0-2.4973-1.1183-2.4973-2.4978 0-1.3795 1.1181-2.4978 2.4973-2.4978z" fill="none" opacity=".3" stroke="#fff" stroke-linejoin="round" stroke-width="2"/>
 <path id="path4" d="m6.998 4-0.9989 1.9982h-1.9978c-0.9989 0-1.9978 0.99911-1.9978 1.9982 0.0038 2.1524-0.00959 2.0624 0 3.9964 0 0.99912 0.9989 1.9982 1.9978 1.9982 3.8656 0 6.1237 0.02 9.989 0 0.9989 0 1.9978-0.99911 1.9978-1.9982 0.03117-6.6504-0.01016-1.7495 0-3.9964 0-0.99912-0.9989-1.9982-1.9978-1.9982h-1.9978l-0.9989-1.9982zm1.9978 2.9973c1.3792 0 2.4973 1.1183 2.4973 2.4978 0 1.3795-1.1181 2.4978-2.4973 2.4978-1.3792 0-2.4973-1.1183-2.4973-2.4978 0-1.3795 1.1181-2.4978 2.4973-2.4978z" fill="#747474"/>
</svg>
