<svg id="svg6" width="18" height="18" version="1.1" xmlns="http://www.w3.org/2000/svg">
 <g id="playground-18" transform="translate(-102 -794.36)">
  <path id="path4979" transform="translate(0 1028.4)" d="m116-233c-0.82842 0-1.5 0.67158-1.5 1.5 0 0.64548 0.39681 1.1947 0.96875 1.4062l-1.3438 4.6562-6.5 3.5-1.25-3.125c0.64946-0.1648 1.125-0.73679 1.125-1.4375 0-0.82843-0.67157-1.5-1.5-1.5s-1.5 0.67157-1.5 1.5c0 0.72488 0.50398 1.3289 1.1875 1.4688l-1.6875 5.0312 1 1 6.7812-3.6562-0.78125 4.6562h3l-0.90625-5.375 4.9062-2.625-1.375-4.125c0.52408-0.23387 0.875-0.76404 0.875-1.375 0-0.82842-0.67158-1.5-1.5-1.5z" fill="none" opacity=".3" stroke="#fff" stroke-linejoin="round" stroke-width="2"/>
  <path id="path4949" transform="translate(0 1028.4)" d="m116-233c-0.82842 0-1.5 0.67158-1.5 1.5 0 0.64548 0.39681 1.1947 0.96875 1.4062l-1.3438 4.6562-6.5 3.5-1.25-3.125c0.64946-0.1648 1.125-0.73679 1.125-1.4375 0-0.82843-0.67157-1.5-1.5-1.5s-1.5 0.67157-1.5 1.5c0 0.72488 0.50398 1.3289 1.1875 1.4688l-1.6875 5.0312 1 1 6.7812-3.6562-0.78125 4.6562h3l-0.90625-5.375 4.9062-2.625-1.375-4.125c0.52408-0.23387 0.875-0.76404 0.875-1.375 0-0.82842-0.67158-1.5-1.5-1.5z" fill="#747474"/>
  <rect id="rect4981" transform="translate(0 1028.4)" x="102" y="-234" width="18" height="18" fill="none" opacity=".3"/>
 </g>
</svg>
