<!-- Created with Inkscape (http://www.inkscape.org/) -->
<svg id="svg5369" width="18" height="18" version="1.1" xmlns="http://www.w3.org/2000/svg">
 <g id="layer1" transform="translate(3.0518e-5 -938.36)">
  <g id="police-18" transform="translate(-420,-184)">
   <g id="g21530" transform="translate(-2)">
    <path id="path15835" d="m430 1124.9-1 0.5v1h5v-1l-1-0.5zm-1 2.5c-0.0333 0.1627 0 0.3274 0 0.5 0 1.3807 1.1193 2.5 2.5 2.5s2.5-1.1193 2.5-2.5v-0.5zm0 4c-1.0833 0-1.9858 1.7917-2 2.875v4.125h1.5312l4.4688-7zm5.5 0-4.4688 7h5.9688v-4.125c0-1.0834-0.41666-2.875-1.5-2.875z" color="#000000" fill="#fff" opacity=".3" stroke="#fff" stroke-linecap="round" stroke-linejoin="round" stroke-width="2"/>
    <path id="rect7805-5-4" d="m430 1124.9-1 0.5v1h5v-1l-1-0.5zm-1 2.5c-0.0333 0.1627 0 0.3274 0 0.5 0 1.3807 1.1193 2.5 2.5 2.5s2.5-1.1193 2.5-2.5v-0.5zm0 4c-1.0833 0-1.9858 1.7917-2 2.875v4.125h1.5312l4.4688-7zm5.5 0-4.4688 7h5.9688v-4.125c0-1.0834-0.41666-2.875-1.5-2.875z" color="#000000" fill="#747474"/>
   </g>
   <rect id="rect22302-3" x="420" y="1122.4" width="18" height="18" color="#000000" fill="none" opacity=".5"/>
  </g>
 </g>
</svg>
