<!-- Created with Inkscape (http://www.inkscape.org/) -->
<svg id="svg5369" width="18" height="18" version="1.1" xmlns="http://www.w3.org/2000/svg">
 <g id="layer1" transform="translate(-36 -938.36)">
  <g id="post_office-18" transform="translate(-384,-112)">
   <g id="g21494" transform="translate(0,-3)">
    <path id="path15519" d="m424 1057.4c-0.8125 0-0.59375 0.3382-0.1875 0.6719l5.6875 4.3281 5.6875-4.3281c0.41835-0.3184 0.625-0.6719-0.1875-0.6719zm-1 1.5v6.5c0 0.5 0.5 1 1 1h11c0.5 0 1-0.5 1-1v-6.5l-6.5 5z" color="#000000" fill="#fff" opacity=".3" stroke="#fff" stroke-linejoin="round" stroke-width="2"/>
    <path id="path7085-23" d="m424 1057.4c-0.8125 0-0.59375 0.3382-0.1875 0.6719l5.6875 4.3281 5.6875-4.3281c0.41835-0.3184 0.625-0.6719-0.1875-0.6719zm-1 1.5v6.5c0 0.5 0.5 1 1 1h11c0.5 0 1-0.5 1-1v-6.5l-6.5 5z" color="#000000" fill="#747474"/>
   </g>
   <rect id="rect22284-8" x="420" y="1050.4" width="18" height="18" color="#000000" fill="none" opacity=".5"/>
  </g>
 </g>
</svg>
