<!-- Created with Inkscape (http://www.inkscape.org/) -->
<svg id="svg5369" width="12" height="12" version="1.1" xmlns="http://www.w3.org/2000/svg">
 <g id="layer1" transform="translate(-150 -980.36)">
  <g id="power_tower-12">
   <path id="path4746" transform="translate(0 1028.4)" d="m152-47v2h1v-1h2v2h-3v2h1v-1h2s-1.3596 3.9788-2 6h1l0.65625-2h2.6875l0.65625 2h1c-0.99084-1.9817-2-6-2-6h2v1h1v-2h-3v-2h2v1h1v-2h-5zm4 4 1 3h-2z" fill="none" opacity=".3" stroke="#fff" stroke-linejoin="round" stroke-width="2"/>
   <path id="path4737" transform="translate(0 1028.4)" d="m152-47v2h1v-1h2v2h-3v2h1v-1h2s-1.3596 3.9788-2 6h1l0.65625-2h2.6875l0.65625 2h1c-0.99084-1.9817-2-6-2-6h2v1h1v-2h-3v-2h2v1h1v-2h-5zm4 4 1 3h-2z" fill="#747474"/>
   <rect id="rect4739" transform="translate(0 1028.4)" x="150" y="-48" width="12" height="12" fill="none" opacity=".3"/>
  </g>
 </g>
</svg>
