<svg id="svg6" width="18" height="18" version="1.1" xmlns="http://www.w3.org/2000/svg">
 <g id="pub-18" transform="translate(-132 -1010.4)">
  <rect id="rect3664" transform="translate(0 1028.4)" x="132" y="-18" width="18" height="18" fill="none"/>
  <path id="path4481" transform="translate(0 1028.4)" d="m137-16c-1 0-2 1-2 2v10l-1 2h11l-1-2h3c1 0 1-1 1-1v-6c0-1-1-2-2-2h-2v-1c0-1-1-2-2-2zm1 1h3c2 0 2 1 2 1-3 0-5.1454 0.19773-5 3 0 2-2 2-2 0v-2c0-1 1-2 2-2zm6 3h1c1 0 2 0 2 2v5h-3zm-8 8h7v1h-7z" fill="none" opacity=".3" stroke="#fff" stroke-linejoin="round" stroke-width="2"/>
  <path id="path4470" transform="translate(0 1028.4)" d="m137-16c-1 0-2 1-2 2v10l-1 2h11l-1-2h3c1 0 1-1 1-1v-6c0-1-1-2-2-2h-2v-1c0-1-1-2-2-2zm1 1h3c2 0 2 1 2 1-3 0-5.1454 0.19773-5 3 0 2-2 2-2 0v-2c0-1 1-2 2-2zm6 3h1c1 0 2 0 2 2v5h-3zm-8 8h7v1h-7z" fill="#747474"/>
 </g>
</svg>
