<svg id="svg6" width="18" height="18" version="1.1" xmlns="http://www.w3.org/2000/svg">
 <path id="path2" d="m4 4c-1 0-2 1-2 2v2l-1 1v2h4v-2l-1-1v-2s4.6887-1e-5 6-3e-5v4c-3 1-3 5-1 6h-8v1l16-1e-5v-1h-4v-1l4 1e-5v-1h-4v-1h4v-1l-5-2v-4c0-1-1-2-2-2h-2v-2h2c1 0 1-1 0-1h-5c-1 0-1 1 0 1h2v2z" fill="none" opacity=".3" stroke="#fff" stroke-linejoin="round" stroke-width="2"/>
 <path id="path4" d="m4 4c-1 0-2 1-2 2v2l-1 1v2h4v-2l-1-1v-2s4.6887-1e-5 6-3e-5v4c-3 1-3 5-1 6h-8v1l16-1e-5v-1h-4v-1l4 1e-5v-1h-4v-1h4v-1l-5-2v-4c0-1-1-2-2-2h-2v-2h2c1 0 1-1 0-1h-5c-1 0-1 1 0 1h2v2z" fill="#747474"/>
</svg>
