<!-- Created with Inkscape (http://www.inkscape.org/) -->
<svg id="svg5369" width="18" height="18.076" version="1.1" xmlns="http://www.w3.org/2000/svg">
 <g id="layer1" transform="translate(0 -884.29)">
  <g id="pump-manual-18">
   <path id="path9988" d="m10 885.36c-2.4176-0.56606-3.217 1.7347-2 3l1 1v1h-5c-1 0-2 1-2 2v2h-1v1h4v-1h-1v-2s2.6887 0 4-2e-5v7l-2 1h-5v1h16v-1h-5l-2-1v-11l1-1s3 1 3 4 3 4 3 4v-1s-2 0-2-3c0-5-5-6-5-6z" fill="none" opacity=".3" stroke="#fff" stroke-linejoin="round" stroke-width="2"/>
   <path id="rect10180" d="m10 885.36c-2.4176-0.56606-3.217 1.7347-2 3l1 1v1h-5c-1 0-2 1-2 2v2h-1v1h4v-1h-1v-2s2.6887 0 4-2e-5v7l-2 1h-5v1h16v-1h-5l-2-1v-11l1-1s3 1 3 4 3 4 3 4v-1s-2 0-2-3c0-5-5-6-5-6z" fill="#747474"/>
   <rect id="rect10183" transform="scale(-1,1)" x="-18" y="884.36" width="18" height="18" fill="none"/>
  </g>
 </g>
</svg>
