<svg id="svg6" width="18" height="18" version="1.1" xmlns="http://www.w3.org/2000/svg">
 <g id="recycling-18" transform="translate(-102 -938.36)">
  <path id="path5097" d="m115.47 949.59h1.6355c0.39152 0 0.79759-0.17088 1.2182-0.5128 0.44895-0.35615 0.67343-0.73391 0.67343-1.1333 0-0.18464-0.0611-0.36656-0.18192-0.54496l-1.9449-2.9712-3.3459 1.9456zm1.0686 4.0296 2.4584-4.4676c-0.36336 0.4136-0.75887 0.69152-1.1862 0.83375-0.34207 0.11424-0.83087 0.17104-1.4646 0.17104h-2.736v-0.56671c0-0.22064-0.0536-0.33136-0.16047-0.33136-0.0786 0-0.13584 0.0291-0.17088 0.0856l-1.7312 3.0033 1.7955 2.7577c0.13552 0.20672 0.25263 0.28848 0.35263 0.24544 0.0994-0.0283 0.14976-0.0814 0.14976-0.16v-0.94079h1.5176c0.55583 0 0.94751-0.20992 1.1755-0.63039zm-1.6883-8.3902 1.6885-2.8432c0.0568-0.0994 0.0854-0.20304 0.0854-0.30976 0-0.12831-0.0427-0.19247-0.128-0.19247 0.0134 0-0.0429 0.0214-0.17104 0.0642l-0.76959 0.35263-0.70528-1.4c-0.31391-0.62688-0.94063-0.94063-1.8813-0.94063h-4.3926c0.53423 0.16415 0.89743 0.32431 1.0899 0.48095 0.44912 0.35648 0.90848 1.0261 1.3787 2.0093l0.87663 1.8385-0.65231 0.31008c-0.064 0.0288-0.096 0.0854-0.096 0.17088 0 0.10688 0.0674 0.168 0.20304 0.18176l3.4739 0.27775zm-7.813 8.9777h3.7942v-3.9436h-3.6553c-0.44896 0.64112-0.73055 1.0765-0.84431 1.304-0.1856 0.3632-0.27776 0.73423-0.27776 1.1112 0 1.0194 0.32736 1.5285 0.98319 1.5285zm1.6032-8.2508 1.9665-3.046c-0.73439-1.6742-1.5145-2.512-2.3408-2.512-0.49904 0-0.83327 0.13936-1.0043 0.4168l-1.8601 2.9716zm-0.91919 2.426 0.716 0.43808c0.12079 0 0.18175-0.0499 0.18175-0.14976 0-0.0638-0.0291-0.15264-0.0854-0.26704l-1.5819-2.9713-3.5059 0.0858c-0.1568 7e-3 -0.23504 0.0891-0.23504 0.24576 0 0.0357 0.0498 0.0854 0.1496 0.1496l0.72687 0.43807-0.76959 1.1968c-0.2136 0.3422-0.32048 0.62411-0.32048 0.84475 0 0.2 0.0707 0.42432 0.2136 0.67343l2.3835 4.1574c-0.0571-0.26335-0.0854-0.51295-0.0854-0.74831 0-0.41968 0.13136-0.83343 0.3952-1.2397l1.8173-2.8536z" fill="none" opacity=".3" stroke="#fff" stroke-linejoin="round" stroke-width="2"/>
  <path id="path4239" d="m115.47 949.59h1.6355c0.39152 0 0.79759-0.17088 1.2182-0.5128 0.44895-0.35615 0.67343-0.73391 0.67343-1.1333 0-0.18464-0.0611-0.36656-0.18192-0.54496l-1.9449-2.9712-3.3459 1.9456zm1.0686 4.0296 2.4584-4.4676c-0.36336 0.4136-0.75887 0.69152-1.1862 0.83375-0.34207 0.11424-0.83087 0.17104-1.4646 0.17104h-2.736v-0.56671c0-0.22064-0.0536-0.33136-0.16047-0.33136-0.0786 0-0.13584 0.0291-0.17088 0.0856l-1.7312 3.0033 1.7955 2.7577c0.13552 0.20672 0.25263 0.28848 0.35263 0.24544 0.0994-0.0283 0.14976-0.0814 0.14976-0.16v-0.94079h1.5176c0.55583 0 0.94751-0.20992 1.1755-0.63039zm-1.6883-8.3902 1.6885-2.8432c0.0568-0.0994 0.0854-0.20304 0.0854-0.30976 0-0.12831-0.0427-0.19247-0.128-0.19247 0.0134 0-0.0429 0.0214-0.17104 0.0642l-0.76959 0.35263-0.70528-1.4c-0.31391-0.62688-0.94063-0.94063-1.8813-0.94063h-4.3926c0.53423 0.16415 0.89743 0.32431 1.0899 0.48095 0.44912 0.35648 0.90848 1.0261 1.3787 2.0093l0.87663 1.8385-0.65231 0.31008c-0.064 0.0288-0.096 0.0854-0.096 0.17088 0 0.10688 0.0674 0.168 0.20304 0.18176l3.4739 0.27775zm-7.813 8.9777h3.7942v-3.9436h-3.6553c-0.44896 0.64112-0.73055 1.0765-0.84431 1.304-0.1856 0.3632-0.27776 0.73423-0.27776 1.1112 0 1.0194 0.32736 1.5285 0.98319 1.5285zm1.6032-8.2508 1.9665-3.046c-0.73439-1.6742-1.5145-2.512-2.3408-2.512-0.49904 0-0.83327 0.13936-1.0043 0.4168l-1.8601 2.9716zm-0.91919 2.426 0.716 0.43808c0.12079 0 0.18175-0.0499 0.18175-0.14976 0-0.0638-0.0291-0.15264-0.0854-0.26704l-1.5819-2.9713-3.5059 0.0858c-0.1568 7e-3 -0.23504 0.0891-0.23504 0.24576 0 0.0357 0.0498 0.0854 0.1496 0.1496l0.72687 0.43807-0.76959 1.1968c-0.2136 0.3422-0.32048 0.62411-0.32048 0.84475 0 0.2 0.0707 0.42432 0.2136 0.67343l2.3835 4.1574c-0.0571-0.26335-0.0854-0.51295-0.0854-0.74831 0-0.41968 0.13136-0.83343 0.3952-1.2397l1.8173-2.8536z" fill="#747474"/>
  <rect id="rect5099" transform="translate(0 1028.4)" x="102" y="-90" width="18" height="18" fill="none" opacity=".3"/>
 </g>
</svg>
