<!-- Created with Inkscape (http://www.inkscape.org/) -->
<svg id="svg5369" width="18" height="18" version="1.1" xmlns="http://www.w3.org/2000/svg">
 <g id="layer1" transform="translate(3.0518e-5 -902.36)">
  <g id="restaurant-18" transform="translate(-342,-148)">
   <g id="g21606">
    <path id="path14875" d="m348 1052.4h-1v4.5c0 0.7777 1 0.7222 1 1.5v7c0 0.3889 0.5 1 1 1s1-0.5 1-1v-7c0-0.7778 1-0.7223 1-1.5v-4.5h-1v3h-0.5v-3h-1v3h-0.5zm8 0c-0.77778 0-2.0081 0.5162-2.5 1.5-0.38889 0.7777-0.5 2.5-0.5 3.5v3c0 0.5 0.61111 1 1 1v4c0 0.5 0.5 1 1 1s1-0.5 1-1z" color="#000000" fill="#fff" opacity=".3" stroke="#fff" stroke-linejoin="round" stroke-width="2"/>
    <path id="rect6396-83" d="m348 1052.4h-1v4.5c0 0.7777 1 0.7222 1 1.5v7c0 0.3889 0.5 1 1 1s1-0.5 1-1v-7c0-0.7778 1-0.7223 1-1.5v-4.5h-1v3h-0.5v-3h-1v3h-0.5zm8 0c-0.77778 0-2.0081 0.5162-2.5 1.5-0.38889 0.7777-0.5 2.5-0.5 3.5v3c0 0.5 0.61111 1 1 1v4c0 0.5 0.5 1 1 1s1-0.5 1-1z" color="#000000" fill="#747474"/>
   </g>
   <rect id="rect22284-4" x="342" y="1050.4" width="18" height="18" color="#000000" fill="none" opacity=".5"/>
  </g>
 </g>
</svg>
