<!-- Created with Inkscape (http://www.inkscape.org/) -->
<svg id="svg5369" width="18" height="18" version="1.1" xmlns="http://www.w3.org/2000/svg">
 <g id="layer1" transform="translate(3.0518e-5 -974.36)">
  <g id="school-18" transform="translate(-264,-76)">
   <g id="g21614" transform="translate(0,-1)">
    <path id="path12957" d="m274.75 1053.4c-0.69036 0-1.25 0.5596-1.25 1.25s0.55964 1.25 1.25 1.25 1.25-0.5596 1.25-1.25-0.55964-1.25-1.25-1.25zm-5.6875 1c-0.69036 0-1.25 0.5596-1.25 1.25s0.55964 1.25 1.25 1.25 1.25-0.5596 1.25-1.25-0.55964-1.25-1.25-1.25zm6.6875 2c-0.27951 0-0.73981 0.1009-1.125 0.375l-2.4375 1.75c-0.66135 0.4706-0.0545 1.2832 0.5625 0.875l1.5938-1.0625s0.43663 0.3561 0.65625 1.0625l-0.0312 1.8438-1.625 4.3437c-0.18821 0.5019 0.16603 0.8175 0.53125 0.8125 0.23949 0 0.47639-0.1604 0.59375-0.4375l2.0312-4.5625s0.375 1.9999 1.875 2c0.90139 1e-4 1.625 0 2.125 0s0.5-0.5 0.5-0.5 0-0.5-0.5-0.5c-0.375 0-1.625-1e-4 -2 0 0 0-0.5 0-0.5-1 0-0.7037-0.78022-2.4984-1-3v-0.5l2.5 1.375c0.6798 0.4533 1.2843-0.3492 0.625-0.8437l-2.625-1.5313c-0.51696-0.2904-1.0822-0.5-1.75-0.5zm-7.125 1c-0.375 0-0.55236 0.1774-0.75 0.375l-1.5938 1.5938c-0.2052 0.2052-0.28125 0.3888-0.28125 0.6562 0 0.375 0.55763 0.5673 0.875 0.25l1.375-1.375c0.3148 0 0.75 0.039 0.75 0.5v2.125l-1.125 3c-0.3116 0.8309 0.8582 1.0865 1.125 0.375l1.125-3s0.375 0.5 1.125 0.5h2.1875c0.75 0 0.75-1 0-1h-1.9375s-0.5 0-0.5-0.5v-0.75c0-1.5-0.5-2.75-1.25-2.75z" color="#000000" fill="none" opacity=".3" stroke="#fff" stroke-linecap="round" stroke-linejoin="round" stroke-width="2"/>
    <path id="path17507" d="m274.75 1053.4c-0.69036 0-1.25 0.5596-1.25 1.25s0.55964 1.25 1.25 1.25 1.25-0.5596 1.25-1.25-0.55964-1.25-1.25-1.25zm-5.6875 1c-0.69036 0-1.25 0.5596-1.25 1.25s0.55964 1.25 1.25 1.25 1.25-0.5596 1.25-1.25-0.55964-1.25-1.25-1.25zm6.6875 2c-0.27951 0-0.73981 0.1009-1.125 0.375l-2.4375 1.75c-0.66135 0.4706-0.0545 1.2832 0.5625 0.875l1.5938-1.0625s0.43663 0.3561 0.65625 1.0625l-0.0312 1.8438-1.625 4.3437c-0.18821 0.5019 0.16603 0.8175 0.53125 0.8125 0.23949 0 0.47639-0.1604 0.59375-0.4375l2.0312-4.5625s0.375 1.9999 1.875 2c0.90139 1e-4 1.625 0 2.125 0s0.5-0.5 0.5-0.5 0-0.5-0.5-0.5c-0.375 0-1.625-1e-4 -2 0 0 0-0.5 0-0.5-1 0-0.7037-0.78022-2.4984-1-3v-0.5l2.5 1.375c0.6798 0.4533 1.2843-0.3492 0.625-0.8437l-2.625-1.5313c-0.51696-0.2904-1.0822-0.5-1.75-0.5zm-7.125 1c-0.375 0-0.55236 0.1774-0.75 0.375l-1.5938 1.5938c-0.2052 0.2052-0.28125 0.3888-0.28125 0.6562 0 0.375 0.55763 0.5673 0.875 0.25l1.375-1.375c0.3148 0 0.75 0.039 0.75 0.5v2.125l-1.125 3c-0.3116 0.8309 0.8582 1.0865 1.125 0.375l1.125-3s0.375 0.5 1.125 0.5h2.1875c0.75 0 0.75-1 0-1h-1.9375s-0.5 0-0.5-0.5v-0.75c0-1.5-0.5-2.75-1.25-2.75z" color="#000000" fill="#747474"/>
   </g>
   <rect id="rect22284-1" x="264" y="1050.4" width="18" height="18" color="#000000" fill="none" opacity=".5"/>
  </g>
 </g>
</svg>
