<svg id="svg6" width="18" height="18" version="1.1" xmlns="http://www.w3.org/2000/svg">
 <g id="seafood-18" transform="translate(-102 -866.36)">
  <path id="path5796" transform="translate(0 1028.4)" d="m109-159 1 3c-3 1-3.4164 1.2082-5 2l-2-3 1 3.5-1 3.5 2-3c1.3912 0.69561 3.3142 0.64098 5 1 0.3319 0.0707-0.30142 2.0136 0 2 0.36852-0.0166 1.6651-2 2-2 2 0 6.6272-1 7-2-0.55913-1-4.5675-2-7-2zm6.625 3.7812c0.41421 0 0.75 0.33579 0.75 0.75s-0.33579 0.75-0.75 0.75-0.75-0.33579-0.75-0.75 0.33579-0.75 0.75-0.75z" fill="none" opacity=".3" stroke="#fff" stroke-linejoin="round" stroke-width="2"/>
  <path id="path4359" transform="translate(0 1028.4)" d="m109-159 1 3c-3 1-3.4164 1.2082-5 2l-2-3 1 3.5-1 3.5 2-3c1.3912 0.69561 3.3142 0.64098 5 1 0.3319 0.0707-0.30142 2.0136 0 2 0.36852-0.0166 1.6651-2 2-2 2 0 6.6272-1 7-2-0.55913-1-4.5675-2-7-2zm6.625 3.7812c0.41421 0 0.75 0.33579 0.75 0.75s-0.33579 0.75-0.75 0.75-0.75-0.33579-0.75-0.75 0.33579-0.75 0.75-0.75z" fill="#747474"/>
  <rect id="rect5798" transform="translate(0 1028.4)" x="102" y="-162" width="18" height="18" fill="none" opacity=".3"/>
 </g>
</svg>
