<svg id="svg2" width="18" height="18" version="1.1" xmlns="http://www.w3.org/2000/svg">
 <g id="shoemaker-18" transform="translate(-102 -776.36)">
  <rect id="rect4879" transform="translate(0 1028.4)" x="102" y="-252" width="18" height="18" fill="none" opacity=".3"/>
  <g id="g4931" fill="none" opacity=".3" stroke="#fff" stroke-linejoin="round" stroke-width="2">
   <path id="path4933" d="m104 785.36-2.7e-4 -4c1.4142-1.4142 1.2929-1.8787 2-4h1v4h11l-2.7e-4 2-11-1e-5v2z"/>
   <path id="path4935" d="m108 787.36v2c2-1 3.9587-2.0164 5-2 3.9969-0.0235 6 1 6 1s2e-5 2-1 2c-4.025-0.0277-6 2-7 3-2-1-4-1-6 0 0 0-2-3-1-6z"/>
  </g>
  <g id="g4927" fill="#747474">
   <path id="path4874" d="m104 785.36-2.7e-4 -4c1.4142-1.4142 1.2929-1.8787 2-4h1v4h11l-2.7e-4 2-11-1e-5v2z"/>
   <path id="path4895" d="m108 787.36v2c2-1 3.9587-2.0164 5-2 3.9969-0.0235 6 1 6 1s2e-5 2-1 2c-4.025-0.0277-6 2-7 3-2-1-4-1-6 0 0 0-2-3-1-6z"/>
  </g>
  <rect id="rect4937" transform="translate(0 1028.4)" x="102" y="-252" width="18" height="18" fill="none" opacity=".3"/>
 </g>
</svg>
