<svg id="svg6" width="18" height="18" version="1.1" xmlns="http://www.w3.org/2000/svg">
 <path id="path2" d="m9 2.5c-2.8674 0-4.8543 3.2331-5 7h-2l3 6h8l3-6h-2c-0.01616-3.6882-2.1326-7-5-7zm0 1.3125c2.2594 0 3.5662 2.7163 3.6875 5.6875h-7.375c0.088871-2.8665 1.4281-5.6875 3.6875-5.6875z" fill="none" opacity=".3" stroke="#fff" stroke-linejoin="round" stroke-width="2"/>
 <path id="path4" d="m9 2.5c-2.8674 0-4.8543 3.2331-5 7h-2l3 6h8l3-6h-2c-0.01616-3.6882-2.1326-7-5-7zm0 1.3125c2.2594 0 3.5662 2.7163 3.6875 5.6875h-7.375c0.088871-2.8665 1.4281-5.6875 3.6875-5.6875z" fill="#747474"/>
</svg>
