<svg id="svg2" width="18" height="18" version="1.1" xmlns="http://www.w3.org/2000/svg">
 <g id="shower-18" transform="translate(-36 -776.36)">
  <g id="g7122" fill="none" opacity=".3" stroke="#fff" stroke-linejoin="round">
   <path id="path7124" d="m45.489 786.21c1.0181 0 1.8421-0.824 1.8421-1.8421s-0.82384-1.8419-1.8421-1.8419-1.8438 0.824-1.8438 1.8421c-1.6e-4 1.0181 0.8256 1.8419 1.8438 1.8419z" stroke-width="2"/>
   <path id="path7126" d="m45 791.36c1 0 1 0 1-1v-1c0-1 0-1-1-1s-1 0-0.9901 0.75592c0.88644 0.19056 0.87642 1.3684-0.01634 1.5477 0.006445 0.69635 0.006445 0.69635 1.0064 0.69635zm-2.0197-4.5629c0.19776-0.19024 0.72656-0.43712 1.0197-0.43712h3l4-3c0.78208-0.78736 1.7837 0.21264 1 1l-4 3 0.04496 6h-5.045v-2.6661h-1.9366c-0.45232 0-0.82032-0.36624-0.82032-0.82032 0-0.19408 0.06592-0.36992 0.1776-0.5128z" stroke-width="2"/>
   <path id="path7128" transform="matrix(.16 0 0 .16 37 777.36)" d="m18.75 6.25-6.25-6.25h-12.5v12.5l6.25 6.25z" stroke-width="12.5"/>
   <path id="path7130" d="m40.492 786.65c-0.04224 0.27088 0.14464 0.51632 0.41008 0.55296 0.26736 0.0438 0.52-0.15008 0.55296-0.41008 0.04032-0.27088-0.14288-0.51648-0.412-0.55312-0.26544-0.0402-0.51616 0.14304-0.55104 0.41024z" stroke-width="2"/>
   <path id="path7132" d="m40.915 785.54c0.03664-0.25632-0.13728-0.49072-0.39184-0.52736-0.25456-0.0366-0.48896 0.1392-0.5256 0.39184-0.03664 0.26 0.1392 0.48688 0.39184 0.52384 0.2528 0.0403 0.49088-0.13904 0.5256-0.38832z" stroke-width="2"/>
   <path id="path7134" d="m40.375 784.28c0.03296-0.24176-0.12992-0.46512-0.37168-0.50176-0.24176-0.033-0.46336 0.13184-0.49808 0.37344-0.03472 0.24544 0.12992 0.46144 0.36992 0.49808 0.24176 0.0405 0.46688-0.13536 0.49984-0.36976z" stroke-width="2"/>
   <path id="path7136" d="m39.835 783.02c0.03296-0.22704-0.12272-0.43952-0.35168-0.47248-0.23072-0.033-0.43952 0.12448-0.47248 0.35152-0.03296 0.23072 0.12448 0.43584 0.35152 0.47248 0.22704 0.0366 0.44144-0.12816 0.47264-0.35152z" stroke-width="2"/>
   <path id="path7138" d="m39.294 781.77c0.0312-0.216-0.11712-0.41744-0.33136-0.44672-0.21792-0.0293-0.41376 0.11712-0.44496 0.33328-0.0312 0.21984 0.11536 0.41008 0.3296 0.44672 0.216 0.033 0.41744-0.12096 0.44672-0.33328z" stroke-width="2"/>
   <path id="path7140" d="m38.223 780.61c-0.03104 0.20512 0.10992 0.38448 0.31136 0.41744 0.20144 0.033 0.39008-0.11344 0.41936-0.3112 0.02928-0.20144-0.10992-0.39184-0.31136-0.41744-0.20704-0.0293-0.39184 0.10976-0.41936 0.3112z" stroke-width="2"/>
   <path id="path7142" d="m42.31 784.88c0.01296-0.26368 0.24-0.47248 0.50544-0.45776 0.26736 0.0147 0.47056 0.23808 0.45776 0.50912-0.0093 0.26736-0.23808 0.4688-0.50544 0.45408-0.2656-7e-3 -0.47248-0.2344-0.45776-0.50544z" stroke-width="2"/>
   <path id="path7144" d="m42.006 784.35c-0.25264-0.0109-0.4504-0.22336-0.43584-0.48336 0.0128-0.2528 0.22896-0.44672 0.4816-0.43584 0.25456 0.0146 0.44688 0.22704 0.43584 0.48336-0.01104 0.25648-0.22704 0.44688-0.4816 0.43584z" stroke-width="2"/>
   <path id="path7146" d="m41.246 783.32c-0.23984-0.011-0.42672-0.21248-0.41376-0.45408s0.216-0.42848 0.45776-0.41376c0.23984 0.011 0.4248 0.21616 0.41392 0.45776-0.0094 0.23792-0.21616 0.42464-0.45792 0.41008z" stroke-width="2"/>
   <path id="path7148" d="m40.484 782.29c-0.22704-0.0109-0.40464-0.20144-0.39184-0.43216 0.0128-0.22704 0.20512-0.40288 0.43392-0.39184 0.22704 0.011 0.40288 0.20512 0.39184 0.43216-0.0091 0.22704-0.20496 0.4064-0.43392 0.39184z" stroke-width="2"/>
   <path id="path7150" d="m39.725 781.26c-0.21424-0.0109-0.38272-0.19408-0.36992-0.41008 0.01104-0.21248 0.19232-0.37712 0.40832-0.36992 0.21424 0.0109 0.3808 0.19408 0.36992 0.41008-0.0093 0.21248-0.19424 0.38096-0.40832 0.36992z" stroke-width="2"/>
   <path id="path7152" d="m38.815 780.05c0.01088-0.20144 0.18128-0.35888 0.38448-0.34784 0.20144 7e-3 0.35888 0.17952 0.34784 0.3808-0.0091 0.20144-0.1832 0.36256-0.38448 0.34784-0.20144-0.0109-0.35872-0.17936-0.34784-0.3808z" stroke-width="2"/>
   <path id="path7154" d="m43.63 782.8c-0.26736 0.0147-0.49984-0.1904-0.50912-0.45776-0.01472-0.27104 0.196-0.49808 0.46336-0.50912 0.26192-0.011 0.49072 0.1904 0.50176 0.46512 0.01648 0.26016-0.18864 0.49072-0.456 0.50176z" stroke-width="2"/>
   <path id="path7156" d="m43.05 781.54c0.0128 0.24544-0.1776 0.45776-0.42848 0.4688-0.25088 0.011-0.46688-0.17952-0.47792-0.42848-0.01088-0.2528 0.1832-0.46144 0.43392-0.47616 0.2472-0.011 0.45952 0.17952 0.47248 0.43584z" stroke-width="2"/>
   <path id="path7158" d="m42.013 780.78c0.01104 0.23072-0.16848 0.42848-0.40288 0.43952-0.2344 0.0109-0.4376-0.16848-0.44672-0.3992-0.01104-0.23808 0.17216-0.43584 0.40656-0.44672 0.23072-0.011 0.43024 0.16832 0.44304 0.4064z" stroke-width="2"/>
   <path id="path7160" d="m40.977 780.02c0.0093 0.216-0.15744 0.40288-0.37536 0.41008-0.21792 0.0109-0.40656-0.15744-0.41568-0.3736-0.0093-0.21968 0.16112-0.40288 0.37904-0.41376 0.21424-0.0109 0.40112 0.1576 0.412 0.37728z" stroke-width="2"/>
   <path id="path7162" d="m39.408 779.49c-0.01104-0.20512 0.14832-0.37712 0.34976-0.38448 0.19968-0.0109 0.3736 0.14656 0.38272 0.34784 0.0093 0.20144-0.1464 0.3736-0.34784 0.38096-0.20144 0.0109-0.37728-0.14656-0.38464-0.34432z" stroke-width="2"/>
   <path id="path7164" d="m40.314 778.51c0.19968-0.0293 0.39008 0.11008 0.41936 0.31136 0.02944 0.20144-0.10992 0.39184-0.31312 0.41744-0.20144 0.033-0.39008-0.10992-0.4192-0.31136-0.02752-0.20144 0.11328-0.38816 0.31296-0.41744z" stroke-width="2"/>
   <path id="path7166" d="m41.856 779.16c0.0312 0.21232-0.11712 0.41008-0.3296 0.43952-0.21248 0.033-0.412-0.11712-0.44128-0.32592-0.02944-0.21248 0.11904-0.41376 0.3296-0.44336 0.21072-0.0291 0.41024 0.11744 0.44128 0.32976z" stroke-width="2"/>
   <path id="path7168" d="m43.178 779.7c0.03296 0.22704-0.12272 0.43216-0.34608 0.46512-0.22336 0.033-0.43392-0.12448-0.46512-0.34432-0.03104-0.22336 0.12448-0.43216 0.34608-0.46512 0.2216-0.033 0.43216 0.12096 0.46512 0.34432z" stroke-width="2"/>
   <path id="path7170" d="m44.498 780.24c0.03472 0.2344-0.12816 0.4504-0.36256 0.48704-0.23264 0.033-0.45408-0.12816-0.48528-0.36256-0.03296-0.2344 0.12816-0.45408 0.36064-0.48704 0.2344-0.0365 0.45424 0.12832 0.4872 0.36256z" stroke-width="2"/>
   <path id="path7172" d="m45.82 780.78c0.03472 0.24544-0.13568 0.47248-0.37904 0.50912-0.24352 0.0366-0.4744-0.13552-0.5072-0.37728-0.03504-0.24528 0.13344-0.476 0.37696-0.51264 0.24544-0.033 0.47248 0.13536 0.50928 0.3808z" stroke-width="2"/>
   <path id="path7174" d="m47.142 781.31c0.0384 0.25632-0.14096 0.4944-0.39568 0.53104-0.2544 0.0366-0.49616-0.14288-0.53088-0.39552-0.03664-0.25632 0.13904-0.49808 0.39376-0.53472 0.25616-0.0366 0.496 0.14272 0.5328 0.3992z" stroke-width="2"/>
   <path id="path7176" d="m47.91 781.43c0.26736-0.0366 0.51648 0.15008 0.55488 0.41744 0.04032 0.26368-0.14832 0.5128-0.412 0.55312-0.26528 0.0402-0.51808-0.14656-0.55296-0.41376-0.0384-0.26752 0.14448-0.51648 0.41008-0.5568z" stroke-width="2"/>
  </g>
  <g id="g7093" fill="#747474">
   <path id="path3" d="m45.489 786.21c1.0181 0 1.8421-0.824 1.8421-1.8421s-0.82384-1.8419-1.8421-1.8419-1.8438 0.824-1.8438 1.8421c-1.6e-4 1.0181 0.8256 1.8419 1.8438 1.8419z"/>
   <path id="path5" d="m45 791.36c1 0 1 0 1-1v-1c0-1 0-1-1-1s-1 0-0.9901 0.75592c0.88644 0.19056 0.87642 1.3684-0.01634 1.5477 0.006445 0.69635 0.006445 0.69635 1.0064 0.69635zm-2.0197-4.5629c0.19776-0.19024 0.72656-0.43712 1.0197-0.43712h3l4-3c0.78208-0.78736 1.7837 0.21264 1 1l-4 3 0.04496 6h-5.045v-2.6661h-1.9366c-0.45232 0-0.82032-0.36624-0.82032-0.82032 0-0.19408 0.06592-0.36992 0.1776-0.5128z"/>
   <path id="polygon7" transform="matrix(.16 0 0 .16 37 777.36)" d="m18.75 6.25-6.25-6.25h-12.5v12.5l6.25 6.25z"/>
   <path id="path9" d="m40.492 786.65c-0.04224 0.27088 0.14464 0.51632 0.41008 0.55296 0.26736 0.0438 0.52-0.15008 0.55296-0.41008 0.04032-0.27088-0.14288-0.51648-0.412-0.55312-0.26544-0.0402-0.51616 0.14304-0.55104 0.41024z"/>
   <path id="path11" d="m40.915 785.54c0.03664-0.25632-0.13728-0.49072-0.39184-0.52736-0.25456-0.0366-0.48896 0.1392-0.5256 0.39184-0.03664 0.26 0.1392 0.48688 0.39184 0.52384 0.2528 0.0403 0.49088-0.13904 0.5256-0.38832z"/>
   <path id="path13" d="m40.375 784.28c0.03296-0.24176-0.12992-0.46512-0.37168-0.50176-0.24176-0.033-0.46336 0.13184-0.49808 0.37344-0.03472 0.24544 0.12992 0.46144 0.36992 0.49808 0.24176 0.0405 0.46688-0.13536 0.49984-0.36976z"/>
   <path id="path15" d="m39.835 783.02c0.03296-0.22704-0.12272-0.43952-0.35168-0.47248-0.23072-0.033-0.43952 0.12448-0.47248 0.35152-0.03296 0.23072 0.12448 0.43584 0.35152 0.47248 0.22704 0.0366 0.44144-0.12816 0.47264-0.35152z"/>
   <path id="path17" d="m39.294 781.77c0.0312-0.216-0.11712-0.41744-0.33136-0.44672-0.21792-0.0293-0.41376 0.11712-0.44496 0.33328-0.0312 0.21984 0.11536 0.41008 0.3296 0.44672 0.216 0.033 0.41744-0.12096 0.44672-0.33328z"/>
   <path id="path19" d="m38.223 780.61c-0.03104 0.20512 0.10992 0.38448 0.31136 0.41744 0.20144 0.033 0.39008-0.11344 0.41936-0.3112 0.02928-0.20144-0.10992-0.39184-0.31136-0.41744-0.20704-0.0293-0.39184 0.10976-0.41936 0.3112z"/>
   <path id="path21" d="m42.31 784.88c0.01296-0.26368 0.24-0.47248 0.50544-0.45776 0.26736 0.0147 0.47056 0.23808 0.45776 0.50912-0.0093 0.26736-0.23808 0.4688-0.50544 0.45408-0.2656-7e-3 -0.47248-0.2344-0.45776-0.50544z"/>
   <path id="path23" d="m42.006 784.35c-0.25264-0.0109-0.4504-0.22336-0.43584-0.48336 0.0128-0.2528 0.22896-0.44672 0.4816-0.43584 0.25456 0.0146 0.44688 0.22704 0.43584 0.48336-0.01104 0.25648-0.22704 0.44688-0.4816 0.43584z"/>
   <path id="path25" d="m41.246 783.32c-0.23984-0.011-0.42672-0.21248-0.41376-0.45408s0.216-0.42848 0.45776-0.41376c0.23984 0.011 0.4248 0.21616 0.41392 0.45776-0.0094 0.23792-0.21616 0.42464-0.45792 0.41008z"/>
   <path id="path27" d="m40.484 782.29c-0.22704-0.0109-0.40464-0.20144-0.39184-0.43216 0.0128-0.22704 0.20512-0.40288 0.43392-0.39184 0.22704 0.011 0.40288 0.20512 0.39184 0.43216-0.0091 0.22704-0.20496 0.4064-0.43392 0.39184z"/>
   <path id="path29" d="m39.725 781.26c-0.21424-0.0109-0.38272-0.19408-0.36992-0.41008 0.01104-0.21248 0.19232-0.37712 0.40832-0.36992 0.21424 0.0109 0.3808 0.19408 0.36992 0.41008-0.0093 0.21248-0.19424 0.38096-0.40832 0.36992z"/>
   <path id="path31" d="m38.815 780.05c0.01088-0.20144 0.18128-0.35888 0.38448-0.34784 0.20144 7e-3 0.35888 0.17952 0.34784 0.3808-0.0091 0.20144-0.1832 0.36256-0.38448 0.34784-0.20144-0.0109-0.35872-0.17936-0.34784-0.3808z"/>
   <path id="path33" d="m43.63 782.8c-0.26736 0.0147-0.49984-0.1904-0.50912-0.45776-0.01472-0.27104 0.196-0.49808 0.46336-0.50912 0.26192-0.011 0.49072 0.1904 0.50176 0.46512 0.01648 0.26016-0.18864 0.49072-0.456 0.50176z"/>
   <path id="path35" d="m43.05 781.54c0.0128 0.24544-0.1776 0.45776-0.42848 0.4688-0.25088 0.011-0.46688-0.17952-0.47792-0.42848-0.01088-0.2528 0.1832-0.46144 0.43392-0.47616 0.2472-0.011 0.45952 0.17952 0.47248 0.43584z"/>
   <path id="path37" d="m42.013 780.78c0.01104 0.23072-0.16848 0.42848-0.40288 0.43952-0.2344 0.0109-0.4376-0.16848-0.44672-0.3992-0.01104-0.23808 0.17216-0.43584 0.40656-0.44672 0.23072-0.011 0.43024 0.16832 0.44304 0.4064z"/>
   <path id="path39" d="m40.977 780.02c0.0093 0.216-0.15744 0.40288-0.37536 0.41008-0.21792 0.0109-0.40656-0.15744-0.41568-0.3736-0.0093-0.21968 0.16112-0.40288 0.37904-0.41376 0.21424-0.0109 0.40112 0.1576 0.412 0.37728z"/>
   <path id="path41" d="m39.408 779.49c-0.01104-0.20512 0.14832-0.37712 0.34976-0.38448 0.19968-0.0109 0.3736 0.14656 0.38272 0.34784 0.0093 0.20144-0.1464 0.3736-0.34784 0.38096-0.20144 0.0109-0.37728-0.14656-0.38464-0.34432z"/>
   <path id="path43" d="m40.314 778.51c0.19968-0.0293 0.39008 0.11008 0.41936 0.31136 0.02944 0.20144-0.10992 0.39184-0.31312 0.41744-0.20144 0.033-0.39008-0.10992-0.4192-0.31136-0.02752-0.20144 0.11328-0.38816 0.31296-0.41744z"/>
   <path id="path45" d="m41.856 779.16c0.0312 0.21232-0.11712 0.41008-0.3296 0.43952-0.21248 0.033-0.412-0.11712-0.44128-0.32592-0.02944-0.21248 0.11904-0.41376 0.3296-0.44336 0.21072-0.0291 0.41024 0.11744 0.44128 0.32976z"/>
   <path id="path47" d="m43.178 779.7c0.03296 0.22704-0.12272 0.43216-0.34608 0.46512-0.22336 0.033-0.43392-0.12448-0.46512-0.34432-0.03104-0.22336 0.12448-0.43216 0.34608-0.46512 0.2216-0.033 0.43216 0.12096 0.46512 0.34432z"/>
   <path id="path49" d="m44.498 780.24c0.03472 0.2344-0.12816 0.4504-0.36256 0.48704-0.23264 0.033-0.45408-0.12816-0.48528-0.36256-0.03296-0.2344 0.12816-0.45408 0.36064-0.48704 0.2344-0.0365 0.45424 0.12832 0.4872 0.36256z"/>
   <path id="path51" d="m45.82 780.78c0.03472 0.24544-0.13568 0.47248-0.37904 0.50912-0.24352 0.0366-0.4744-0.13552-0.5072-0.37728-0.03504-0.24528 0.13344-0.476 0.37696-0.51264 0.24544-0.033 0.47248 0.13536 0.50928 0.3808z"/>
   <path id="path53" d="m47.142 781.31c0.0384 0.25632-0.14096 0.4944-0.39568 0.53104-0.2544 0.0366-0.49616-0.14288-0.53088-0.39552-0.03664-0.25632 0.13904-0.49808 0.39376-0.53472 0.25616-0.0366 0.496 0.14272 0.5328 0.3992z"/>
   <path id="path55" d="m47.91 781.43c0.26736-0.0366 0.51648 0.15008 0.55488 0.41744 0.04032 0.26368-0.14832 0.5128-0.412 0.55312-0.26528 0.0402-0.51808-0.14656-0.55296-0.41376-0.0384-0.26752 0.14448-0.51648 0.41008-0.5568z"/>
  </g>
  <rect id="rect7178" transform="translate(0 1028.4)" x="36" y="-252" width="18" height="18" fill="none" opacity=".3"/>
 </g>
</svg>
