<svg id="svg6" width="18" height="18" version="1.1" xmlns="http://www.w3.org/2000/svg">
 <g id="social_facility-18" transform="translate(0 -992.36)">
  <rect id="rect16571" transform="translate(0 1028.4)" y="-36" width="18" height="18" fill="none"/>
  <path id="path16620" d="m9 993.36-8 3v1l8-2.875 8 2.875v-1zm-3 4.5c-0.82843 0-1.5 0.67157-1.5 1.5 0 0.7248 0.50398 1.3289 1.1875 1.4688l-0.03125 0.2187-3.6562 3.3125h1l2.3125-1.5625-1.3125 6.5625h1l1-3 1 3h1l-1.3125-6.625 1.75 1.2188 0.5625 0.4062 0.5625-0.375 1.75-1.1875-1.3125 6.5625h1l1-3 1 3h1l-1.3125-6.625 2.3125 1.625h1l-3.6562-3.375-0.03125-0.1562c0.68352-0.1399 1.1875-0.7439 1.1875-1.4688 0-0.82843-0.67157-1.5-1.5-1.5s-1.5 0.67157-1.5 1.5c0 0.7249 0.50398 1.3289 1.1875 1.4688l-0.03125 0.2187-2.6562 2.4063-2.6562-2.4688-0.03125-0.1562c0.68352-0.1399 1.1875-0.744 1.1875-1.4688 0-0.82843-0.67157-1.5-1.5-1.5z" color="#000000" fill="none" opacity=".3" stroke="#fff" stroke-linejoin="round" stroke-width="2" style="text-decoration-line:none;text-indent:0;text-transform:none"/>
  <path id="path16581" d="m9 993.36-8 3v1l8-2.875 8 2.875v-1zm-3 4.5c-0.82843 0-1.5 0.67157-1.5 1.5 0 0.7248 0.50398 1.3289 1.1875 1.4688l-0.03125 0.2187-3.6562 3.3125h1l2.3125-1.5625-1.3125 6.5625h1l1-3 1 3h1l-1.3125-6.625 1.75 1.2188 0.5625 0.4062 0.5625-0.375 1.75-1.1875-1.3125 6.5625h1l1-3 1 3h1l-1.3125-6.625 2.3125 1.625h1l-3.6562-3.375-0.03125-0.1562c0.68352-0.1399 1.1875-0.7439 1.1875-1.4688 0-0.82843-0.67157-1.5-1.5-1.5s-1.5 0.67157-1.5 1.5c0 0.7249 0.50398 1.3289 1.1875 1.4688l-0.03125 0.2187-2.6562 2.4063-2.6562-2.4688-0.03125-0.1562c0.68352-0.1399 1.1875-0.744 1.1875-1.4688 0-0.82843-0.67157-1.5-1.5-1.5z" color="#000000" fill="#747474" style="text-decoration-line:none;text-indent:0;text-transform:none"/>
 </g>
</svg>
