<svg id="svg6" width="18" height="18" version="1.1" xmlns="http://www.w3.org/2000/svg">
 <g id="studio-18" transform="translate(-36 -830.36)">
  <path id="path6072" d="m48.875 838.29v1.086c0 2.1528-1.751 3.9038-3.9038 3.9038s-3.9038-1.751-3.9038-3.9038v-1.086h-1.0672v1.086c0 2.5608 1.9464 4.6749 4.4374 4.9421v1.9765l-3.4374 0.0674v1h8v-1l-3.4951-0.0674v-1.9765c2.4911-0.26707 4.4374-2.3811 4.4374-4.9421v-1.086zm-3.8749 4.072c2 0 3-1.5294 3-3v-5c-1.7e-4 -1.4701-1-3-3-3s-3 1.5299-3 3v5c-1.7e-4 1.4706 1 3 3 3z" fill="#747474" opacity=".3" stroke="#fff" stroke-linejoin="round" stroke-width="2"/>
  <path id="path6039" d="m48.875 838.29v1.086c0 2.1528-1.751 3.9038-3.9038 3.9038s-3.9038-1.751-3.9038-3.9038v-1.086h-1.0672v1.086c0 2.5608 1.9464 4.6749 4.4374 4.9421v1.9765l-3.4374 0.0674v1h8v-1l-3.4951-0.0674v-1.9765c2.4911-0.26707 4.4374-2.3811 4.4374-4.9421v-1.086zm-3.8749 4.072c2 0 3-1.5294 3-3v-5c-1.7e-4 -1.4701-1-3-3-3s-3 1.5299-3 3v5c-1.7e-4 1.4706 1 3 3 3z" fill="#747474"/>
  <rect id="rect6074" transform="translate(0 1028.4)" x="36" y="-198" width="18" height="18" rx=".49725" ry=".032999" fill="none" opacity=".3"/>
 </g>
</svg>
