<!-- Created with Inkscape (http://www.inkscape.org/) -->
<svg id="svg5369" width="18" height="18" version="1.1" xmlns="http://www.w3.org/2000/svg">
 <g id="layer1" transform="translate(3.0518e-5 -848.36)">
  <g id="supermarket-18" transform="translate(-342,-346)">
   <g id="g21554" transform="translate(-1,-1)">
    <path id="path15344" d="m357.5 1198.9c-1 0-1.5 0.5-1.5 1.5h-10l1.0588 6h9.1765v1h-8.4118c-0.76471 0-0.76435 0.7411 0 0.7647h1.1471 6.1176 1.1471c0.38236 0 0.76471-0.3824 0.76471-0.7647v-1-4.9412-1.0588c0-0.5 0.23836-0.7353 0.7647-0.7353h1.2353v-0.7647zm-2.5 9.2059c-0.6335 0-1.1471 0.5136-1.1471 1.147 0 0.6335 0.51356 1.1471 1.1471 1.1471 0.63351 0 1.1471-0.5136 1.1471-1.1471 0-0.6334-0.51355-1.147-1.1471-1.147zm-6 0c-0.63351 0-1.1471 0.5136-1.1471 1.147 0 0.6335 0.51355 1.1471 1.1471 1.1471 0.6335 0 1.1471-0.5136 1.1471-1.1471 0-0.6334-0.51356-1.147-1.1471-1.147z" color="#000000" fill="#fff" opacity=".3" stroke="#fff" stroke-linecap="round" stroke-linejoin="round" stroke-width="2"/>
    <path id="rect7842-0" d="m357.5 1198.9c-1 0-1.5 0.5-1.5 1.5h-10l1.0588 6h9.1765v1h-8.4118c-0.76471 0-0.76435 0.7411 0 0.7647h1.1471 6.1176 1.1471c0.38236 0 0.76471-0.3824 0.76471-0.7647v-1-4.9412-1.0588c0-0.5 0.23836-0.7353 0.7647-0.7353h1.2353v-0.7647zm-2.5 9.2059c-0.6335 0-1.1471 0.5136-1.1471 1.147 0 0.6335 0.51356 1.1471 1.1471 1.1471 0.63351 0 1.1471-0.5136 1.1471-1.1471 0-0.6334-0.51355-1.147-1.1471-1.147zm-6 0c-0.63351 0-1.1471 0.5136-1.1471 1.147 0 0.6335 0.51355 1.1471 1.1471 1.1471 0.6335 0 1.1471-0.5136 1.1471-1.1471 0-0.6334-0.51356-1.147-1.1471-1.147z" color="#000000" fill="#747474"/>
   </g>
   <rect id="rect22429" x="342" y="1194.4" width="18" height="18" color="#000000" fill="none" opacity=".5"/>
  </g>
 </g>
</svg>
