<svg id="svg6" width="18" height="18" version="1.1" xmlns="http://www.w3.org/2000/svg">
 <g id="tailor-18" transform="translate(-36 -920.36)">
  <path id="path15628" transform="translate(0 1028.4)" d="m45-104c-2.7614 0-5 2.2386-5 5 0 2.7614 2.2386 5 5 5s5-2.2386 5-5c0-2.7614-2.2386-5-5-5zm-2 2c0.55228 0 1 0.44772 1 1s-0.44772 1-1 1-1-0.44772-1-1 0.44772-1 1-1zm4 0c0.55228 0 1 0.44772 1 1s-0.44772 1-1 1-1-0.44772-1-1 0.44772-1 1-1zm-0.125 3.8438c0.55228 0 1 0.44772 1 1s-0.44772 1-1 1-1-0.44772-1-1 0.44772-1 1-1zm-3.875 0.15625c0.55228 0 1 0.44772 1 1s-0.44772 1-1 1-1-0.44772-1-1 0.44772-1 1-1zm2-8c-3.8601 0-7 3.1399-7 7s3.1399 7 7 7 7-3.1399 7-7-3.1399-7-7-7zm0 1c3.3196 0 6 2.6804 6 6s-2.6804 6-6 6-6-2.6804-6-6 2.6804-6 6-6z" fill="none" opacity=".3" stroke="#fff" stroke-linejoin="round" stroke-width="2"/>
  <path id="path15589" transform="translate(0 1028.4)" d="m45-104c-2.7614 0-5 2.2386-5 5 0 2.7614 2.2386 5 5 5s5-2.2386 5-5c0-2.7614-2.2386-5-5-5zm-2 2c0.55228 0 1 0.44772 1 1s-0.44772 1-1 1-1-0.44772-1-1 0.44772-1 1-1zm4 0c0.55228 0 1 0.44772 1 1s-0.44772 1-1 1-1-0.44772-1-1 0.44772-1 1-1zm-0.125 3.8438c0.55228 0 1 0.44772 1 1s-0.44772 1-1 1-1-0.44772-1-1 0.44772-1 1-1zm-3.875 0.15625c0.55228 0 1 0.44772 1 1s-0.44772 1-1 1-1-0.44772-1-1 0.44772-1 1-1zm2-8c-3.8601 0-7 3.1399-7 7s3.1399 7 7 7 7-3.1399 7-7-3.1399-7-7-7zm0 1c3.3196 0 6 2.6804 6 6s-2.6804 6-6 6-6-2.6804-6-6 2.6804-6 6-6z" fill="#747474"/>
  <rect id="rect15630" transform="translate(0 1028.4)" x="36" y="-108" width="18" height="18" rx=".9945" ry=".032999" fill="none" opacity=".3"/>
 </g>
</svg>
