<svg id="svg10" width="18" height="18" version="1.1" xmlns="http://www.w3.org/2000/svg">
 <g id="taxi-18" transform="translate(-36 -866.36)">
  <path id="path7847" d="m39.523 877.01"/>
  <path id="path7883" d="m51.555 874.66-1.316-3.3643c-0.24288-0.63504-0.77904-1.1599-1.7909-1.1569h-1.4483v-1.779h-4v1.779h-1.4483c-1.007-3e-3 -1.543 0.52185-1.7909 1.1569l-1.3162 3.3643c-0.51824 0.0624-1.44 0.66752-1.4446 1.811l1e-6 3.8888h1.2861l-1e-6 1.7511c-0.0034 1.675 2.3976 1.6554 2.3949 0l1e-6 -1.7511h8.6379l-1e-6 1.7511c0.0029 1.6554 2.404 1.675 2.4046 0l1e-6 -1.7511h1.2765l-1e-6 -3.8888c9.6e-4 -1.1435-0.92176-1.7486-1.4448-1.811zm-12.032 3.4733c-0.61424-1.6e-4 -1.111-0.50656-1.1083-1.1278-0.0029-0.62928 0.49392-1.136 1.1083-1.1381 0.61056 2e-3 1.107 0.50896 1.1082 1.1381-0.0011 0.62128-0.4976 1.1277-1.1082 1.1278zm0.4768-3.7735 0.79938-2.3812c0.12128-0.3696 0.30688-0.63744 0.74224-0.6432 7.4584 0.0244 0.45838 0.0244 6.9264 0 0.4304 6e-3 0.616 0.2736 0.74224 0.6432l0.78976 2.3812zm10.487 3.7735c-0.61568-1.6e-4 -1.1125-0.50656-1.1085-1.1278-4e-3 -0.62928 0.4928-1.136 1.1085-1.1381 0.60944 2e-3 1.1056 0.50896 1.1086 1.1381-3e-3 0.62128-0.49936 1.1277-1.1086 1.1278z" fill="#fff" opacity=".3" stroke="#fff" stroke-linejoin="round" stroke-width="2"/>
  <path id="path7849" d="m51.555 874.66-1.316-3.3643c-0.24288-0.63504-0.77904-1.1599-1.7909-1.1569h-1.4483v-1.779h-4v1.779h-1.4483c-1.007-3e-3 -1.543 0.52185-1.7909 1.1569l-1.3162 3.3643c-0.51824 0.0624-1.44 0.66752-1.4446 1.811l1e-6 3.8888h1.2861l-1e-6 1.7511c-0.0034 1.675 2.3976 1.6554 2.3949 0l1e-6 -1.7511h8.6379l-1e-6 1.7511c0.0029 1.6554 2.404 1.675 2.4046 0l1e-6 -1.7511h1.2765l-1e-6 -3.8888c9.6e-4 -1.1435-0.92176-1.7486-1.4448-1.811zm-12.032 3.4733c-0.61424-1.6e-4 -1.111-0.50656-1.1083-1.1278-0.0029-0.62928 0.49392-1.136 1.1083-1.1381 0.61056 2e-3 1.107 0.50896 1.1082 1.1381-0.0011 0.62128-0.4976 1.1277-1.1082 1.1278zm0.4768-3.7735 0.79938-2.3812c0.12128-0.3696 0.30688-0.63744 0.74224-0.6432 7.4584 0.0244 0.45838 0.0244 6.9264 0 0.4304 6e-3 0.616 0.2736 0.74224 0.6432l0.78976 2.3812zm10.487 3.7735c-0.61568-1.6e-4 -1.1125-0.50656-1.1085-1.1278-4e-3 -0.62928 0.4928-1.136 1.1085-1.1381 0.60944 2e-3 1.1056 0.50896 1.1086 1.1381-3e-3 0.62128-0.49936 1.1277-1.1086 1.1278z" fill="#747474"/>
  <path id="path7851" d="m50.487 877.01"/>
  <rect id="rect7885" transform="translate(0 1028.4)" x="36" y="-162" width="18" height="18" fill="none" opacity=".3"/>
 </g>
</svg>
