<svg id="svg6" width="18" height="18" version="1.1" xmlns="http://www.w3.org/2000/svg">
 <g id="telephone-18" transform="translate(-72 -758.36)">
  <path id="path5463" transform="translate(0 1028.4)" d="m80-265v1l-1 0.0312c-1.1149 1.4296-2.4296 2.1836-4 2.9688l-1 5.0312h14l-1-5.0312c-1.6988-0.58121-2.7558-1.744-4-2.9688l-1-0.0312v-1zm1 3.5938c1.0796 0 1.9688 0.85788 1.9688 1.9375s-0.88913 1.9688-1.9688 1.9688-1.9688-0.88913-1.9688-1.9688 0.88913-1.9375 1.9688-1.9375zm-6-5.5938c3-1 9-1 12 0 0.94478 1.3487 1 2.4338 1 4h-3l-1-2h-6l-1 2h-3c-0.24598-1.6144 0.30193-2.6039 1-4z" fill="none" opacity=".3" stroke="#fff" stroke-linejoin="round" stroke-width="2"/>
  <path id="path5453" transform="translate(0 1028.4)" d="m80-265v1l-1 0.0312c-1.1149 1.4296-2.4296 2.1836-4 2.9688l-1 5.0312h14l-1-5.0312c-1.6988-0.58121-2.7558-1.744-4-2.9688l-1-0.0312v-1zm1 3.5938c1.0796 0 1.9688 0.85788 1.9688 1.9375s-0.88913 1.9688-1.9688 1.9688-1.9688-0.88913-1.9688-1.9688 0.88913-1.9375 1.9688-1.9375zm-6-5.5938c3-1 9-1 12 0 0.94478 1.3487 1 2.4338 1 4h-3l-1-2h-6l-1 2h-3c-0.24598-1.6144 0.30193-2.6039 1-4z" fill="#747474"/>
  <rect id="rect5455" transform="translate(0 1028.4)" x="72" y="-270" width="18" height="18" rx=".98896" ry=".99359" fill="none"/>
 </g>
</svg>
