<!-- Created with Inkscape (http://www.inkscape.org/) -->
<svg id="svg5369" width="18" height="18" version="1.1" xmlns="http://www.w3.org/2000/svg">
 <g id="layer1" transform="translate(-66 -902.36)">
  <g id="theatre-18" transform="translate(-276,-364)">
   <path id="path14391" d="m345.78 1268.4c-0.38889 0-0.78125 0.3924-0.78125 0.7813v5.5c0 1.7236 0.76389 3.7812 3.875 3.7812 0.27897 0-0.11909-0.027 0.125-0.062v-2h-2.5s0.5555-2 2.5-2v-1.6562c0-0.713 0.10973-1.454 0.5-1.8443 0.39026-0.3903 0.86828-1.267 2.5-0.5005l1 0.5005v-1.7182c0-0.3889-0.39236-0.7813-0.78125-0.7813-0.72222 0-2.2188 1-3.2188 1s-2.4965-1-3.2188-1zm1.2188 2c0.55228 0 1 0.4477 1 1s-0.44772 1-1 1-1-0.4477-1-1 0.44772-1 1-1zm3.7812 1c-0.36665 0-0.78125 0.3924-0.78125 0.7813v5.2187c0 1.7236 0.88889 4 4 4s4-2.2764 4-4v-5.2187c0-0.3889-0.4146-0.7813-0.78125-0.7813-0.72222 0-2.2188 1-3.2188 1s-2.4965-1-3.2188-1zm1.2188 2c0.55228 0 1 0.4477 1 1s-0.44772 1-1 1-1-0.4477-1-1 0.44772-1 1-1zm4 0c0.55228 0 1 0.4477 1 1s-0.44772 1-1 1-1-0.4477-1-1 0.44772-1 1-1zm-4.5 4h2.5625 2.4375s-0.55555 2-2.5 2c-1.9444 0-2.5-2-2.5-2z" color="#000000" fill="#fff" opacity=".3" stroke="#fff" stroke-linecap="round" stroke-linejoin="round" stroke-width="2"/>
   <path id="path6342-3" d="m345.78 1268.4c-0.38889 0-0.78125 0.3924-0.78125 0.7813v5.5c0 1.7236 0.76389 3.7812 3.875 3.7812 0.27897 0-0.11909-0.027 0.125-0.062v-2h-2.5s0.5555-2 2.5-2v-1.6562c0-0.713 0.10973-1.454 0.5-1.8443 0.39026-0.3903 0.88818-1.308 2.5-0.5005l1 0.5005v-1.7182c0-0.3889-0.39236-0.7813-0.78125-0.7813-0.72222 0-2.2188 1-3.2188 1s-2.4965-1-3.2188-1zm1.2188 2c0.55228 0 1 0.4477 1 1s-0.44772 1-1 1-1-0.4477-1-1 0.44772-1 1-1zm3.7812 1c-0.36665 0-0.78125 0.3924-0.78125 0.7813v5.2187c0 1.7236 0.88889 4 4 4s4-2.2764 4-4v-5.2187c0-0.3889-0.4146-0.7813-0.78125-0.7813-0.72222 0-2.2188 1-3.2188 1s-2.4965-1-3.2188-1zm1.2188 2c0.55228 0 1 0.4477 1 1s-0.44772 1-1 1-1-0.4477-1-1 0.44772-1 1-1zm4 0c0.55228 0 1 0.4477 1 1s-0.44772 1-1 1-1-0.4477-1-1 0.44772-1 1-1zm-4.5 4h2.5625 2.4375s-0.55555 2-2.5 2c-1.9444 0-2.5-2-2.5-2z" color="#000000" fill="#747474"/>
   <rect id="rect6499" x="342" y="1266.4" width="18" height="18" color="#000000" fill="none"/>
  </g>
 </g>
</svg>
