<!-- Created with Inkscape (http://www.inkscape.org/) -->
<svg id="svg5369" width="18" height="18" version="1.1" xmlns="http://www.w3.org/2000/svg">
 <g id="layer1" transform="translate(0 -920.36)">
  <g id="toilets-18" transform="translate(-342,-370)">
   <path id="path7719" d="m348 1291.4c-1.1046 0-2 0.8954-2 2s0.89543 2 2 2 2-0.8954 2-2-0.89543-2-2-2zm7 0c-1.1046 0-2 0.8954-2 2s0.89543 2 2 2 2-0.8954 2-2-0.89543-2-2-2zm-7.5 5-1.5 1.5v2.5l-1.5 2.5 0.5 0.5h2v3h2v-3h2l0.5-0.5-1.5-2.5v-2.5l-1.5-1.5zm5.5 0-0.99999 1 2 4.5v4.5h2v-4.5l2-4.5-1-1z" color="#000000" fill="none" opacity=".3" stroke="#fff" stroke-linecap="round" stroke-linejoin="round" stroke-width="2"/>
   <path id="path7660" d="m348 1291.4c-1.1046 0-2 0.8954-2 2s0.89543 2 2 2 2-0.8954 2-2-0.89543-2-2-2zm7 0c-1.1046 0-2 0.8954-2 2s0.89543 2 2 2 2-0.8954 2-2-0.89543-2-2-2zm-7.5 5-1.5 1.5v2.5l-1.5 2.5 0.5 0.5h2v3h2v-3h2l0.5-0.5-1.5-2.5v-2.5l-1.5-1.5zm5.5 0-0.99999 1 2 4.5v4.5h2v-4.5l2-4.5-1-1z" color="#000000" fill="#747474"/>
   <rect id="rect7662" x="342" y="1290.4" width="18" height="18" color="#000000" fill="none" opacity=".5"/>
  </g>
 </g>
</svg>
