<!-- Created with Inkscape (http://www.inkscape.org/) -->
<svg id="svg5369" width="18" height="18" version="1.1" xmlns="http://www.w3.org/2000/svg">
 <g id="layer1" transform="translate(-36 -956.36)">
  <g id="townhall-18" transform="translate(-384,-142)">
   <g id="g21522" transform="translate(0,-2)">
    <path id="path14474" d="m435 1105.4-5.5-3-5.5 3v1.9375 5.0625l-1 2.5c0 0.3611 0.23397 0.5 0.5 0.5h12c0.25638 0 0.5-0.1389 0.5-0.5l-1-2.5v-5.0625z" color="#000000" fill="#fff" opacity=".3" stroke="#fff" stroke-linecap="round" stroke-linejoin="round" stroke-width="2"/>
    <path id="rect7645-6-5-0-1-2" d="m429.5 1102.4-5.5 3h11zm-4.5 4c-0.5 0-1 0.493-1 0.9375v5.0625l-1 2.5c0 0.3611 0.23397 0.5 0.5 0.5h12c0.25638 0 0.5-0.1389 0.5-0.5l-1-2.5v-5.0625c0-0.4445-0.5-0.9375-1-0.9375zm1.5 1 0.5 0.5v1.5 3h-1v-3-1.5zm3 0 0.5 0.5v1.5 3h-1v-3-1.5zm3 0 0.5 0.5v1.5 3h-1v-3-1.5z" color="#000000" fill="#747474"/>
   </g>
   <rect id="rect22296-2" x="420" y="1098.4" width="18" height="18" color="#000000" fill="none" opacity=".5"/>
  </g>
 </g>
</svg>
