<svg id="svg6" width="18" height="18" version="1.1" xmlns="http://www.w3.org/2000/svg">
 <g id="tyres-18" transform="translate(-132 -848.36)">
  <path id="path4473" d="m141 850.36c-3.8482 0-7 3.1518-7 7s3.1518 7 7 7 7-3.1518 7-7-3.1518-7-7-7zm-0.46875 3.0313-0.53125 1.6875c-0.37495 0.1659-0.7178 0.4008-0.96875 0.7187l-1.6875-0.031c0.55548-1.2824 1.7405-2.2072 3.1875-2.375zm0.9375 0c1.4519 0.1684 2.6658 1.0858 3.2188 2.375l-1.7188 0.062c-0.25298-0.3268-0.58589-0.5801-0.96875-0.7495zm-0.46875 2.9687c0.55228 0 1 0.4477 1 1s-0.44772 1-1 1-1-0.4477-1-1 0.44772-1 1-1zm-3.9688 0.4688 1.5 0.9062c0.0406 0.2674 0.13166 0.5175 0.25 0.75l-0.6875 1.625c-0.67856-0.7173-1.0938-1.6767-1.0938-2.75 0-0.1817 8e-3 -0.3561 0.0312-0.5312zm7.9375 0c0.023 0.1751 0.0312 0.3495 0.0312 0.5312 0 1.0819-0.40552 2.0623-1.0938 2.7813l-0.6875-1.6563c0.11834-0.2325 0.20935-0.4826 0.25-0.75l1.5-0.9062zm-4.625 2.9375c0.21084 0.058 0.42709 0.094 0.65625 0.094s0.44541-0.036 0.65625-0.094l1.4375 1c-0.61079 0.3749-1.3194 0.5937-2.0938 0.5937-0.78448 0-1.5092-0.2097-2.125-0.5937z" color="#000000" fill="none" opacity=".3" stroke="#fff" stroke-linejoin="round" stroke-width="2" style="text-decoration-line:none;text-indent:0;text-transform:none"/>
  <rect id="rect4244" transform="translate(0 1028.4)" x="132" y="-180" width="18" height="18" fill="none"/>
  <path id="path4263" d="m141 850.36c-3.8482 0-7 3.1518-7 7s3.1518 7 7 7 7-3.1518 7-7-3.1518-7-7-7zm-0.46875 3.0313-0.53125 1.6875c-0.37495 0.1659-0.7178 0.4008-0.96875 0.7187l-1.6875-0.031c0.55548-1.2824 1.7405-2.2072 3.1875-2.375zm0.9375 0c1.4519 0.1684 2.6658 1.0858 3.2188 2.375l-1.7188 0.062c-0.25298-0.3268-0.58589-0.5801-0.96875-0.7495zm-0.46875 2.9687c0.55228 0 1 0.4477 1 1s-0.44772 1-1 1-1-0.4477-1-1 0.44772-1 1-1zm-3.9688 0.4688 1.5 0.9062c0.0406 0.2674 0.13166 0.5175 0.25 0.75l-0.6875 1.625c-0.67856-0.7173-1.0938-1.6767-1.0938-2.75 0-0.1817 8e-3 -0.3561 0.0312-0.5312zm7.9375 0c0.023 0.1751 0.0312 0.3495 0.0312 0.5312 0 1.0819-0.40552 2.0623-1.0938 2.7813l-0.6875-1.6563c0.11834-0.2325 0.20935-0.4826 0.25-0.75l1.5-0.9062zm-4.625 2.9375c0.21084 0.058 0.42709 0.094 0.65625 0.094s0.44541-0.036 0.65625-0.094l1.4375 1c-0.61079 0.3749-1.3194 0.5937-2.0938 0.5937-0.78448 0-1.5092-0.2097-2.125-0.5937z" color="#000000" fill="#747474" style="text-decoration-line:none;text-indent:0;text-transform:none"/>
 </g>
</svg>
