<!-- Created with Inkscape (http://www.inkscape.org/) -->
<svg id="svg5369" width="18" height="18" version="1.1" xmlns="http://www.w3.org/2000/svg">
 <g id="layer1" transform="translate(3.0518e-5 -992.36)">
  <g id="university-18" transform="translate(-264 -82)">
   <g id="g21624" transform="translate(-1)">
    <path id="path13130" d="m274.5 1078.4-6.5 3.5 6.5 3.5 4.5-2.3437v3.5625c0 1.7812 1.5 1.5312 1.5 1.5312v-0.75s-0.78125 0-0.78125-0.7812v-3.9688l1.2812-0.75zm-3.5 6.5v1.4375c0 0.3588 0.51257 0.8187 1 1.0625l2.5 1 2.5-1c0.48743-0.2438 1-0.7037 1-1.0625v-1.4375l-3.5 1.5z" color="#000000" fill="none" opacity=".3" stroke="#fff" stroke-linecap="round" stroke-linejoin="round" stroke-width="2"/>
    <path id="path7442-0" d="m274.5 1078.4-6.5 3.5 6.5 3.5 4.5-2.3437v3.5625c0 1.7812 1.5 1.5312 1.5 1.5312v-0.75s-0.78125 0-0.78125-0.7812v-3.9688l1.2812-0.75zm-3.5 6.5v1.4375c0 0.3588 0.51257 0.8187 1 1.0625l2.5 1 2.5-1c0.48743-0.2438 1-0.7037 1-1.0625v-1.4375l-3.5 1.5z" color="#000000" fill="#747474"/>
   </g>
   <rect id="rect22290-3" x="264" y="1074.4" width="18" height="18" color="#000000" fill="none" opacity=".5"/>
  </g>
 </g>
</svg>
