<svg id="svg2" width="18" height="18" version="1.1" xmlns="http://www.w3.org/2000/svg">
 <g id="viewpoint-18" transform="translate(-72 -794.35)">
  <g id="g6387" transform="matrix(.16 0 0 .16 74.616 795.34)" fill="none" opacity=".3" stroke="#fff" stroke-linejoin="round" stroke-width="12.5">
   <path id="path6389" d="m59.16 86.315-35.316-24.965 3.143-5.467 39.245 18.185zm-27.952 13.685-14.841-33.476 5.456-3.165 21.621 29.569zm27.952-86.321-35.316 24.967 3.143 5.472 39.245-18.186zm-27.952-13.679-14.841 33.47 5.456 3.166 21.621-29.564zm49.494 42.928-52.986 3.912v6.32l52.986 3.912zm-59.811 7.072c0 5.759-4.681 10.44-10.451 10.44-5.759 0-10.44-4.681-10.44-10.44 0-5.77 4.681-10.445 10.44-10.445 5.77 0 10.451 4.675 10.451 10.445z" fill="none" stroke="#fff" stroke-linejoin="round" stroke-width="12.5"/>
  </g>
  <g id="g5773" transform="matrix(.16 0 0 .16 74.616 795.34)" fill="#747474">
   <path id="polygon5775" d="m59.16 86.315-35.316-24.965 3.143-5.467 39.245 18.185zm-27.952 13.685-14.841-33.476 5.456-3.165 21.621 29.569zm27.952-86.321-35.316 24.967 3.143 5.472 39.245-18.186zm-27.952-13.679-14.841 33.47 5.456 3.166 21.621-29.564zm49.494 42.928-52.986 3.912v6.32l52.986 3.912zm-59.811 7.072c0 5.759-4.681 10.44-10.451 10.44-5.759 0-10.44-4.681-10.44-10.44 0-5.77 4.681-10.445 10.44-10.445 5.77 0 10.451 4.675 10.451 10.445z" fill="#747474"/>
  </g>
  <rect id="rect5831" transform="translate(0 1028.4)" x="72" y="-234" width="18" height="18" fill="none"/>
 </g>
</svg>
