<svg id="svg6" width="18" height="18" version="1.1" xmlns="http://www.w3.org/2000/svg">
 <path id="path2" d="m9 1c-0.62662 0-1.1542 0.51135-1.1562 1.1562h-0.5c-2.7588 0-3.3444 1.2702-3.3438 1.8438h10c-0.0026-0.5753-0.58723-1.8446-3.3438-1.8438h-0.53125c-5.92e-4 -0.3121-0.12922-0.5916-0.34375-0.8125-0.21669-0.2214-0.47403-0.34035-0.78125-0.34375zm-4.9688 4 0.84375 10.781c0 0.6668 1.8446 1.2188 4.125 1.2188 2.2804 0 4.125-0.55195 4.125-1.2188l0.875-10.781zm2.1562 0.8125c0.39715-0.019 0.79136 0.1315 0.8125 0.3125l0.90625 9.1875c0.015509 0.1808-0.32114 0.33615-0.75 0.34375-0.413 0-0.8279-0.1377-0.84375-0.3125l-0.90625-9.1875c-0.015993-0.1807 0.35768-0.33595 0.78125-0.34375zm5.2187 0.03125c0.09759-0.01408 0.22445-0.0062 0.34375 0 0.42904 0.011 0.77141 0.16415 0.75 0.34375l-0.9375 9.1562c-0.02137 0.1752-0.36291 0.3125-0.78125 0.3125h-0.0625c-0.42904-0.011-0.74016-0.16305-0.71875-0.34375l0.90625-9.1562c0.01603-0.13552 0.20722-0.27027 0.5-0.3125z" fill="#fff" opacity=".3" stroke="#fff" stroke-linejoin="round" stroke-width="2"/>
 <path id="path4" d="m9 1c-0.62662 0-1.1542 0.51135-1.1562 1.1562h-0.5c-2.7588 0-3.3444 1.2702-3.3438 1.8438h10c-0.0026-0.5753-0.58723-1.8446-3.3438-1.8438h-0.53125c-5.92e-4 -0.3121-0.12922-0.5916-0.34375-0.8125-0.21669-0.2214-0.47403-0.34035-0.78125-0.34375zm-4.9688 4 0.84375 10.781c0 0.6668 1.8446 1.2188 4.125 1.2188 2.2804 0 4.125-0.55195 4.125-1.2188l0.875-10.781zm2.1562 0.8125c0.39715-0.019 0.79136 0.1315 0.8125 0.3125l0.90625 9.1875c0.015509 0.1808-0.32114 0.33615-0.75 0.34375-0.413 0-0.8279-0.1377-0.84375-0.3125l-0.90625-9.1875c-0.015993-0.1807 0.35768-0.33595 0.78125-0.34375zm5.2187 0.03125c0.09759-0.01408 0.22445-0.0062 0.34375 0 0.42904 0.011 0.77141 0.16415 0.75 0.34375l-0.9375 9.1562c-0.02137 0.1752-0.36291 0.3125-0.78125 0.3125h-0.0625c-0.42904-0.011-0.74016-0.16305-0.71875-0.34375l0.90625-9.1562c0.01603-0.13552 0.20722-0.27027 0.5-0.3125z" fill="#747474"/>
</svg>
