<svg id="svg4" width="18" height="18" version="1.1" xmlns="http://www.w3.org/2000/svg">
 <path id="path2" d="m1.0205 13.247c1.3922-0.97803 3.0595-1.8058 4.8093-1.5446 0.54728 0.11962 1.3607 0.0393 1.6681 0.57907 0.39654 0.78018 0.79307 1.5604 1.1896 2.3405 0.23444-0.12683 0.47013-0.39128 0.70379-0.43175 0.17642 0.19309 0.59637 0.26078 0.54621 0.57054 0.0318 0.24995-0.13683 0.69005 0.2708 0.58351 1.2291 0.0649 2.4581 0.1298 3.6872 0.1947 0.0714-0.24724-0.0875-0.63851 0.16019-0.77545 0.24689-0.0821 0.50216-0.4466 0.73887-0.1863 0.24417 0.2038 0.47368 0.34022 0.58829-0.0515 0.53222-0.82891 1.0644-1.6578 1.5966-2.4867-0.14037 1.9539-1.1884 4.0504-3.1588 4.6914-1.4622 0.45061-3.1247 0.34711-4.498-0.33548-1.145-0.55194-1.6918-1.7671-2.6268-2.5568-0.8398-0.5854-1.9488-0.3255-2.8619-0.0726-1.2287 0.41136-2.2667 1.3509-2.8136 2.5234v-3.042zm0-7.203v1.041c0.66-0.0183 1.32-0.0367 1.98-0.055 8e-3 1.318 0.0167 2.636 0.025 3.954 1.0026-0.28562 2.0649-0.65565 3.1072-0.33565 0.46814-0.0612 1.3614 0.69389 1.505 0.10239 0.1401-0.2958-0.3647-0.34215-0.52992-0.51985-0.35847-0.11489 0.10206-0.42903 0.15812-0.64476 0.59887-0.98638 1.1977-1.9728 1.7966-2.9591 0.27899 0.14617 0.549 0.40618 0.83353 0.48216 0.36016-0.0269 0.24952-0.39429 0.29684-0.64745-0.0466-0.35083 0.0895-0.50377 0.44339-0.42094 1.1674-9e-3 2.3348-0.0185 3.5022-0.0278-2.0063-1.672-4.0127-3.344-6.019-5.016h-1m7.599 9.359c0.48067-0.26067 0.96133-0.52133 1.442-0.782-0.33633-0.577-0.67267-1.154-1.009-1.731-0.49667 0.26-0.99333 0.52-1.49 0.78-0.31371-0.0905-0.4726-0.27467-0.387-0.60675l0.012-1.2202c-0.65767-0.0183-1.3153-0.0367-1.973-0.055-0.0163 0.573-0.0327 1.146-0.049 1.719-0.24571 0.20758-0.48301 0.20948-0.7107-0.0241-0.35077-0.22429-0.70153-0.44858-1.0523-0.67287-0.343 0.57433-0.686 1.1487-1.029 1.723 0.46533 0.29233 0.93067 0.58467 1.396 0.877 0.0846 0.34232-0.2071 0.44175-0.4607 0.56578-0.34543 0.18607-0.69087 0.37215-1.0363 0.55822 0.29833 0.59867 0.59667 1.1973 0.895 1.796l1.428-0.783c0.19326 0.17525 0.54278 0.27466 0.42861 0.59913-9e-3 0.46262-0.0184 0.92525-0.0276 1.3879 0.66333 0.0297 1.3267 0.0593 1.99 0.089 0.0253-0.54767 0.0507-1.0953 0.076-1.643 0.2469-0.13859 0.49554-0.38727 0.73574-0.10304 0.38042 0.23635 0.76084 0.47269 1.1413 0.70904 0.35367-0.575 0.70733-1.15 1.061-1.725-0.46633-0.28067-0.93267-0.56133-1.399-0.842 6e-3 -0.20533 0.012-0.41067 0.018-0.616zm-2.45 1.725c-1.093 0.0503-1.8831-1.2781-1.3191-2.2152 0.49738-1.0314 2.1408-1.0314 2.6381 0 0.55838 0.95152-0.2154 2.2534-1.3191 2.2152z" fill="#747474"/>
</svg>
