<svg id="svg6" width="18" height="18" version="1.1" xmlns="http://www.w3.org/2000/svg">
 <path id="path2" d="m9 0.99999-4.0312 2 0.03125 5-1 9h1l0.25-2h7.5l0.25 2h1l-1-9-0.03125-5zm-3 8.125c1.7672 1.5031 4.2332 1.4999 6 0l0.53125 3.875h-6.9844z" fill="none" opacity=".3" stroke="#fff" stroke-linejoin="round" stroke-width="2"/>
 <path id="path4" d="m9 1-4.0312 2 0.03125 5-1 9h1l0.25-2h7.5l0.25 2h1l-1-9-0.03125-5zm-3 8.125c1.7672 1.5031 4.2332 1.4999 6 0l0.53125 3.875h-6.9844z" fill="#747474"/>
</svg>
