<!-- Created with Inkscape (http://www.inkscape.org/) -->
<svg id="svg5369" width="18" height="18" version="1.1" xmlns="http://www.w3.org/2000/svg">
 <g id="layer1" transform="translate(-36 -758.36)">
  <g id="acra-18">
   <path id="path6955" d="m38 760.36v14h6v-2.3125l-5.0625-5.0625c0.09153-0.13862 0.15921-0.28421 0.28125-0.40625s0.26763-0.18975 0.40625-0.28125l4.875 4.875v-9.7188c0.16274-0.0333 0.32741-0.0625 0.5-0.0625s0.33726 0.0292 0.5 0.0625v9.7188l4.875-4.875c0.13862 0.0915 0.28421 0.15921 0.40625 0.28125s0.18972 0.26763 0.28125 0.40625l-5.0625 5.0625v2.3125h6v-14zm5.6875 1.4062v4.25c-0.71547-0.43983-1.1875-1.2236-1.1875-2.125s0.47203-1.6852 1.1875-2.125zm2.625 0c0.71547 0.43983 1.1875 1.2236 1.1875 2.125s-0.47203 1.6852-1.1875 2.125zm-5.2812 4.0938c0.62425 0.01 1.2719 0.24068 1.75 0.71875 0.63742 0.63742 0.85116 1.5268 0.65625 2.3438l-3-3c0.20423-0.0487 0.38567-0.0655 0.59375-0.0625zm7.9375 0c0.20808-3e-3 0.38952 0.0138 0.59375 0.0625l-3 3c-0.19491-0.81692 0.01883-1.7063 0.65625-2.3438 0.47807-0.47807 1.1257-0.70875 1.75-0.71875zm-10.406 1.9375 3 3c-0.81692 0.19491-1.7063-0.0188-2.3438-0.65625-0.63742-0.63742-0.85116-1.5268-0.65625-2.3438zm12.875 0c0.19491 0.81692-0.01883 1.7063-0.65625 2.3438-0.63742 0.63745-1.5268 0.85116-2.3438 0.65625z" fill="none" opacity=".3" stroke="#fff" stroke-linejoin="round" stroke-width="2"/>
   <path id="rect6949" d="m38 760.36v14h6v-2.3125l-5.0625-5.0625c0.09153-0.13862 0.15921-0.28421 0.28125-0.40625s0.26763-0.18975 0.40625-0.28125l4.875 4.875v-9.7188c0.16274-0.0333 0.32741-0.0625 0.5-0.0625s0.33726 0.0292 0.5 0.0625v9.7188l4.875-4.875c0.13862 0.0915 0.28421 0.15921 0.40625 0.28125s0.18972 0.26763 0.28125 0.40625l-5.0625 5.0625v2.3125h6v-14zm5.6875 1.4062v4.25c-0.71547-0.43983-1.1875-1.2236-1.1875-2.125s0.47203-1.6852 1.1875-2.125zm2.625 0c0.71547 0.43983 1.1875 1.2236 1.1875 2.125s-0.47203 1.6852-1.1875 2.125zm-5.2812 4.0938c0.62425 0.01 1.2719 0.24068 1.75 0.71875 0.63742 0.63742 0.85116 1.5268 0.65625 2.3438l-3-3c0.20423-0.0487 0.38567-0.0655 0.59375-0.0625zm7.9375 0c0.20808-3e-3 0.38952 0.0138 0.59375 0.0625l-3 3c-0.19491-0.81692 0.01883-1.7063 0.65625-2.3438 0.47807-0.47807 1.1257-0.70875 1.75-0.71875zm-10.406 1.9375 3 3c-0.81692 0.19491-1.7063-0.0188-2.3438-0.65625-0.63742-0.63742-0.85116-1.5268-0.65625-2.3438zm12.875 0c0.19491 0.81692-0.01883 1.7063-0.65625 2.3438-0.63742 0.63745-1.5268 0.85116-2.3438 0.65625z" fill="#747474"/>
   <rect id="rect5320" x="36" y="758.36" width="18" height="18" fill="none"/>
  </g>
 </g>
</svg>
