<svg id="svg6" width="18" height="18" version="1.1" xmlns="http://www.w3.org/2000/svg">
 <path id="path2" d="m8.875 3.9688c-1.7544 0-3.2248 1.3372-3.4688 3.0312h2.0938c0.19707-0.5851 0.70978-1 1.375-1s1.2092 0.4149 1.4062 1h2.0938c-0.24399-1.694-1.7456-3.0312-3.5-3.0312zm-3.4688 4.0312c0.1561 1.0369 0.76605 1.9322 1.625 2.4688-0.86952 0.5423-1.4737 1.4809-1.625 2.5312h2.0938c0.19707-0.5851 0.70978-1 1.375-1s1.2092 0.4149 1.4062 1h2.0938c-0.15036-1.0439-0.78586-1.9565-1.6562-2.5 0.87713-0.5353 1.4991-1.4562 1.6562-2.5h-2.0938c-0.19707 0.5851-0.74104 0.9688-1.4062 0.9688s-1.1779-0.3837-1.375-0.9688zm3.5938-7c-4.4104 0-8 3.5897-8 8 0 4.4104 3.5896 8 8 8s8-3.5896 8-8c0-4.4103-3.5896-8-8-8zm0 1.3334c3.6898 0 6.6667 2.9768 6.6667 6.6666s-2.9769 6.6667-6.6667 6.6667-6.6667-2.9769-6.6667-6.6667 2.9769-6.6666 6.6667-6.6666z" color="#000000" fill="none" opacity=".3" stroke="#fff" stroke-linejoin="round" stroke-width="2" style="text-decoration-line:none;text-indent:0;text-transform:none"/>
 <path id="path4" d="m8.875 3.9688c-1.7544 0-3.2248 1.3372-3.4688 3.0312h2.0938c0.19707-0.5851 0.70978-1 1.375-1s1.2092 0.4149 1.4062 1h2.0938c-0.24399-1.694-1.7456-3.0312-3.5-3.0312zm-3.4688 4.0312c0.1561 1.0369 0.76605 1.9322 1.625 2.4688-0.86952 0.5423-1.4737 1.4809-1.625 2.5312h2.0938c0.19707-0.5851 0.70978-1 1.375-1s1.2092 0.4149 1.4062 1h2.0938c-0.15036-1.0439-0.78586-1.9565-1.6562-2.5 0.87713-0.5353 1.4991-1.4562 1.6562-2.5h-2.0938c-0.19707 0.5851-0.74104 0.9688-1.4062 0.9688s-1.1779-0.3837-1.375-0.9688zm3.5938-7c-4.4104 0-8 3.5897-8 8 0 4.4104 3.5896 8 8 8s8-3.5896 8-8c0-4.4103-3.5896-8-8-8zm0 1.3334c3.6898 0 6.6667 2.9768 6.6667 6.6666s-2.9769 6.6667-6.6667 6.6667-6.6667-2.9769-6.6667-6.6667 2.9769-6.6666 6.6667-6.6666z" color="#000000" fill="#747474" style="text-decoration-line:none;text-indent:0;text-transform:none"/>
</svg>
